<svg width="212" height="49" viewBox="0 0 212 49" fill="none" xmlns="http://www.w3.org/2000/svg">
<path d="M14.5138 20.874V25.186H0V3.136H14.1551V7.448H4.50092V12.005H13.8126V16.317H4.50092V20.874H14.5138ZM106.408 25.186V3.136H101.907V25.186H106.408ZM138.322 3.136V16.7253L127.983 3.136H123.482V25.186H127.983V10.7637L138.322 24.353V24.3693L138.942 25.186H142.806V3.136H138.322ZM212 25.186L203.504 13.671L211.266 3.136H205.461L200.601 9.73467L195.741 3.136H189.936L197.698 13.671L189.202 25.186H195.007L200.601 17.6073L206.194 25.186H212ZM162.914 12.5277C163.648 9.63667 166.241 7.51333 169.355 7.51333C172.47 7.51333 175.063 9.653 175.797 12.5277H180.559C179.776 7.03967 175.063 2.82567 169.355 2.82567C163.648 2.82567 158.951 7.03967 158.152 12.5277H162.914ZM175.797 15.7943C175.063 18.6853 172.47 20.8087 169.355 20.8087C166.241 20.8087 163.648 18.669 162.914 15.7943H158.152C158.935 21.2823 163.648 25.4963 169.355 25.4963C175.063 25.4963 179.76 21.2823 180.559 15.7943H175.797ZM84.0499 3.136H79.3695V15.8107C79.3695 18.571 77.1354 20.8087 74.3794 20.8087C71.6234 20.8087 69.3892 18.571 69.3892 15.8107V3.136H64.7089V15.8107C64.7089 21.1517 69.0305 25.4963 74.3794 25.4963C79.712 25.4963 84.0499 21.168 84.0499 15.8107V3.136ZM37.3609 21.1843C33.5123 21.1843 30.3812 18.0483 30.3812 14.1937C30.3812 10.339 33.5123 7.203 37.3609 7.203C41.2095 7.203 44.3406 10.339 44.3406 14.1937C44.3406 16.4967 43.2154 18.5547 41.5031 19.8287H47.1455C48.0914 18.179 48.6458 16.2517 48.6458 14.1937C48.6458 7.95433 43.5905 2.891 37.3609 2.891C31.1314 2.891 26.076 7.95433 26.076 14.1937C26.076 20.433 31.1314 25.4963 37.3609 25.4963H51.0594V21.1843H46.2323H37.3609ZM4.95754 36.75H8.30062V35.3453H0V36.75H3.34308V45.962C3.66923 45.962 3.93015 45.962 4.15846 45.962C4.37046 45.962 4.64769 45.962 4.97385 45.962V36.75H4.95754ZM23.8582 44.4267V41.1927H28.6852V39.788H23.8582V36.75H28.9625V35.3453H22.2437V45.8803H28.9625C28.9625 45.6027 28.9625 45.3577 28.9625 45.1617C28.9625 44.9657 28.9625 44.7207 28.9625 44.4267H23.8582ZM47.6022 46.1253C48.7763 46.1253 49.7711 45.815 50.5702 45.1943C51.3692 44.5737 51.8422 43.7407 51.9889 42.6953H50.3745C50.2277 43.2997 49.9015 43.7733 49.4123 44.1163C48.9068 44.4757 48.3197 44.639 47.6022 44.639C46.64 44.639 45.8898 44.2797 45.3191 43.5447C44.7646 42.826 44.4874 41.8297 44.4874 40.5883C44.4874 39.3307 44.7646 38.3507 45.3191 37.6157C45.8735 36.897 46.64 36.5213 47.6022 36.5213C48.3034 36.5213 48.8905 36.7173 49.396 37.1093C49.9015 37.5013 50.2277 38.024 50.3745 38.6773H51.9889C51.8585 37.5993 51.3855 36.7173 50.5702 36.0477C49.7548 35.378 48.76 35.035 47.6022 35.035C46.1345 35.035 44.9603 35.525 44.1123 36.5213C43.2643 37.5177 42.824 38.8733 42.824 40.572C42.824 42.2707 43.248 43.61 44.1123 44.6063C44.9603 45.6353 46.1182 46.1253 47.6022 46.1253ZM74.7871 35.2473H73.1563V39.739H67.6932V35.2473H66.0625V45.9457H67.6932V41.2253H73.1563V45.9457C73.4825 45.9457 73.7597 45.9457 73.9717 45.9457C74.1837 45.9457 74.4609 45.9457 74.7871 45.9457V35.2473ZM90.8665 38.3017H90.9969L96.46 45.7333H97.944V35.427H96.3622V42.875H96.2317L90.7686 35.427H89.2846V45.7333C89.6108 45.7333 89.8717 45.7333 90.0674 45.7333C90.2794 45.7333 90.5403 45.7333 90.8502 45.7333V38.3017H90.8665ZM117.024 35.0187C115.507 35.0187 114.301 35.525 113.404 36.5213C112.507 37.5177 112.066 38.8733 112.066 40.6047C112.066 42.3197 112.507 43.6753 113.387 44.688C114.268 45.6843 115.475 46.1907 117.008 46.1907C118.541 46.1907 119.747 45.6843 120.628 44.688C121.509 43.6917 121.949 42.3197 121.949 40.6047C121.949 38.8897 121.509 37.534 120.628 36.5377C119.764 35.5087 118.557 35.0187 117.024 35.0187ZM117.024 36.5377C118.035 36.5377 118.834 36.897 119.421 37.632C120.008 38.367 120.302 39.347 120.302 40.5883C120.302 41.8133 120.008 42.8097 119.421 43.5447C118.834 44.2797 118.035 44.6553 117.024 44.6553C115.997 44.6553 115.198 44.2797 114.61 43.5447C114.023 42.8097 113.746 41.8297 113.746 40.5883C113.746 39.347 114.04 38.3507 114.627 37.632C115.214 36.897 116.013 36.5377 117.024 36.5377ZM137.8 44.4103V35.1983H136.169V45.8803H142.774C142.774 45.6027 142.774 45.3577 142.774 45.1617C142.774 44.9657 142.774 44.7207 142.774 44.4103H137.8ZM161.283 35.0187C159.766 35.0187 158.56 35.525 157.663 36.5213C156.766 37.5177 156.326 38.8733 156.326 40.6047C156.326 42.3197 156.766 43.6753 157.646 44.688C158.527 45.6843 159.734 46.1907 161.267 46.1907C162.8 46.1907 164.006 45.6843 164.887 44.688C165.768 43.6917 166.208 42.3197 166.208 40.6047C166.208 38.8897 165.768 37.534 164.887 36.5377C164.006 35.5087 162.8 35.0187 161.283 35.0187ZM161.283 36.5377C162.294 36.5377 163.093 36.897 163.68 37.632C164.267 38.367 164.561 39.347 164.561 40.5883C164.561 41.8133 164.267 42.8097 163.68 43.5447C163.093 44.2797 162.294 44.6553 161.283 44.6553C160.256 44.6553 159.457 44.2797 158.87 43.5447C158.282 42.8097 158.005 41.8297 158.005 40.5883C158.005 39.347 158.299 38.3507 158.886 37.632C159.473 36.9133 160.272 36.5377 161.283 36.5377ZM189.463 41.7153V40.376H185.109V41.748H187.865V41.9767C187.865 42.777 187.587 43.414 187.049 43.904C186.511 44.394 185.794 44.639 184.913 44.639C183.918 44.639 183.119 44.2797 182.532 43.5447C181.945 42.8097 181.651 41.8297 181.651 40.572C181.651 39.3307 181.945 38.3507 182.516 37.632C183.103 36.9133 183.886 36.5377 184.864 36.5377C185.598 36.5377 186.201 36.701 186.69 37.044C187.18 37.387 187.538 37.877 187.734 38.5303H189.365C189.186 37.4523 188.68 36.603 187.865 35.9823C187.049 35.3617 186.038 35.035 184.848 35.035C183.364 35.035 182.173 35.5413 181.293 36.554C180.412 37.5667 179.955 38.906 179.955 40.5883C179.955 42.287 180.396 43.6427 181.276 44.6553C182.157 45.6517 183.347 46.158 184.864 46.158C186.25 46.158 187.359 45.7497 188.191 44.9493C189.055 44.1327 189.463 43.0547 189.463 41.7153ZM208.266 41.5847L212 35.2473H210.19L207.499 39.886H207.385L204.694 35.2473H202.884L206.618 41.5847V45.962C206.945 45.962 207.222 45.962 207.434 45.962C207.646 45.962 207.923 45.962 208.249 45.962V41.5847H208.266Z" fill="white"/>
</svg>
