<svg width="392" height="80" viewBox="0 0 392 80" fill="none" xmlns="http://www.w3.org/2000/svg">
<path d="M27.6284 33.3563V41.2797H0.916992V0.762382H26.9681V8.68576H9.20053V17.0593H26.3378V24.9827H9.20053V33.3563H27.6284ZM196.751 41.2797V0.762382H188.467V41.2797H196.751ZM255.486 0.762382V25.733L236.458 0.762382H228.174V41.2797H236.458V14.7784L255.486 39.749V39.779L256.626 41.2797H263.739V0.762382H255.486ZM391.083 41.2797L375.447 20.1206L389.733 0.762382H379.048L370.105 12.8876L361.161 0.762382H350.476L364.762 20.1206L349.126 41.2797H359.81L370.105 27.3537L380.399 41.2797H391.083ZM300.745 18.0197C302.096 12.7075 306.868 8.80581 312.6 8.80581C318.332 8.80581 323.104 12.7375 324.455 18.0197H333.219C331.778 7.93544 323.104 0.192139 312.6 0.192139C302.096 0.192139 293.452 7.93544 291.981 18.0197H300.745ZM324.455 24.0223C323.104 29.3346 318.332 33.2362 312.6 33.2362C306.868 33.2362 302.096 29.3046 300.745 24.0223H291.981C293.422 34.1066 302.096 41.8499 312.6 41.8499C323.104 41.8499 331.748 34.1066 333.219 24.0223H324.455ZM155.603 0.762382H146.989V24.0523C146.989 29.1245 142.878 33.2362 137.805 33.2362C132.733 33.2362 128.621 29.1245 128.621 24.0523V0.762382H120.008V24.0523C120.008 33.8665 127.961 41.8499 137.805 41.8499C147.62 41.8499 155.603 33.8965 155.603 24.0523V0.762382ZM69.6763 33.9265C62.5933 33.9265 56.8309 28.1641 56.8309 21.0811C56.8309 13.998 62.5933 8.23557 69.6763 8.23557C76.7594 8.23557 82.5218 13.998 82.5218 21.0811C82.5218 25.3129 80.4509 29.0945 77.2996 31.4355H87.684C89.4248 28.4042 90.4452 24.8627 90.4452 21.0811C90.4452 9.61616 81.1412 0.31219 69.6763 0.31219C58.2114 0.31219 48.9075 9.61616 48.9075 21.0811C48.9075 32.5459 58.2114 41.8499 69.6763 41.8499H94.8871V33.9265H86.0033H69.6763ZM10.0409 62.5287H16.1935V59.9476H0.916992V62.5287H7.06962V79.456C7.66987 79.456 8.15008 79.456 8.57026 79.456C8.96042 79.456 9.47064 79.456 10.0709 79.456V62.5287H10.0409ZM44.8257 76.6348V70.6922H53.7095V68.1111H44.8257V62.5287H54.2197V59.9476H41.8545V79.3059H54.2197C54.2197 78.7957 54.2197 78.3455 54.2197 77.9853C54.2197 77.6252 54.2197 77.175 54.2197 76.6348H44.8257ZM88.5244 79.7561C90.6853 79.7561 92.5161 79.1859 93.9867 78.0454C95.4573 76.9049 96.3277 75.3742 96.5978 73.4534H93.6266C93.3564 74.5639 92.7562 75.4342 91.8558 76.0645C90.9254 76.7248 89.8449 77.0249 88.5244 77.0249C86.7536 77.0249 85.373 76.3646 84.3226 75.0141C83.3022 73.6935 82.7919 71.8627 82.7919 69.5818C82.7919 67.2708 83.3022 65.47 84.3226 64.1194C85.343 62.7989 86.7536 62.1086 88.5244 62.1086C89.8149 62.1086 90.8954 62.4687 91.8258 63.189C92.7562 63.9093 93.3564 64.8697 93.6266 66.0703H96.5978C96.3577 64.0894 95.4874 62.4687 93.9867 61.2382C92.4861 60.0077 90.6553 59.3774 88.5244 59.3774C85.8232 59.3774 83.6623 60.2778 82.1016 62.1086C80.541 63.9393 79.7306 66.4304 79.7306 69.5517C79.7306 72.6731 80.511 75.1341 82.1016 76.9649C83.6623 78.8557 85.7932 79.7561 88.5244 79.7561ZM138.556 59.7676H135.554V68.0211H125.5V59.7676H122.499V79.4259H125.5V70.7523H135.554V79.4259C136.155 79.4259 136.665 79.4259 137.055 79.4259C137.445 79.4259 137.955 79.4259 138.556 79.4259V59.7676ZM168.148 65.38H168.388L178.443 79.0358H181.174V60.0977H178.263V73.7835H178.023L167.968 60.0977H165.237V79.0358C165.837 79.0358 166.318 79.0358 166.678 79.0358C167.068 79.0358 167.548 79.0358 168.118 79.0358V65.38H168.148ZM216.289 59.3474C213.498 59.3474 211.277 60.2778 209.626 62.1086C207.975 63.9393 207.165 66.4304 207.165 69.6118C207.165 72.7631 207.975 75.2542 209.596 77.115C211.217 78.9457 213.438 79.8761 216.259 79.8761C219.08 79.8761 221.301 78.9457 222.922 77.115C224.542 75.2842 225.353 72.7631 225.353 69.6118C225.353 66.4604 224.542 63.9694 222.922 62.1386C221.331 60.2478 219.11 59.3474 216.289 59.3474ZM216.289 62.1386C218.15 62.1386 219.62 62.7989 220.701 64.1494C221.781 65.5 222.321 67.3008 222.321 69.5818C222.321 71.8327 221.781 73.6635 220.701 75.0141C219.62 76.3646 218.15 77.0549 216.289 77.0549C214.398 77.0549 212.927 76.3646 211.847 75.0141C210.767 73.6635 210.256 71.8627 210.256 69.5818C210.256 67.3008 210.797 65.47 211.877 64.1494C212.957 62.7989 214.428 62.1386 216.289 62.1386ZM254.525 76.6048V59.6775H251.524V79.3059H263.679C263.679 78.7957 263.679 78.3455 263.679 77.9853C263.679 77.6252 263.679 77.175 263.679 76.6048H254.525ZM297.744 59.3474C294.952 59.3474 292.732 60.2778 291.081 62.1086C289.43 63.9393 288.62 66.4304 288.62 69.6118C288.62 72.7631 289.43 75.2542 291.051 77.115C292.671 78.9457 294.892 79.8761 297.714 79.8761C300.535 79.8761 302.756 78.9457 304.376 77.115C305.997 75.2842 306.808 72.7631 306.808 69.6118C306.808 66.4604 305.997 63.9694 304.376 62.1386C302.756 60.2478 300.535 59.3474 297.744 59.3474ZM297.744 62.1386C299.604 62.1386 301.075 62.7989 302.156 64.1494C303.236 65.5 303.776 67.3008 303.776 69.5818C303.776 71.8327 303.236 73.6635 302.156 75.0141C301.075 76.3646 299.604 77.0549 297.744 77.0549C295.853 77.0549 294.382 76.3646 293.302 75.0141C292.221 73.6635 291.711 71.8627 291.711 69.5818C291.711 67.3008 292.251 65.47 293.332 64.1494C294.412 62.8289 295.883 62.1386 297.744 62.1386ZM349.606 71.6526V69.1916H341.592V71.7127H346.665V72.1328C346.665 73.6035 346.154 74.774 345.164 75.6743C344.173 76.5747 342.853 77.0249 341.232 77.0249C339.401 77.0249 337.931 76.3646 336.85 75.0141C335.77 73.6635 335.23 71.8627 335.23 69.5517C335.23 67.2708 335.77 65.47 336.82 64.1494C337.901 62.8289 339.341 62.1386 341.142 62.1386C342.493 62.1386 343.603 62.4387 344.504 63.069C345.404 63.6992 346.064 64.5996 346.424 65.8001H349.426C349.096 63.8193 348.165 62.2586 346.665 61.1181C345.164 59.9777 343.303 59.3774 341.112 59.3774C338.381 59.3774 336.19 60.3078 334.569 62.1686C332.949 64.0294 332.108 66.4904 332.108 69.5818C332.108 72.7031 332.919 75.1941 334.539 77.0549C336.16 78.8857 338.351 79.8161 341.142 79.8161C343.693 79.8161 345.734 79.0658 347.265 77.5952C348.855 76.0945 349.606 74.1137 349.606 71.6526ZM384.211 71.4125L391.083 59.7676H387.752L382.8 68.2912H382.59L377.638 59.7676H374.306L381.179 71.4125V79.456C381.78 79.456 382.29 79.456 382.68 79.456C383.07 79.456 383.58 79.456 384.181 79.456V71.4125H384.211Z" fill="black"/>
</svg>
