<svg width="87" height="46" viewBox="0 0 87 46" fill="none" xmlns="http://www.w3.org/2000/svg">
<g clip-path="url(#clip0_198_1376)">
<path d="M16.196 38.9763L16.2279 38.9428C16.1026 38.9644 16.0133 39.0086 15.9609 39.0745C15.9085 39.1404 15.809 39.1738 15.6632 39.1738C15.7052 39.0637 15.7617 39.0302 15.8356 39.0745C15.9085 39.1188 15.9455 39.0853 15.9455 38.9752C15.7987 38.9752 15.695 39.0086 15.6313 39.0745C15.5687 39.1404 15.4845 39.1954 15.3808 39.2397C15.3182 39.1296 15.2555 39.1242 15.1929 39.2235C15.1303 39.3228 15.0461 39.3714 14.9424 39.3714C14.9003 39.4157 14.8222 39.4264 14.7072 39.4049C14.5922 39.3822 14.5142 39.4157 14.4721 39.5042C14.43 39.4599 14.3674 39.4599 14.2842 39.5042C14.2 39.5484 14.159 39.5916 14.159 39.6359C14.159 39.6802 14.1436 39.6575 14.1117 39.57C14.0809 39.4815 14.0542 39.4491 14.0337 39.4707V39.5366C13.9711 39.5366 13.9136 39.5744 13.8612 39.6521C13.8088 39.7287 13.7513 39.8119 13.6887 39.8993C13.6261 39.9868 13.5686 40.0645 13.5162 40.1304C13.4638 40.1962 13.4063 40.2178 13.3437 40.1962C13.239 40.3063 13.1661 40.3884 13.124 40.4434C13.0819 40.4985 12.8837 40.5374 12.5274 40.559C12.2975 40.5806 12.1198 40.5752 11.9946 40.5428C11.8693 40.5093 11.7543 40.4715 11.6496 40.4272C11.5448 40.383 11.4401 40.3279 11.3364 40.2621C11.2317 40.1962 11.0961 40.1304 10.9288 40.0645C10.6783 39.9328 10.4955 39.8389 10.3795 39.7838C10.2645 39.7287 10.1443 39.624 10.0191 39.4707L10.1135 39.339C10.0088 39.2505 9.93592 39.2127 9.89382 39.2235C9.85172 39.2343 9.81065 39.1414 9.76855 38.9428C9.78909 38.9201 9.82605 38.9201 9.87842 38.9428C9.93078 38.9644 9.98828 38.9644 10.0509 38.9428C10.0088 38.7668 10.0037 38.5574 10.0355 38.3166C10.0673 38.0748 10.0725 37.8437 10.0509 37.6235C10.1556 37.5576 10.2388 37.3979 10.3014 37.1452C10.3641 36.8926 10.3856 36.6886 10.3641 36.5353C10.4062 36.5568 10.4267 36.5407 10.4267 36.4856C10.4267 36.4305 10.4483 36.4035 10.4893 36.4035C10.6567 35.5237 10.8816 34.6934 11.1639 33.914C11.4463 33.1334 11.7338 32.3582 12.0264 31.5885C12.089 31.6327 12.0942 31.6824 12.0418 31.7364C11.9894 31.7904 11.974 31.8627 11.9946 31.9512C12.1198 31.907 12.1825 31.8141 12.1825 31.6705C12.1825 31.5269 12.2246 31.4341 12.3077 31.3898C12.3283 31.2581 12.3704 31.1156 12.433 30.9612C12.4956 30.8079 12.5788 30.6762 12.6835 30.565C12.6209 30.4776 12.6096 30.3782 12.6527 30.2681C12.6948 30.158 12.7359 30.0706 12.778 30.0036C12.5685 30.158 12.433 30.4052 12.3704 30.7453C12.3077 31.0865 12.1927 31.3672 12.0254 31.5863C12.3601 30.4214 12.7626 29.3267 13.2328 28.3043C13.7031 27.2819 14.1477 26.2217 14.5656 25.1216C14.7329 24.8798 14.8838 24.6002 15.0204 24.2806C15.1559 23.9621 15.3079 23.6706 15.4753 23.4061C15.4537 23.296 15.4907 23.214 15.5851 23.1589C15.6796 23.1038 15.7052 23.0326 15.6632 22.9441C15.7258 22.8782 15.7781 22.7357 15.8202 22.5154C15.7987 22.4712 15.7781 22.4658 15.7576 22.4993C15.7361 22.5327 15.7155 22.5489 15.695 22.5489C15.6744 22.5489 15.6898 22.5154 15.7422 22.4496C15.7946 22.3837 15.8521 22.3729 15.9147 22.4161C15.8305 22.306 15.8367 22.2078 15.9301 22.1192C16.0235 22.0318 16.0708 21.9001 16.0708 21.723H16.2279C16.2279 21.6788 16.2597 21.6021 16.3223 21.492C16.3223 21.4477 16.311 21.4369 16.2905 21.4585C16.2689 21.4812 16.2484 21.5136 16.2279 21.5578C16.4363 20.9425 16.7145 20.2666 17.0585 19.5292C17.4035 18.793 17.7013 18.1063 17.9528 17.4683C18.2454 16.6327 18.5535 15.8467 18.8779 15.1104C19.2013 14.3741 19.5001 13.599 19.7722 12.7849C19.7301 12.7191 19.6829 12.6694 19.6316 12.637C19.5792 12.6036 19.532 12.5442 19.4909 12.4556C19.533 12.3239 19.5956 12.2473 19.6788 12.2246C20.034 12.2689 20.3893 12.3293 20.7456 12.406C21.1008 12.4837 21.3411 12.7083 21.4674 13.0818C21.3627 13.3679 21.3 13.7145 21.2795 14.1204C21.2579 14.5274 21.185 14.8848 21.0598 15.1925C20.955 15.4127 20.8924 15.6437 20.8719 15.8856C20.8513 16.1274 20.798 16.3692 20.7148 16.6111L19.5854 19.2496C19.5227 19.4472 19.4385 19.7009 19.3348 20.0086C19.2301 20.3163 19.1356 20.5365 19.0525 20.6682C19.0104 20.7568 18.9785 20.828 18.958 20.8831C18.9364 20.9381 18.9056 21.0202 18.8635 21.1303C18.613 21.6366 18.3871 22.1084 18.189 22.5489C17.9898 22.9894 17.7762 23.4288 17.5462 23.8682C17.5462 23.9125 17.5308 23.9395 17.499 23.9502C17.4672 23.9621 17.4518 23.9783 17.4518 23.9999C17.1797 24.3961 16.9815 24.7589 16.8562 25.0882C16.8983 25.0882 16.9291 25.1 16.9507 25.1216C16.8039 25.2976 16.7258 25.4628 16.7156 25.6161C16.7043 25.7705 16.616 25.9022 16.4486 26.0123C16.4271 26.0782 16.4384 26.0944 16.4804 26.062C16.5225 26.0285 16.5328 26.0458 16.5123 26.1116C16.4076 26.2217 16.3501 26.3265 16.3398 26.4247C16.3295 26.524 16.272 26.6288 16.1673 26.7378C15.9999 26.7378 15.9168 26.7821 15.9168 26.8695C15.9589 26.9138 15.9794 26.9084 15.9794 26.8533C15.9794 26.7983 16.0112 26.7821 16.0739 26.8037C16.0318 26.8695 15.9794 26.9472 15.9168 27.0347C15.8541 27.1232 15.812 27.1891 15.7915 27.2323C15.7915 27.2765 15.8336 27.2981 15.9168 27.2981C15.8747 27.3866 15.8223 27.4417 15.7597 27.4633C15.697 27.486 15.6447 27.5292 15.6026 27.595C15.6652 27.6393 15.7124 27.6393 15.7432 27.595C15.774 27.5507 15.811 27.5507 15.8531 27.595C15.811 27.6393 15.7751 27.6943 15.7432 27.7602C15.7114 27.826 15.6652 27.8379 15.6026 27.7937C15.6652 27.9254 15.6601 28.0528 15.5872 28.1726C15.5132 28.2935 15.4249 28.3874 15.3202 28.4533C15.3202 28.4976 15.3356 28.5084 15.3674 28.4857C15.3993 28.4641 15.4147 28.4749 15.4147 28.5192C15.3305 28.6735 15.274 28.8376 15.2422 29.0136C15.2114 29.1896 15.1118 29.3105 14.9444 29.3764C14.9865 29.5966 14.9598 29.778 14.8664 29.9205C14.7719 30.0641 14.7144 30.2336 14.6939 30.4311C14.6518 30.4538 14.6159 30.47 14.584 30.4808C14.5522 30.4916 14.5368 30.5197 14.5368 30.5629H14.6313C14.5265 30.7831 14.4167 31.0195 14.3017 31.2722C14.1867 31.5248 14.1076 31.7612 14.0665 31.9815C13.9197 31.9815 13.8366 32.0635 13.816 32.2287C13.7955 32.3939 13.7318 32.531 13.6281 32.6411C13.7113 32.6411 13.7739 32.6638 13.816 32.707C13.7739 32.8387 13.7318 32.9542 13.6908 33.0535C13.6487 33.1528 13.6066 33.2684 13.5655 33.4001C13.3981 33.3774 13.3037 33.3882 13.2831 33.4325C13.2626 33.4767 13.2308 33.5199 13.1897 33.5642C13.2318 33.63 13.2626 33.6408 13.2831 33.5966C13.3037 33.5523 13.3663 33.5415 13.471 33.5642C13.471 33.6084 13.4402 33.6408 13.3766 33.6635C13.3139 33.6851 13.3026 33.7294 13.3447 33.7952C13.2821 33.8168 13.2195 33.8168 13.1568 33.7952L13.0316 34.5207C12.9895 34.5207 12.9689 34.5088 12.9689 34.4872C12.9689 34.4656 12.9474 34.4538 12.9063 34.4538C12.9895 34.3436 13.0367 34.2281 13.047 34.1072C13.0572 33.9863 13.0624 33.8708 13.0624 33.7607C12.9577 33.7607 12.8899 33.7876 12.8581 33.8427C12.8262 33.8978 12.8057 33.9636 12.7954 34.0403C12.7841 34.1169 12.7687 34.1882 12.7482 34.2551C12.7277 34.321 12.6743 34.3652 12.5911 34.3868C12.6743 34.4527 12.664 34.5293 12.5593 34.6179C12.5593 34.6395 12.6116 34.6729 12.7164 34.7172C12.6116 34.7172 12.5439 34.7507 12.512 34.8165C12.4802 34.8824 12.4545 34.9482 12.434 35.0141C12.4545 35.0357 12.4966 35.0476 12.5593 35.0476C12.3919 35.2894 12.2666 35.5636 12.1825 35.8724C12.1198 35.8281 12.125 35.7515 12.1979 35.6413C12.2708 35.5312 12.2964 35.4211 12.2759 35.3121C12.1291 35.4654 12.0356 35.6521 11.9935 35.8724C11.9514 36.0915 11.9093 36.2902 11.8683 36.4662C11.973 36.4219 12.0254 36.3291 12.0254 36.1855C12.0254 36.0419 12.088 35.949 12.2133 35.9048C12.1085 36.1909 12.0562 36.4543 12.0562 36.6961C12.0562 36.7404 12.0818 36.7458 12.1342 36.7123C12.1866 36.6788 12.202 36.7069 12.1814 36.7944C12.0346 36.7501 11.9514 36.789 11.9309 36.9099C11.9093 37.0308 11.8785 37.1128 11.8364 37.1571H11.742C11.6578 37.3989 11.6054 37.63 11.5849 37.8502C11.5633 38.0694 11.5531 38.3123 11.5531 38.5757C11.5736 38.62 11.5849 38.6254 11.5849 38.5919C11.5849 38.5584 11.6054 38.553 11.6475 38.5757C11.6681 38.6858 11.705 38.7409 11.7574 38.7409C11.8097 38.7409 11.8559 38.7852 11.898 38.8726C13.3406 38.3231 14.7781 37.8114 16.2104 37.3385C17.6427 36.8656 19.2055 36.5309 20.8996 36.3323C21.067 36.3323 21.182 36.3161 21.2446 36.2826C21.3072 36.2492 21.4325 36.233 21.6214 36.233C21.5793 36.2103 21.5896 36.1941 21.6522 36.1833C21.7148 36.1725 21.7672 36.1552 21.8093 36.1336H22.7816C23.0527 36.0678 23.372 36.0235 23.7386 36.0019C24.1041 35.9793 24.4604 35.9901 24.8054 36.0354C25.1504 36.0797 25.4738 36.1509 25.7777 36.2502C26.0806 36.3496 26.327 36.4975 26.5149 36.695C26.4728 36.7166 26.4574 36.7393 26.4677 36.7609C26.478 36.7825 26.4934 36.7987 26.5149 36.8106C26.5355 36.8214 26.557 36.844 26.5776 36.8764C26.5981 36.9099 26.5981 36.9585 26.5776 37.0243C26.5981 37.0459 26.6248 37.074 26.6556 37.1064C26.6874 37.1388 26.7028 37.1884 26.7028 37.2543C26.6813 37.1884 26.6505 37.1496 26.6084 37.1388C26.5663 37.128 26.5242 37.0999 26.4831 37.0567C26.3989 37.101 26.3938 37.1334 26.4677 37.156C26.5406 37.1776 26.557 37.2111 26.5149 37.2554C26.5149 37.2769 26.5406 37.3158 26.593 37.3709C26.6453 37.4259 26.671 37.4637 26.671 37.4864C26.5036 37.5307 26.3568 37.5361 26.2315 37.5026C26.1063 37.4691 25.9697 37.4637 25.8239 37.4864L26.4831 37.2554C26.3989 37.1895 26.3209 37.2003 26.248 37.2877C26.174 37.3752 26.1176 37.3979 26.0755 37.3536C26.0334 37.3093 26.0488 37.2985 26.1227 37.3201C26.1956 37.3417 26.2326 37.3309 26.2326 37.2867C26.211 37.2424 26.1751 37.2316 26.1227 37.2543C26.0703 37.2759 26.0015 37.2651 25.9184 37.2208H25.8865C25.8239 37.2208 25.7613 37.2089 25.6987 37.1873C25.5313 37.1431 25.3167 37.1215 25.0559 37.1215C24.7951 37.1215 24.5795 37.1539 24.4132 37.2208C24.3711 37.2424 24.3557 37.2316 24.3659 37.1873C24.3762 37.1431 24.3608 37.0988 24.3187 37.0556V37.2208L24.1616 37.2867L24.099 37.2543C23.9316 37.2316 23.6759 37.2316 23.3299 37.2543C22.9849 37.2759 22.6605 37.3093 22.3576 37.3536C22.0547 37.3979 21.8288 37.4356 21.683 37.4691C21.5362 37.5026 21.5783 37.5188 21.8083 37.5188V37.6181C21.8504 37.5738 21.9387 37.5361 22.0752 37.5026C22.2108 37.4691 22.3104 37.4529 22.373 37.4529C22.4356 37.4529 22.451 37.4637 22.4202 37.4864C22.3884 37.508 22.373 37.5307 22.373 37.5522H22.4983C22.4983 37.508 22.5814 37.481 22.7488 37.4702C22.9161 37.4594 23.0517 37.4313 23.1564 37.3881C23.1564 37.4324 23.1769 37.4432 23.219 37.4205C23.2611 37.3979 23.2919 37.3763 23.3135 37.3547C23.4809 37.3104 23.6534 37.3158 23.831 37.3709C24.0086 37.4259 24.1914 37.4313 24.3803 37.3871L24.5682 37.2877V37.3536C24.5261 37.3979 24.5312 37.4033 24.5836 37.3698C24.636 37.3363 24.6411 37.3644 24.599 37.4518C24.2016 37.4961 23.8043 37.5339 23.4069 37.5674C23.0096 37.6008 22.6328 37.5944 22.2775 37.5512C22.3196 37.5728 22.3299 37.589 22.3093 37.6008C22.2878 37.6116 22.2467 37.6224 22.1841 37.6343C22.1214 37.6451 22.0639 37.6505 22.0116 37.6505H21.9017C21.6923 37.6505 21.5465 37.7002 21.4623 37.7984C21.3781 37.8977 21.2528 37.9463 21.0854 37.9463C21.0854 37.8805 21.0536 37.8254 20.991 37.7811C20.6142 37.9344 20.2065 38.0122 19.7681 38.0122C19.7887 38.0564 19.8102 38.078 19.8307 38.078C19.8513 38.078 19.841 38.1104 19.7989 38.1773C19.7568 38.0014 19.7363 38.0014 19.7363 38.1773C19.6942 38.1773 19.6685 38.1547 19.6583 38.1115C19.647 38.0672 19.6213 38.0456 19.5802 38.0456C19.5587 38.0456 19.5484 38.0672 19.5484 38.1115V38.1773C19.381 38.1773 19.2506 38.1989 19.1562 38.2432C19.0627 38.2875 18.9416 38.2983 18.7958 38.2767C18.7958 38.2324 18.806 38.2162 18.8276 38.227C18.8481 38.2378 18.8594 38.2216 18.8594 38.1773C18.8173 38.1773 18.765 38.2151 18.7023 38.2929C18.6397 38.3695 18.5555 38.3965 18.4518 38.3749L18.6397 38.3091C18.3676 38.3091 18.2424 38.3749 18.2629 38.5066H17.9497C17.9497 38.484 17.9703 38.4732 18.0124 38.4732C18.0545 38.4732 18.075 38.4505 18.075 38.4073C17.9703 38.4073 17.9128 38.4181 17.9025 38.4408C17.8922 38.4624 17.8655 38.4958 17.8245 38.5401C17.7824 38.4958 17.7505 38.485 17.73 38.5077C17.7095 38.5293 17.6776 38.5293 17.6355 38.5077L17.4477 38.607L17.4168 38.6405C17.2074 38.7938 16.9877 38.8057 16.7577 38.6729C16.6529 38.7603 16.5431 38.81 16.4281 38.8208C16.3131 38.8316 16.2443 38.8705 16.2238 38.9363V38.9698H16.1919L16.196 38.9763ZM11.2399 34.688C11.1352 34.688 11.0828 34.7982 11.0828 35.0184H11.1136C11.1557 34.9957 11.1814 34.9471 11.1916 34.8705C11.2019 34.7928 11.2183 34.7334 11.2389 34.6891L11.2399 34.688ZM11.2399 34.688C11.1352 34.688 11.0828 34.7982 11.0828 35.0184H11.1136C11.1557 34.9957 11.1814 34.9471 11.1916 34.8705C11.2019 34.7928 11.2183 34.7334 11.2389 34.6891L11.2399 34.688ZM11.4596 38.2497C11.4175 38.1838 11.3816 38.1676 11.3498 38.2C11.3179 38.2324 11.282 38.2497 11.2399 38.2497C11.2615 38.3814 11.2502 38.5185 11.2081 38.6621C11.166 38.8046 11.1567 38.9536 11.1762 39.1069L11.3015 38.9417C11.3231 38.919 11.3333 38.8759 11.3333 38.81C11.3539 38.7441 11.3641 38.6556 11.3641 38.5466V38.4472C11.4062 38.3371 11.437 38.2713 11.4586 38.2497H11.4596ZM11.4596 38.2497C11.4175 38.1838 11.3816 38.1676 11.3498 38.2C11.3179 38.2324 11.282 38.2497 11.2399 38.2497C11.2615 38.3814 11.2502 38.5185 11.2081 38.6621C11.166 38.8046 11.1567 38.9536 11.1762 39.1069L11.3015 38.9417C11.3231 38.919 11.3333 38.8759 11.3333 38.81C11.3539 38.7441 11.3641 38.6556 11.3641 38.5466V38.4472C11.4062 38.3371 11.437 38.2713 11.4586 38.2497H11.4596ZM11.2717 34.4905C11.3344 34.4678 11.3867 34.3696 11.4288 34.1936L11.4596 34.1601C11.4596 34.0943 11.4699 34.0392 11.4914 33.9949H11.3662V34.0284C11.3662 34.0943 11.3456 34.1601 11.3036 34.226C11.2615 34.2918 11.2307 34.3469 11.2091 34.3911C11.2091 34.4127 11.204 34.4235 11.1937 34.4235C11.1834 34.4235 11.1783 34.4343 11.1783 34.457V34.4905H11.2728H11.2717ZM11.3652 34.0284C11.3652 34.0943 11.3446 34.1601 11.3025 34.226C11.2604 34.2918 11.2296 34.3469 11.2081 34.3911C11.2081 34.4127 11.2029 34.4235 11.1927 34.4235C11.1824 34.4235 11.1773 34.4343 11.1773 34.457V34.4905H11.2717C11.3344 34.4678 11.3867 34.3696 11.4288 34.1936L11.4596 34.1601C11.4596 34.0943 11.4699 34.0392 11.4914 33.9949H11.3662V34.0284H11.3652ZM11.4914 33.4346C11.4699 33.5005 11.4391 33.5825 11.397 33.6818C11.3549 33.7812 11.3549 33.8513 11.397 33.8967C11.3549 33.874 11.4073 33.7866 11.5541 33.6333C11.6167 33.5447 11.6793 33.4573 11.742 33.3698C11.8046 33.2813 11.8467 33.2155 11.8672 33.1723C11.8457 33.1939 11.7892 33.2489 11.6947 33.3375C11.6003 33.4249 11.5633 33.4692 11.5849 33.4692L11.5531 33.5026C11.5736 33.5026 11.5849 33.4918 11.5849 33.4692C11.5633 33.4692 11.5531 33.4638 11.5531 33.453C11.5531 33.4422 11.5315 33.4368 11.4904 33.4368L11.4914 33.4346ZM11.7101 32.8408C11.7522 32.8182 11.7728 32.7966 11.7728 32.775C11.7728 32.7534 11.783 32.7307 11.8046 32.7091C11.8251 32.6649 11.8405 32.6271 11.8518 32.5936C11.8621 32.5601 11.8878 32.5223 11.9299 32.4781C11.8672 32.5008 11.8251 32.5223 11.8046 32.5439C11.7841 32.5655 11.7522 32.599 11.7101 32.6433C11.7101 32.6659 11.6999 32.6875 11.6793 32.7091C11.6578 32.775 11.6578 32.8192 11.6793 32.8408H11.7101ZM11.9299 32.4781C11.8672 32.5008 11.8251 32.5223 11.8046 32.5439C11.7841 32.5655 11.7522 32.599 11.7101 32.6433C11.7101 32.6659 11.6999 32.6875 11.6793 32.7091C11.6578 32.775 11.6578 32.8192 11.6793 32.8408H11.7101C11.7522 32.8182 11.7728 32.7966 11.7728 32.775C11.7728 32.7534 11.783 32.7307 11.8046 32.7091C11.8251 32.6649 11.8405 32.6271 11.8518 32.5936C11.8621 32.5601 11.8878 32.5223 11.9299 32.4781ZM11.6793 32.9736V33.237C11.6578 33.237 11.6999 33.1928 11.8046 33.1053C11.9093 33.0168 11.9617 32.9617 11.9617 32.9402C11.9822 32.9175 11.9617 32.9067 11.8991 32.9067C11.857 32.9067 11.7943 32.9283 11.7112 32.9725H11.6804L11.6793 32.9736ZM11.8672 37.59C11.8251 37.6116 11.7995 37.6343 11.7892 37.6559C11.7779 37.6775 11.7522 37.7109 11.7112 37.7552C11.6691 37.7109 11.6691 37.6732 11.7112 37.6397C11.7533 37.6062 11.8056 37.59 11.8683 37.59H11.8672ZM11.7101 32.9736C11.7101 32.9952 11.742 32.9952 11.8046 32.9736C11.8672 32.951 11.9196 32.9402 11.9617 32.9402C11.9617 32.9175 11.9412 32.9067 11.8991 32.9067C11.8149 32.951 11.7522 32.9725 11.7112 32.9725L11.7101 32.9736ZM12.1188 35.2484C12.1609 35.2484 12.1866 35.2538 12.1968 35.2646C12.2071 35.2754 12.2328 35.2808 12.2749 35.2808H12.3375L12.3057 35.2473C12.2841 35.2246 12.2738 35.203 12.2738 35.1814L12.3057 35.148C12.3057 35.1253 12.3159 35.1145 12.3375 35.1145C12.3375 35.0918 12.3478 35.0702 12.3693 35.0486H12.2749L12.1804 35.1803L12.1178 35.2462L12.1188 35.2484ZM12.1188 35.2484C12.1609 35.2484 12.1866 35.2538 12.1968 35.2646C12.2071 35.2754 12.2328 35.2808 12.2749 35.2808H12.3375L12.3057 35.2473C12.2841 35.2246 12.2738 35.203 12.2738 35.1814L12.3057 35.148C12.3057 35.1253 12.3159 35.1145 12.3375 35.1145C12.3375 35.0918 12.3478 35.0702 12.3693 35.0486H12.2749L12.1804 35.1803L12.1178 35.2462L12.1188 35.2484ZM12.4638 36.5687C12.4217 36.6346 12.396 36.7166 12.3858 36.816C12.3755 36.9153 12.3077 36.9855 12.1814 37.0308C12.1814 36.9865 12.2133 36.9207 12.2759 36.8332C12.3385 36.7447 12.3488 36.6896 12.3077 36.668C12.3077 36.6238 12.3231 36.6022 12.3549 36.6022C12.3868 36.6022 12.4227 36.5914 12.4648 36.5698L12.4638 36.5687ZM12.4638 36.3377C12.5059 36.3593 12.5213 36.3927 12.511 36.437C12.4997 36.4813 12.4535 36.4813 12.3704 36.437C12.3704 36.4143 12.3858 36.4035 12.4176 36.4035C12.4494 36.4035 12.4648 36.3809 12.4648 36.3377H12.4638ZM12.589 34.3253L12.6517 34.2918C12.6301 34.2918 12.6096 34.281 12.589 34.2584H12.4946V34.3242H12.589V34.3253ZM12.6517 34.2929C12.6301 34.2929 12.6096 34.2821 12.589 34.2594H12.4946V34.3253H12.589L12.6517 34.2918V34.2929ZM12.5264 35.9749C12.547 35.9965 12.5685 36.03 12.589 36.0743C12.6096 36.1185 12.589 36.1509 12.5264 36.1736C12.547 36.1293 12.547 36.0915 12.5264 36.0581C12.5049 36.0257 12.5049 35.9976 12.5264 35.976V35.9749ZM12.5572 33.9625C12.5572 33.9841 12.5675 34.0068 12.589 34.0284V34.0943C12.5675 34.0943 12.5572 34.1051 12.5572 34.1266L12.5254 34.1601V34.226H12.6199C12.6619 34.1817 12.6825 34.1374 12.6825 34.0943C12.6825 34.0511 12.703 34.0057 12.7451 33.9625H12.5572ZM12.5572 34.2271H12.6199C12.6619 34.1828 12.6825 34.1385 12.6825 34.0953C12.6825 34.0522 12.703 34.0068 12.7451 33.9636H12.5572C12.5572 33.9852 12.5675 34.0079 12.589 34.0295V34.0953C12.5675 34.0953 12.5572 34.1061 12.5572 34.1277L12.5254 34.1612V34.2271H12.5572ZM12.5572 35.678C12.5572 35.6338 12.589 35.6338 12.6517 35.678C12.7143 35.7223 12.7348 35.6996 12.7143 35.6122C12.7564 35.678 12.7451 35.7277 12.6825 35.7601C12.6199 35.7925 12.5675 35.8313 12.5254 35.8756C12.5254 35.8313 12.5511 35.7979 12.6034 35.7763C12.6558 35.7536 12.6394 35.7212 12.5562 35.677L12.5572 35.678ZM12.9022 34.6557C12.9443 34.633 12.9535 34.6611 12.933 34.7377C12.9115 34.8144 12.933 34.8198 12.9956 34.7539C12.9741 34.7982 12.9535 34.836 12.933 34.8694C12.9115 34.9029 12.8806 34.9407 12.8386 34.9849C12.9012 35.0065 12.9012 35.0454 12.8386 35.1005C12.7759 35.1555 12.8067 35.1825 12.933 35.1825C12.933 35.2268 12.896 35.2538 12.8231 35.2646C12.7492 35.2754 12.703 35.3023 12.6825 35.3466C12.6199 35.3023 12.6147 35.2646 12.6671 35.2311C12.7194 35.1987 12.7246 35.1706 12.6825 35.149C12.7246 35.1264 12.7502 35.1048 12.7605 35.0832C12.7708 35.0605 12.7965 35.0281 12.8386 34.9839C12.7965 34.9396 12.7646 34.9234 12.7441 34.9342C12.7236 34.945 12.6917 34.9396 12.6507 34.918C12.6928 34.8737 12.7441 34.8403 12.8077 34.8187C12.8704 34.796 12.9022 34.7409 12.9022 34.6535V34.6557ZM12.7769 29.9388H12.8088V29.9054C12.8509 29.8179 12.8714 29.7521 12.8714 29.7078V29.6743L12.9032 29.6409C12.9032 29.6193 12.9135 29.5966 12.934 29.575C12.9125 29.575 12.8919 29.5642 12.8714 29.5415H12.8396C12.8396 29.5858 12.8293 29.6193 12.8077 29.6409C12.7862 29.7067 12.7605 29.7618 12.7297 29.806C12.6979 29.8503 12.6928 29.8946 12.7143 29.9378H12.7769V29.9388ZM12.8396 29.5437C12.8396 29.588 12.8293 29.6214 12.8077 29.643C12.7862 29.7089 12.7605 29.7639 12.7297 29.8082C12.6979 29.8525 12.6928 29.8967 12.7143 29.9399H12.8088V29.9065C12.8509 29.819 12.8714 29.7531 12.8714 29.7089V29.6754L12.9032 29.6419C12.9032 29.6204 12.9135 29.5977 12.934 29.5761C12.9125 29.5761 12.8919 29.5653 12.8714 29.5426H12.8396V29.5437ZM12.9022 29.4444C12.9227 29.4444 12.9535 29.4228 12.9967 29.3785C12.9967 29.3569 13.0018 29.3451 13.0121 29.3451C13.0223 29.3451 13.0275 29.3343 13.0275 29.3116C13.048 29.3116 13.0593 29.3008 13.0593 29.2792C13.1219 29.2133 13.1219 29.1799 13.0593 29.1799V29.1475C12.9967 29.2133 12.9751 29.2468 12.9967 29.2468C12.9751 29.2695 12.9546 29.2803 12.934 29.2803L12.8714 29.3461V29.4455H12.9032L12.9022 29.4444ZM13.0593 29.1475C12.9967 29.2133 12.9751 29.2468 12.9967 29.2468C12.9751 29.2695 12.9546 29.2803 12.934 29.2803L12.8714 29.3461V29.4455H12.9032C12.9238 29.4455 12.9546 29.4239 12.9977 29.3796C12.9977 29.358 13.0028 29.3461 13.0131 29.3461C13.0234 29.3461 13.0285 29.3353 13.0285 29.3127C13.049 29.3127 13.0603 29.3019 13.0603 29.2803C13.123 29.2144 13.123 29.181 13.0603 29.181V29.1486L13.0593 29.1475ZM13.2472 34.1601C13.3098 34.2476 13.278 34.2918 13.1527 34.2918C13.1527 34.2033 13.1846 34.1601 13.2472 34.1601ZM13.279 28.5202L13.3109 28.4868L13.3427 28.4544V28.4209H13.2801V28.4544C13.238 28.4544 13.2174 28.4652 13.2174 28.4868V28.5202H13.2801H13.279ZM13.279 28.5202L13.3109 28.4868L13.3427 28.4544V28.4209H13.2801V28.4544C13.238 28.4544 13.2174 28.4652 13.2174 28.4868V28.5202H13.2801H13.279ZM13.3098 28.3885C13.3519 28.3885 13.3827 28.3777 13.4043 28.3551C13.4259 28.3324 13.4361 28.3108 13.4361 28.2892V28.1899L13.4043 28.1564C13.4043 28.1791 13.393 28.2007 13.3725 28.2223L13.3406 28.2557C13.3406 28.2784 13.3355 28.2946 13.3252 28.3054C13.315 28.3162 13.3098 28.3335 13.3098 28.3551V28.3885ZM13.3098 28.3885C13.3519 28.3885 13.3827 28.3777 13.4043 28.3551C13.4259 28.3324 13.4361 28.3108 13.4361 28.2892V28.1899L13.4043 28.1564C13.4043 28.1791 13.393 28.2007 13.3725 28.2223L13.3406 28.2557C13.3406 28.2784 13.3355 28.2946 13.3252 28.3054C13.315 28.3162 13.3098 28.3335 13.3098 28.3551V28.3885ZM13.5614 31.8854V31.9188C13.5409 31.9631 13.5244 32.0009 13.5142 32.0344C13.5039 32.0668 13.4772 32.1056 13.4361 32.1499V32.1833H13.4043L13.624 32.1175C13.6661 32.0732 13.6867 32.0408 13.6867 32.0182L13.7175 31.9847V31.7871L13.5604 31.8865L13.5614 31.8854ZM13.4361 32.1823L13.624 32.1164C13.6661 32.0722 13.6867 32.0398 13.6867 32.0171L13.7175 31.9836V31.7861L13.5604 31.8854V31.9188C13.5398 31.9631 13.5234 32.0009 13.5131 32.0344C13.5029 32.0668 13.4762 32.1056 13.4351 32.1499V32.1833L13.4361 32.1823ZM13.8119 27.432V27.3985C13.8119 27.3769 13.817 27.3607 13.8273 27.3489C13.8376 27.3381 13.8427 27.3219 13.8427 27.2992V27.2657L13.8745 27.1999V27.1664C13.7904 27.1891 13.7493 27.2441 13.7493 27.3316V27.4309C13.7493 27.4536 13.7595 27.4644 13.7811 27.4644H13.8119V27.4309V27.432ZM13.8119 27.432V27.3985C13.8119 27.3769 13.817 27.3607 13.8273 27.3489C13.8376 27.3381 13.8427 27.3219 13.8427 27.2992V27.2657L13.8745 27.1999V27.1664C13.7904 27.1891 13.7493 27.2441 13.7493 27.3316V27.4309C13.7493 27.4536 13.7595 27.4644 13.7811 27.4644H13.8119V27.4309V27.432ZM13.9064 32.2481C13.9269 32.2924 13.9269 32.369 13.9064 32.4792C13.8848 32.5893 13.8437 32.6228 13.7811 32.5785C13.8016 32.5342 13.817 32.4792 13.8283 32.4133C13.8386 32.3475 13.8643 32.2924 13.9064 32.2481ZM14.3766 30.4333H14.2822L14.2195 30.5326L14.1569 30.5985V30.632H14.2822L14.313 30.5985L14.4074 30.4668V30.4333H14.3756H14.3766ZM14.3766 30.4333H14.2822L14.2195 30.5326L14.1569 30.5985V30.632H14.2822L14.313 30.5985L14.4074 30.4668V30.4333H14.3756H14.3766ZM14.5019 30.2357C14.4803 30.2584 14.4598 30.2692 14.4393 30.2692L14.4074 30.3016H14.5019L14.5645 30.2692V30.2033H14.5019V30.2368V30.2357ZM14.5019 30.3016L14.5645 30.2692V30.2033H14.5019V30.2368C14.4803 30.2595 14.4598 30.2703 14.4393 30.2703L14.4074 30.3027H14.5019V30.3016ZM15.3182 28.0916H15.3808L15.4126 28.0592V28.0258H15.35C15.3284 28.0258 15.3182 28.0366 15.3182 28.0592V28.0916ZM15.349 28.0258C15.3274 28.0258 15.3171 28.0366 15.3171 28.0592V28.0916H15.3798L15.4116 28.0592V28.0258H15.349ZM15.4434 39.3055H15.349L15.3798 39.2397H15.4116C15.4321 39.2613 15.4434 39.2839 15.4434 39.3055ZM15.9455 27.2679C15.9455 27.2906 15.9352 27.3014 15.9137 27.3014C15.9342 27.3014 15.9455 27.2906 15.9455 27.2679ZM16.886 38.8111C16.8439 38.8327 16.771 38.8445 16.6663 38.8445C16.7084 38.8003 16.7813 38.7895 16.886 38.8111ZM17.4507 38.3825H17.4199C17.3984 38.3825 17.3881 38.3933 17.3881 38.4159V38.4494H17.4199C17.4405 38.4494 17.4559 38.4548 17.4672 38.4656C17.4774 38.4764 17.4928 38.4818 17.5144 38.4818H17.5462V38.3825H17.4518H17.4507ZM17.4507 38.3825H17.4199C17.3984 38.3825 17.3881 38.3933 17.3881 38.4159V38.4494H17.4199C17.4405 38.4494 17.4559 38.4548 17.4672 38.4656C17.4774 38.4764 17.4928 38.4818 17.5144 38.4818H17.5462V38.3825H17.4518H17.4507ZM17.7639 38.3825H17.8892L17.9518 38.3166H18.2023C18.2229 38.3166 18.2331 38.322 18.2331 38.3328C18.2331 38.3436 18.2434 38.349 18.2649 38.349L18.3902 38.2497C18.4528 38.2497 18.5052 38.2389 18.5473 38.2173L18.5791 38.1838H18.1397C18.1181 38.1838 18.0976 38.1946 18.0771 38.2173C18.0771 38.2389 18.0719 38.2497 18.0617 38.2497C18.0504 38.2497 18.0462 38.2605 18.0462 38.2831L17.9836 38.3166H17.9528C17.9107 38.2939 17.8902 38.2616 17.8902 38.2173L17.8276 38.2831C17.806 38.3047 17.7855 38.3166 17.7649 38.3166H17.7331V38.3825H17.7649H17.7639ZM17.7639 38.3825H17.8892L17.9518 38.3166H18.2023C18.2229 38.3166 18.2331 38.322 18.2331 38.3328C18.2331 38.3436 18.2434 38.349 18.2649 38.349L18.3902 38.2497C18.4528 38.2497 18.5052 38.2389 18.5473 38.2173L18.5791 38.1838H18.1397C18.1181 38.1838 18.0976 38.1946 18.0771 38.2173C18.0771 38.2389 18.0719 38.2497 18.0617 38.2497C18.0504 38.2497 18.0462 38.2605 18.0462 38.2831L17.9836 38.3166H17.9528C17.9107 38.2939 17.8902 38.2616 17.8902 38.2173L17.8276 38.2831C17.806 38.3047 17.7855 38.3166 17.7649 38.3166H17.7331V38.3825H17.7649H17.7639ZM20.9951 37.5576C20.953 37.5576 20.9109 37.5792 20.8698 37.6235H20.839C20.7969 37.6235 20.7764 37.6343 20.7764 37.657L20.8082 37.6235V37.59L20.84 37.5566L20.7774 37.6224H20.6368C20.5844 37.6224 20.5372 37.6332 20.4961 37.6559C20.4335 37.6559 20.3914 37.6667 20.3708 37.6894H20.1203L19.9632 37.7552C19.9416 37.7552 19.8893 37.7768 19.8061 37.8211H19.7753C19.7332 37.8427 19.6973 37.8653 19.6654 37.8869C19.6336 37.9085 19.5977 37.9204 19.5556 37.9204C19.535 37.9204 19.5135 37.9258 19.4929 37.9366C19.4714 37.9474 19.4509 37.9528 19.4303 37.9528H19.1798C19.1172 37.9528 19.0751 37.9636 19.0545 37.9852H19.0227C18.9601 37.9852 18.9077 38.0068 18.8656 38.051L18.7403 38.1169L18.8656 38.0845L19.2424 38.0186H19.2742C19.2948 37.996 19.3266 37.9852 19.3687 37.9852H19.5566V37.9528H19.7445C19.8492 37.9085 19.9488 37.8707 20.0423 37.8373C20.1367 37.8049 20.225 37.766 20.3092 37.7217H20.4037C20.5084 37.7217 20.5916 37.711 20.6542 37.6894H20.686C20.7281 37.6894 20.7487 37.6775 20.7487 37.6559V37.7217C20.8945 37.7217 21.0413 37.7056 21.1881 37.6721C21.3339 37.6386 21.4489 37.6062 21.5331 37.5728C21.6163 37.5404 21.6317 37.5231 21.5803 37.5231C21.529 37.5231 21.3657 37.5339 21.0947 37.5555H21.0002L20.9951 37.5576ZM20.6819 37.6894C20.724 37.6894 20.7446 37.6775 20.7446 37.6559H20.7754L20.8072 37.6224V37.589C20.8072 37.6105 20.7959 37.6224 20.7754 37.6224H20.6347C20.5823 37.6224 20.5351 37.6332 20.494 37.6559C20.4314 37.6559 20.3893 37.6667 20.3688 37.6894H20.3061H20.1182L19.9611 37.7552C19.9396 37.7552 19.8872 37.7768 19.8041 37.8211H19.7733C19.7312 37.8427 19.6952 37.8653 19.6634 37.8869C19.6316 37.9085 19.5956 37.9204 19.5535 37.9204C19.533 37.9204 19.5114 37.9258 19.4909 37.9366C19.4693 37.9474 19.4488 37.9528 19.4283 37.9528H19.1777C19.1151 37.9528 19.073 37.9636 19.0525 37.9852H19.0206C18.958 37.9852 18.9056 38.0068 18.8635 38.051L18.7691 38.1169L18.8635 38.0845L19.2404 38.0186H19.2722C19.2927 37.996 19.3246 37.9852 19.3667 37.9852H19.5546V37.9528H19.7424C19.8472 37.9085 19.9406 37.8707 20.0248 37.8373C20.108 37.8049 20.2024 37.766 20.3072 37.7217H20.4016C20.5064 37.7217 20.5895 37.711 20.6522 37.6894H20.684H20.6819ZM21.0896 37.5576H20.9951C20.953 37.5576 20.9109 37.5792 20.8698 37.6235H20.839C20.7969 37.6235 20.7651 37.657 20.7446 37.7228L21.0896 37.5576ZM20.9633 37.4918H20.9006V37.5253H20.9951C21.0372 37.5253 21.068 37.5134 21.0896 37.4918H20.9643H20.9633ZM20.9633 37.4918H20.9006V37.5253H20.9951C21.0372 37.5253 21.068 37.5134 21.0896 37.4918H20.9643H20.9633ZM22.375 37.2608H22.4069L22.4695 37.2273H22.375C22.3329 37.2273 22.3011 37.2381 22.2806 37.2608H22.375ZM22.375 37.2608H22.4069L22.4695 37.2273H22.375C22.3329 37.2273 22.3011 37.2381 22.2806 37.2608H22.375ZM22.5948 37.1949L22.6574 37.2284H22.6882L22.7508 37.1949C22.7508 37.1722 22.7293 37.1614 22.6882 37.1614C22.6882 37.1388 22.6779 37.129 22.6574 37.129C22.6153 37.129 22.5835 37.1398 22.5629 37.1614C22.5414 37.183 22.5516 37.2057 22.5948 37.2273V37.1938V37.1949ZM22.5948 37.1949L22.6574 37.2284H22.6882L22.7508 37.1949C22.7508 37.1722 22.7293 37.1614 22.6882 37.1614C22.6882 37.1388 22.6779 37.129 22.6574 37.129C22.6153 37.129 22.5835 37.1398 22.5629 37.1614C22.5414 37.183 22.5516 37.2057 22.5948 37.2273V37.1938V37.1949ZM25.6997 37.2273C25.6997 37.2931 25.6627 37.3201 25.5898 37.3093C25.5159 37.2985 25.4492 37.2931 25.3855 37.2931C25.406 37.2489 25.4584 37.2381 25.5426 37.2608C25.6258 37.2823 25.6781 37.2716 25.6997 37.2273ZM26.2018 36.7328C26.1802 36.8429 26.212 36.9088 26.2962 36.9304C26.3794 36.952 26.4739 36.9855 26.5786 37.0297C26.4944 36.9196 26.3691 36.8203 26.2018 36.7328Z" fill="white"/>
<path d="M22.438 30.2035C22.4801 30.1819 22.5058 30.1376 22.5161 30.0718C22.5263 30.0059 22.5212 29.9509 22.5007 29.9066C22.5428 29.7965 22.5684 29.6874 22.5787 29.5773C22.589 29.4672 22.6465 29.3906 22.7512 29.3463C22.8138 29.2804 22.8292 29.2254 22.7984 29.1811C22.7666 29.1368 22.7933 29.1045 22.8765 29.0818C22.9186 28.9943 22.9545 28.9058 22.9863 28.8184C23.0182 28.7309 23.0644 28.6532 23.127 28.5873C23.2944 28.1695 23.5079 27.7247 23.7697 27.2518C24.0305 26.779 24.2667 26.3234 24.4751 25.8829C24.5799 25.7512 24.6733 25.6195 24.7575 25.4867C24.8407 25.355 24.893 25.2125 24.9146 25.0581H24.9772C25.0193 24.8389 25.16 24.7558 25.4002 24.8108C25.6405 24.8659 25.8756 24.9372 26.1056 25.0257C26.2103 25.07 26.273 25.1304 26.2935 25.2071C26.314 25.2848 26.3253 25.3668 26.3253 25.4543C26.2832 25.477 26.2678 25.5148 26.2781 25.5698C26.2884 25.6249 26.2832 25.6745 26.2627 25.7177C26.1159 25.9596 26.0122 26.2122 25.9485 26.4767C25.8859 26.7401 25.7812 26.9938 25.6343 27.2357C25.6138 27.2799 25.5871 27.3134 25.5563 27.335C25.5245 27.3576 25.4988 27.39 25.4783 27.4343C25.4362 27.5228 25.4002 27.6491 25.3684 27.8132C25.3366 27.9784 25.2688 28.149 25.1641 28.325C24.9967 28.6769 24.8499 29.0062 24.7246 29.3139C24.5994 29.6227 24.4741 29.9627 24.3478 30.3363C24.2852 30.6882 24.2174 30.9851 24.1435 31.227C24.0696 31.4688 24.1168 31.7549 24.2842 32.0842C24.7647 31.9525 25.1887 31.7927 25.5542 31.6059C25.9198 31.4191 26.3017 31.2162 26.6991 30.9959L27.5462 30.3363L27.7967 30.1711L28.8008 29.3798L29.6479 28.6866C29.7311 28.6208 29.8358 28.5495 29.9621 28.4718C30.0874 28.3952 30.1921 28.3239 30.2753 28.257C30.4837 28.081 30.6521 27.9439 30.7773 27.8446C30.9026 27.7452 31.07 27.6189 31.2794 27.4656C31.3215 27.3997 31.3677 27.3501 31.4201 27.3177C31.4714 27.2842 31.5402 27.2464 31.6244 27.2022L31.8441 27.037C31.8862 26.9269 31.9848 26.8502 32.1419 26.806C32.299 26.7617 32.3976 26.6635 32.4397 26.5091C32.5228 26.5317 32.5649 26.5091 32.5649 26.4432C32.6697 26.4875 32.7056 26.5425 32.6748 26.6084C32.643 26.6743 32.6697 26.7293 32.7528 26.7736C32.7107 26.7962 32.6748 26.8513 32.643 26.9388C32.6111 27.0273 32.5957 27.0823 32.5957 27.1039C32.6789 27.1482 32.7313 27.0985 32.7528 26.956C32.7734 26.8135 32.8155 26.7531 32.8781 26.7747C32.8781 26.7973 32.8668 26.8567 32.8463 26.956C32.8247 27.0554 32.8042 27.1039 32.7836 27.1039C32.8884 27.1482 32.9089 27.2087 32.8463 27.2853C32.7836 27.363 32.7723 27.4332 32.8144 27.5002C32.7723 27.5444 32.7405 27.5714 32.72 27.5822C32.6994 27.5941 32.6779 27.6319 32.6573 27.6977C32.6152 27.6977 32.6101 27.6761 32.6419 27.6319C32.6738 27.5876 32.6471 27.566 32.5639 27.566C32.5423 27.6103 32.5218 27.6481 32.5013 27.6815C32.4797 27.715 32.4592 27.7755 32.4386 27.8629C32.3965 27.8629 32.3811 27.8467 32.3914 27.8132C32.4017 27.7809 32.4068 27.7528 32.4068 27.7312C32.3021 27.7312 32.2497 27.7647 32.2497 27.8305C32.145 27.8748 32.0824 27.9406 32.0618 28.0281C32.0403 28.1166 31.9992 28.2041 31.9366 28.2915C31.8739 28.2915 31.8524 28.2807 31.8739 28.258C31.8955 28.2354 31.8739 28.2246 31.8113 28.2246C31.8318 28.2472 31.8164 28.3066 31.7641 28.4059C31.7117 28.5053 31.6542 28.5992 31.5916 28.6866C31.5289 28.7752 31.4817 28.8464 31.4509 28.9015C31.4201 28.9565 31.4242 28.9404 31.4663 28.8518C31.4242 28.8302 31.3297 28.8745 31.1839 28.9835C31.0371 29.0937 30.9437 29.1703 30.9016 29.2146L30.5258 29.6108C30.4632 29.6551 30.3533 29.7425 30.1962 29.8742C30.0391 30.0059 29.9395 30.0945 29.8984 30.1376L29.8358 30.1053C29.8358 30.1279 29.8307 30.1441 29.8204 30.1549C29.8091 30.1668 29.805 30.1938 29.805 30.237C29.7834 30.1927 29.7526 30.1873 29.7105 30.2208C29.6685 30.2542 29.6685 30.292 29.7105 30.3363H29.6161C29.6161 30.359 29.574 30.4356 29.4908 30.5673C29.4066 30.699 29.2916 30.8092 29.1458 30.8977V30.766C29.1037 30.7444 29.0832 30.7498 29.0832 30.7822C29.0832 30.8146 29.0616 30.8426 29.0206 30.8642H29.115C29.0935 30.9527 29.0627 31.0013 29.0206 31.0121C28.9785 31.024 28.9261 31.0402 28.8635 31.0618C28.8419 31.0618 28.8481 31.051 28.8789 31.0283C28.9097 31.0067 28.9045 30.9948 28.8635 30.9948C28.8214 31.0391 28.7741 31.0942 28.7228 31.16C28.6704 31.2259 28.6129 31.2809 28.5503 31.3252C28.5082 31.2594 28.4723 31.2486 28.4405 31.2917C28.4086 31.336 28.3727 31.3695 28.3306 31.3911L28.1735 31.4569C28.1109 31.5012 28.0523 31.5455 28.001 31.5886C27.9486 31.6329 27.8696 31.6664 27.7659 31.688C27.7453 31.7322 27.734 31.7765 27.734 31.8197C27.7135 31.8197 27.7032 31.8089 27.7032 31.7862C27.7032 31.7635 27.6817 31.7646 27.6406 31.7862C27.5985 31.8305 27.5462 31.8801 27.4835 31.9341C27.4209 31.9892 27.3367 32.028 27.233 32.0496C27.1488 32.204 27.0287 32.3131 26.8726 32.3789C26.7155 32.4448 26.5533 32.5106 26.3869 32.5765C26.1364 32.7525 25.8849 32.8734 25.6343 32.9392C25.4043 32.9835 25.1528 33.0321 24.8817 33.0871C24.6096 33.1422 24.317 33.1476 24.0038 33.1033C23.7944 33.0591 23.5911 33.0256 23.3919 33.004C23.1927 32.9813 23.0418 32.9381 22.937 32.8723C22.7902 32.7622 22.6701 32.6305 22.5767 32.4761C22.4822 32.3228 22.4042 32.1911 22.3415 32.0799C22.2789 32.0583 22.2471 32.0248 22.2471 31.9805C22.2471 31.9363 22.2163 31.8812 22.1536 31.8154C22.1536 31.7938 22.1588 31.7819 22.169 31.7819C22.1793 31.7819 22.1844 31.7603 22.1844 31.716C22.1423 31.7603 22.1115 31.7819 22.09 31.7819C22.0479 31.6718 22.0643 31.5843 22.1372 31.5185C22.2111 31.4526 22.2152 31.3652 22.1526 31.255C22.1105 31.2993 22.09 31.3867 22.09 31.5185C22.0479 31.4742 22.0273 31.4148 22.0273 31.3371C22.0273 31.2594 22.0694 31.2216 22.1526 31.2216C22.1526 31.0899 22.1947 30.9355 22.2779 30.7595C22.2358 30.7595 22.205 30.7703 22.1834 30.793C22.205 30.6828 22.246 30.5954 22.3087 30.5295C22.3713 30.4637 22.4031 30.3762 22.4031 30.2661C22.361 30.2661 22.3456 30.2888 22.3559 30.332C22.3672 30.3762 22.361 30.3978 22.3405 30.3978C22.2984 30.2877 22.3405 30.1452 22.4658 29.9692C22.4873 29.9692 22.4966 29.9476 22.4966 29.9034C22.4966 29.9476 22.476 29.9973 22.4339 30.0513C22.3918 30.1063 22.3918 30.156 22.4339 30.1992L22.438 30.2035ZM27.6447 22.6505C27.6026 22.6732 27.5924 22.6894 27.6129 22.7002C27.6334 22.7121 27.6232 22.7391 27.5811 22.7823C27.4763 22.8708 27.3973 22.9798 27.3459 23.1126C27.2936 23.2443 27.194 23.2994 27.0482 23.2778C26.9434 23.3221 26.8603 23.3987 26.7976 23.5088C26.6929 23.5088 26.6303 23.498 26.6098 23.4754C26.5882 23.4538 26.5574 23.4203 26.5153 23.376C26.4106 23.376 26.3479 23.4095 26.3274 23.4754C26.1395 23.4095 25.9875 23.3437 25.8725 23.2778C25.7575 23.2119 25.6261 23.1461 25.4803 23.0802C25.4803 22.8827 25.506 22.6905 25.5584 22.5026C25.6107 22.3159 25.7627 22.2446 26.0132 22.2878C26.0553 22.2435 26.0861 22.2219 26.1077 22.2219C26.1292 22.2219 26.1498 22.2111 26.1703 22.1885C26.4208 22.2111 26.6406 22.2662 26.8295 22.3537C27.0174 22.4422 27.2474 22.4972 27.5195 22.5188C27.4774 22.6074 27.5195 22.6505 27.6447 22.6505ZM28.5236 31.1266C28.5657 31.1266 28.6068 31.1104 28.6489 31.0769C28.691 31.0434 28.691 31.0056 28.6489 30.9614L28.5236 31.1266ZM31.8791 28.0918C31.7949 28.1145 31.7322 28.1576 31.6912 28.2235C31.6491 28.2894 31.6593 28.3552 31.723 28.4211C31.723 28.3552 31.7548 28.2894 31.8175 28.2235C31.8595 28.1792 31.8801 28.136 31.8801 28.0918H31.8791ZM32.1932 27.9277C32.1727 27.9061 32.183 27.8942 32.2251 27.8942L32.1932 27.9277Z" fill="white"/>
<path d="M40.1909 23.376C40.1693 23.4418 40.1693 23.4807 40.1909 23.4915C40.2114 23.5034 40.2329 23.5034 40.2535 23.4915C40.274 23.4807 40.2894 23.4753 40.3007 23.4753C40.311 23.4753 40.2956 23.498 40.2535 23.5411C40.2956 23.5854 40.2894 23.607 40.2381 23.607C40.1867 23.607 40.1806 23.607 40.2227 23.607C40.2432 23.6955 40.311 23.7776 40.427 23.8542C40.542 23.932 40.5471 23.9913 40.4424 24.0356C40.3798 24.1457 40.311 24.2332 40.2381 24.299C40.1642 24.3649 40.0974 24.4307 40.0338 24.4966C39.9711 24.651 39.8818 24.7827 39.7668 24.8928C39.6518 25.0029 39.5419 25.113 39.4372 25.2221C39.4157 25.2221 39.4064 25.234 39.4064 25.2556C39.4064 25.2771 39.3951 25.289 39.3746 25.289C39.2904 25.465 39.1908 25.6075 39.0768 25.7176C38.9618 25.8278 38.8725 25.9703 38.8099 26.1462C38.7051 26.1905 38.6374 26.2402 38.6055 26.2941C38.5737 26.3492 38.5059 26.3881 38.4012 26.4097C37.8991 27.0034 37.3765 27.6415 36.8334 28.3227C36.2892 29.004 35.7039 29.873 35.0766 30.9278C34.9719 30.9937 34.8836 31.0876 34.8096 31.2085C34.7357 31.3294 34.6577 31.4676 34.5745 31.6209C34.5745 31.6652 34.5642 31.6814 34.5427 31.6706C34.5221 31.6598 34.5006 31.6652 34.48 31.6868C34.4379 31.7526 34.402 31.8239 34.3702 31.9016C34.3384 31.9794 34.2921 32.0387 34.2295 32.083C34.1248 32.2374 34.0416 32.3691 33.979 32.4792C33.9164 32.5893 33.8322 32.7103 33.7285 32.842C33.6443 32.9521 33.5765 33.0341 33.5241 33.0892C33.4718 33.1443 33.4143 33.1928 33.3516 33.2371C33.2264 33.3472 33.0847 33.4023 32.9286 33.4023C32.7725 33.4023 32.6042 33.3742 32.4265 33.3202C32.2489 33.2652 32.0764 33.1939 31.909 33.1054C31.7417 33.0169 31.5959 32.9402 31.4696 32.8744C31.2817 32.544 31.1872 32.1985 31.1872 31.8358V30.6655C31.1872 30.6212 31.1821 30.5662 31.1718 30.5003C31.1605 30.4344 31.1667 30.3578 31.1872 30.2693C31.1657 30.0933 31.1605 29.9281 31.1718 29.7748C31.1821 29.6215 31.1975 29.4671 31.2191 29.3127C31.2191 29.1594 31.2345 28.9284 31.2663 28.6207C31.2981 28.313 31.3341 27.9827 31.3762 27.6318C31.4183 27.2798 31.4645 26.9344 31.5168 26.5932C31.5692 26.2531 31.6267 25.9832 31.6893 25.7856C31.7725 25.5438 31.8095 25.3851 31.7992 25.3074C31.7889 25.2307 31.7622 25.1368 31.7212 25.0267C31.7417 25.0494 31.7735 25.0386 31.8156 24.9932C31.8577 24.9489 31.909 24.9058 31.9727 24.8615C32.098 24.9274 32.2448 24.9662 32.4122 24.977C32.5795 24.9889 32.7356 25.0105 32.8824 25.0429C33.0282 25.0763 33.1596 25.1249 33.2746 25.1908C33.3896 25.2566 33.4471 25.3776 33.4471 25.5535C33.4471 25.5978 33.4256 25.6852 33.3845 25.817C33.3629 25.8828 33.3424 25.9379 33.3219 25.9821L33.1648 26.807C33.1648 26.9171 33.1381 27.0931 33.0867 27.3349C33.0344 27.5767 32.9871 27.8412 32.9461 28.1262C32.904 28.4123 32.8567 28.6758 32.8054 28.9176C32.753 29.1594 32.7274 29.3246 32.7274 29.4121C32.7068 29.8525 32.675 30.2855 32.6329 30.7151C32.5908 31.1437 32.5908 31.568 32.6329 31.9848C33.0097 31.5454 33.3486 31.0887 33.6525 30.6158C33.9554 30.1429 34.2644 29.6981 34.5776 29.2803C34.9328 28.7967 35.1834 28.4123 35.3302 28.1262C35.476 27.8412 35.6957 27.5659 35.9894 27.3014C36.0315 27.2356 36.0838 27.1751 36.1465 27.12C36.2091 27.065 36.2615 27.0045 36.3036 26.9387C36.3662 26.8728 36.4186 26.8016 36.4607 26.7238C36.5027 26.6472 36.5654 26.5867 36.6485 26.5425C36.8159 26.2348 37.0141 25.9767 37.2451 25.7673C37.4751 25.5589 37.6732 25.3009 37.8416 24.9921C37.9248 24.9047 38.0141 24.8108 38.1086 24.7114C38.2031 24.6121 38.2811 24.4966 38.3437 24.3649C38.4269 24.299 38.4947 24.217 38.548 24.1176C38.6004 24.0183 38.6784 23.9028 38.7832 23.7711C38.8879 23.7495 38.9762 23.6944 39.0501 23.6059C39.123 23.5185 39.2113 23.4407 39.3171 23.3749C39.3592 23.3749 39.4002 23.3695 39.4423 23.3587C39.4844 23.3479 39.505 23.309 39.505 23.2432C39.5881 23.2874 39.6405 23.3209 39.6621 23.3425C39.6826 23.3652 39.7134 23.376 39.7555 23.376C39.8602 23.3317 39.9229 23.3101 39.9434 23.3101C39.9639 23.3101 40.0481 23.3328 40.1939 23.376H40.1909Z" fill="white"/>
<path d="M39.2818 30.2035C39.3239 30.1819 39.3496 30.1376 39.3598 30.0718C39.3701 30.0059 39.365 29.9509 39.3444 29.9066C39.3865 29.7965 39.4122 29.6874 39.4225 29.5773C39.4327 29.4672 39.4902 29.3906 39.595 29.3463C39.6576 29.2804 39.673 29.2254 39.6422 29.1811C39.6104 29.1368 39.6371 29.1045 39.7202 29.0818C39.7623 28.9943 39.7983 28.9058 39.8301 28.8184C39.8619 28.7309 39.9081 28.6532 39.9708 28.5873C40.1381 28.1695 40.3517 27.7247 40.6135 27.2518C40.8743 26.779 41.1104 26.3234 41.3189 25.8829C41.4236 25.7512 41.517 25.6195 41.6012 25.4867C41.6844 25.355 41.7368 25.2125 41.7583 25.0581H41.821C41.8631 24.8389 42.0037 24.7558 42.244 24.8108C42.4842 24.8659 42.7194 24.9372 42.9494 25.0257C43.0541 25.07 43.1167 25.1304 43.1373 25.2071C43.1578 25.2848 43.1691 25.3668 43.1691 25.4543C43.127 25.477 43.1116 25.5148 43.1219 25.5698C43.1321 25.6249 43.127 25.6745 43.1065 25.7177C42.9596 25.9596 42.8559 26.2122 42.7923 26.4767C42.7296 26.7401 42.6249 26.9938 42.4781 27.2357C42.4575 27.2799 42.4309 27.3134 42.4001 27.335C42.3682 27.3576 42.3426 27.39 42.322 27.4343C42.2799 27.5228 42.244 27.6491 42.2122 27.8132C42.1803 27.9784 42.1126 28.149 42.0078 28.325C41.8405 28.6769 41.6936 29.0062 41.5684 29.3139C41.4431 29.6227 41.3179 29.9627 41.1916 30.3363C41.1289 30.6882 41.0612 30.9851 40.9872 31.227C40.9133 31.4688 40.9605 31.7549 41.1279 32.0842C41.6084 31.9525 42.0325 31.7927 42.398 31.6059C42.7635 31.4191 43.1455 31.2162 43.5428 30.9959L44.3899 30.3363L44.6404 30.1711L45.6446 29.3798L46.4917 28.6866C46.5748 28.6208 46.6796 28.5495 46.8059 28.4718C46.9311 28.3952 47.0358 28.3239 47.119 28.257C47.3274 28.081 47.4958 27.9439 47.6211 27.8446C47.7464 27.7452 47.9137 27.6189 48.1232 27.4656C48.1653 27.3997 48.2115 27.3501 48.2638 27.3177C48.3152 27.2842 48.384 27.2464 48.4682 27.2022L48.6879 27.037C48.73 26.9269 48.8286 26.8502 48.9857 26.806C49.1427 26.7617 49.2413 26.6635 49.2834 26.5091C49.3666 26.5317 49.4087 26.5091 49.4087 26.4432C49.5134 26.4875 49.5493 26.5425 49.5185 26.6084C49.4867 26.6743 49.5134 26.7293 49.5966 26.7736C49.5545 26.7962 49.5185 26.8513 49.4867 26.9388C49.4549 27.0273 49.4395 27.0823 49.4395 27.1039C49.5226 27.1482 49.575 27.0985 49.5966 26.956C49.6171 26.8135 49.6592 26.7531 49.7218 26.7747C49.7218 26.7973 49.7105 26.8567 49.69 26.956C49.6684 27.0554 49.6479 27.1039 49.6274 27.1039C49.7321 27.1482 49.7526 27.2087 49.69 27.2853C49.6274 27.363 49.6161 27.4332 49.6582 27.5002C49.6161 27.5444 49.5843 27.5714 49.5637 27.5822C49.5432 27.5941 49.5216 27.6319 49.5011 27.6977C49.459 27.6977 49.4539 27.6761 49.4857 27.6319C49.5175 27.5876 49.4908 27.566 49.4077 27.566C49.3861 27.6103 49.3656 27.6481 49.345 27.6815C49.3235 27.715 49.3029 27.7755 49.2824 27.8629C49.2403 27.8629 49.2249 27.8467 49.2352 27.8132C49.2454 27.7809 49.2506 27.7528 49.2506 27.7312C49.1458 27.7312 49.0935 27.7647 49.0935 27.8305C48.9887 27.8748 48.9261 27.9406 48.9056 28.0281C48.884 28.1166 48.8429 28.2041 48.7803 28.2915C48.7177 28.2915 48.6961 28.2807 48.7177 28.258C48.7392 28.2354 48.7177 28.2246 48.655 28.2246C48.6756 28.2472 48.6602 28.3066 48.6078 28.4059C48.5554 28.5053 48.4979 28.5992 48.4353 28.6866C48.3727 28.7752 48.3254 28.8464 48.2946 28.9015C48.2638 28.9565 48.268 28.9404 48.3101 28.8518C48.268 28.8302 48.1735 28.8745 48.0277 28.9835C47.8809 29.0937 47.7874 29.1703 47.7453 29.2146L47.3695 29.6108C47.3069 29.6551 47.1971 29.7425 47.04 29.8742C46.8829 30.0059 46.7833 30.0945 46.7422 30.1376L46.6796 30.1053C46.6796 30.1279 46.6744 30.1441 46.6642 30.1549C46.6529 30.1668 46.6488 30.1938 46.6488 30.237C46.6272 30.1927 46.5964 30.1873 46.5543 30.2208C46.5122 30.2542 46.5122 30.292 46.5543 30.3363H46.4598C46.4598 30.359 46.4177 30.4356 46.3346 30.5673C46.2504 30.699 46.1354 30.8092 45.9896 30.8977V30.766C45.9475 30.7444 45.927 30.7498 45.927 30.7822C45.927 30.8146 45.9054 30.8426 45.8643 30.8642H45.9588C45.9372 30.9527 45.9064 31.0013 45.8643 31.0121C45.8222 31.024 45.7699 31.0402 45.7072 31.0618C45.6857 31.0618 45.6918 31.051 45.7226 31.0283C45.7534 31.0067 45.7483 30.9948 45.7072 30.9948C45.6651 31.0391 45.6179 31.0942 45.5666 31.16C45.5142 31.2259 45.4567 31.2809 45.3941 31.3252C45.352 31.2594 45.316 31.2486 45.2842 31.2917C45.2524 31.336 45.2164 31.3695 45.1743 31.3911L45.0172 31.4569C44.9546 31.5012 44.8961 31.5455 44.8448 31.5886C44.7924 31.6329 44.7133 31.6664 44.6096 31.688C44.5891 31.7322 44.5778 31.7765 44.5778 31.8197C44.5573 31.8197 44.547 31.8089 44.547 31.7862C44.547 31.7635 44.5254 31.7646 44.4844 31.7862C44.4423 31.8305 44.3899 31.8801 44.3273 31.9341C44.2646 31.9892 44.1804 32.028 44.0767 32.0496C43.9925 32.204 43.8724 32.3131 43.7163 32.3789C43.5593 32.4448 43.397 32.5106 43.2307 32.5765C42.9802 32.7525 42.7286 32.8734 42.4781 32.9392C42.2481 32.9835 41.9965 33.0321 41.7255 33.0871C41.4534 33.1422 41.1608 33.1476 40.8476 33.1033C40.6381 33.0591 40.4348 33.0256 40.2357 33.004C40.0365 32.9813 39.8855 32.9381 39.7808 32.8723C39.634 32.7622 39.5138 32.6305 39.4204 32.4761C39.3259 32.3228 39.2479 32.1911 39.1853 32.0799C39.1227 32.0583 39.0908 32.0248 39.0908 31.9805C39.0908 31.9363 39.06 31.8812 38.9974 31.8154C38.9974 31.7938 39.0025 31.7819 39.0128 31.7819C39.0231 31.7819 39.0282 31.7603 39.0282 31.716C38.9861 31.7603 38.9553 31.7819 38.9337 31.7819C38.8916 31.6718 38.9081 31.5843 38.981 31.5185C39.0549 31.4526 39.059 31.3652 38.9964 31.255C38.9543 31.2993 38.9337 31.3867 38.9337 31.5185C38.8916 31.4742 38.8711 31.4148 38.8711 31.3371C38.8711 31.2594 38.9132 31.2216 38.9964 31.2216C38.9964 31.0899 39.0385 30.9355 39.1216 30.7595C39.0795 30.7595 39.0487 30.7703 39.0272 30.793C39.0487 30.6828 39.0898 30.5954 39.1524 30.5295C39.2151 30.4637 39.2469 30.3762 39.2469 30.2661C39.2048 30.2661 39.1894 30.2888 39.1997 30.332C39.211 30.3762 39.2048 30.3978 39.1843 30.3978C39.1422 30.2877 39.1843 30.1452 39.3095 29.9692C39.3311 29.9692 39.3403 29.9476 39.3403 29.9034C39.3403 29.9476 39.3198 29.9973 39.2777 30.0513C39.2356 30.1063 39.2356 30.156 39.2777 30.1992L39.2818 30.2035ZM44.4885 22.6505C44.4464 22.6732 44.4361 22.6894 44.4566 22.7002C44.4772 22.7121 44.4669 22.7391 44.4248 22.7823C44.3201 22.8708 44.241 22.9798 44.1897 23.1126C44.1373 23.2443 44.0377 23.2994 43.8919 23.2778C43.7872 23.3221 43.704 23.3987 43.6414 23.5088C43.5367 23.5088 43.474 23.498 43.4535 23.4754C43.4319 23.4538 43.4011 23.4203 43.359 23.376C43.2543 23.376 43.1917 23.4095 43.1711 23.4754C42.9832 23.4095 42.8313 23.3437 42.7163 23.2778C42.6013 23.2119 42.4699 23.1461 42.3241 23.0802C42.3241 22.8827 42.3497 22.6905 42.4021 22.5026C42.4545 22.3159 42.6064 22.2446 42.857 22.2878C42.8991 22.2435 42.9299 22.2219 42.9514 22.2219C42.973 22.2219 42.9935 22.2111 43.014 22.1885C43.2646 22.2111 43.4843 22.2662 43.6732 22.3537C43.8611 22.4422 44.0911 22.4972 44.3632 22.5188C44.3211 22.6074 44.3632 22.6505 44.4885 22.6505ZM45.3663 31.1266C45.4084 31.1266 45.4495 31.1104 45.4916 31.0769C45.5337 31.0434 45.5337 31.0056 45.4916 30.9614L45.3663 31.1266ZM48.7228 28.0918C48.6386 28.1145 48.576 28.1576 48.5349 28.2235C48.4928 28.2894 48.5031 28.3552 48.5667 28.4211C48.5667 28.3552 48.5986 28.2894 48.6612 28.2235C48.7033 28.1792 48.7238 28.136 48.7238 28.0918H48.7228ZM49.036 27.9277C49.0154 27.9061 49.0257 27.8942 49.0678 27.8942L49.036 27.9277Z" fill="white"/>
<path d="M61.8333 30.0383C61.8333 29.9509 61.7963 29.939 61.7234 30.0049C61.6495 30.0707 61.5663 30.1647 61.4729 30.2856C61.3795 30.4065 61.2799 30.5328 61.1751 30.6645C61.0704 30.7962 60.9759 30.8848 60.8928 30.9279C60.8086 30.8837 60.8086 30.8124 60.8928 30.7131C60.9759 30.6138 61.018 30.5436 61.018 30.4983C60.8712 30.4983 60.7983 30.576 60.7983 30.7293C60.7983 30.8826 60.7562 30.9603 60.6731 30.9603C60.631 31.0704 60.5365 31.1471 60.3907 31.1914C60.2439 31.2356 60.1186 31.3015 60.0139 31.3889C59.9933 31.3889 60.0087 31.3889 60.0611 31.3889C60.1135 31.3889 60.1289 31.4116 60.1083 31.4548C60.0662 31.4105 60.0457 31.4105 60.0457 31.4548C60.0457 31.4991 60.0252 31.5098 59.9831 31.4883V31.4224C59.941 31.4667 59.905 31.4559 59.8732 31.3889C59.8414 31.3231 59.8783 31.3123 59.9831 31.3565C60.0036 31.2907 60.0149 31.2248 60.0149 31.159C59.9523 31.1147 59.905 31.1212 59.8742 31.1752C59.8424 31.2302 59.8116 31.3015 59.7808 31.39C59.749 31.4785 59.713 31.5606 59.6709 31.6372C59.6288 31.715 59.5457 31.742 59.4204 31.7193C59.6083 31.5876 59.7541 31.4008 59.8599 31.159C59.713 31.2032 59.5457 31.3565 59.3578 31.621C59.3362 31.5552 59.3054 31.5498 59.2633 31.6048C59.2212 31.6599 59.1894 31.7096 59.1699 31.7528C59.0857 31.7528 59.0446 31.7312 59.0446 31.6869H59.0128C58.9923 31.7096 58.981 31.7312 58.981 31.7528C58.8968 31.797 58.8444 31.8305 58.8239 31.8521C58.8023 31.8748 58.7612 31.9179 58.6986 31.9838C58.7407 31.9838 58.7664 31.973 58.7777 31.9503C58.7879 31.9287 58.8136 31.9395 58.8557 31.9838C58.8136 32.0281 58.7664 32.0831 58.715 32.149C58.6627 32.2148 58.6052 32.2375 58.5425 32.2148C58.5004 32.2148 58.4953 32.204 58.5271 32.1824C58.559 32.1608 58.5641 32.1166 58.5425 32.0507C58.4173 32.095 58.3434 32.1662 58.3228 32.2656C58.3013 32.3649 58.2386 32.4027 58.1349 32.3811C58.1555 32.3152 58.1555 32.271 58.1349 32.2494C58.0928 32.272 58.061 32.2774 58.0415 32.2656C58.0199 32.2548 57.9676 32.2494 57.8844 32.2494C57.8844 32.272 57.8947 32.2882 57.9162 32.299C57.9368 32.3098 57.948 32.3379 57.948 32.3811C57.7807 32.4912 57.5723 32.5463 57.3207 32.5463C57.0691 32.5463 56.8186 32.4588 56.5681 32.2828C56.2549 32.2613 55.9561 32.1954 55.6738 32.0853C55.3914 31.9752 55.1347 31.8542 54.9058 31.7225C54.9058 31.7009 54.9376 31.6891 54.9992 31.6891C54.9992 31.6448 54.9889 31.6124 54.9684 31.5897C54.9468 31.5681 54.916 31.5347 54.8739 31.4904C54.8318 31.4904 54.8113 31.5066 54.8113 31.5401C54.8113 31.5735 54.8216 31.6005 54.8431 31.6221C54.7179 31.5347 54.6234 31.403 54.5608 31.2259C54.4982 31.0499 54.4037 30.929 54.2784 30.8632C54.2579 30.7757 54.2415 30.698 54.2312 30.6321C54.2209 30.5663 54.184 30.5328 54.1213 30.5328C53.9961 29.8516 53.9437 29.2351 53.9642 28.6856C53.9848 28.1361 54.0269 27.4656 54.0895 26.6743C53.9221 26.7401 53.7753 26.8556 53.6501 27.0208C53.5248 27.186 53.378 27.3015 53.2106 27.3674C52.4991 28.1587 51.7629 28.9339 50.999 29.6929C50.2351 30.4518 49.54 31.2928 48.9136 32.2159C48.8089 32.2386 48.7257 32.2872 48.6631 32.3638C48.6005 32.4415 48.5163 32.5117 48.4126 32.5787C48.2873 32.6013 48.1354 32.611 47.9577 32.611C47.7801 32.611 47.5758 32.5787 47.3458 32.5117C47.3252 32.4901 47.3252 32.4621 47.3458 32.4297C47.3663 32.3962 47.3663 32.38 47.3458 32.38C47.1158 32.2926 46.9382 32.2321 46.8129 32.1986C46.6876 32.1662 46.625 31.9957 46.625 31.688C46.625 31.5779 46.6404 31.4731 46.6722 31.3749C46.7041 31.2756 46.7092 31.1719 46.6876 31.0618C46.6876 30.996 46.7092 30.9582 46.7503 30.9463C46.7924 30.9355 46.8129 30.9085 46.8129 30.8642C47.085 29.6767 47.4289 28.583 47.8479 27.5822C48.2658 26.5825 48.6426 25.5763 48.9773 24.5647C49.082 24.6532 49.2278 24.6424 49.4167 24.5312C49.5841 24.5971 49.7196 24.6414 49.8244 24.663C49.9291 24.6856 50.1067 24.7515 50.3573 24.8605C50.3778 24.9048 50.4147 24.9491 50.4671 24.9922C50.5195 25.0365 50.5657 25.0808 50.6078 25.124C50.5872 25.586 50.4928 26.0092 50.3254 26.3936C50.1581 26.779 49.9907 27.1795 49.8233 27.5973C49.7186 27.8834 49.5985 28.2127 49.4629 28.5863C49.3264 28.9609 49.2063 29.301 49.1026 29.6087C49.1026 29.7188 49.0872 29.79 49.0553 29.8235C49.0235 29.857 48.9978 29.9055 48.9773 29.9714C49.2484 29.6637 49.5266 29.3172 49.809 28.9328C50.0913 28.5485 50.3583 28.1911 50.6088 27.8608C50.9014 27.6632 51.1787 27.4322 51.4405 27.1677C51.7013 26.9042 51.9785 26.6624 52.2711 26.4422C52.5637 26.2003 52.8615 25.9801 53.1654 25.7825C53.4683 25.5849 53.7455 25.3755 53.9961 25.1563C54.1419 25.1563 54.2733 25.1067 54.3883 25.0084C54.5033 24.9091 54.6337 24.8497 54.7805 24.8271C54.9479 24.8271 55.1039 24.8767 55.2508 24.975C55.3966 25.0743 55.5845 25.1229 55.8155 25.1229V25.1887C55.9202 25.1671 55.9828 25.2114 56.0034 25.3204C56.0239 25.4306 56.066 25.5407 56.1286 25.6497C56.1081 25.8473 56.0865 26.1118 56.066 26.4411C56.0455 26.7714 55.9818 27.0349 55.8781 27.2324C55.9407 27.1882 55.9305 27.2486 55.8463 27.4138C55.7621 27.579 55.7528 27.6945 55.8145 27.7604C55.7097 28.7061 55.7097 29.4424 55.8145 29.9703C55.9192 30.4983 56.0547 30.8275 56.2221 30.9592C56.4931 31.0035 56.7242 31.0305 56.9121 31.0413C57.0999 31.0521 57.2724 31.0413 57.4295 31.0078C57.5866 30.9744 57.7478 30.9204 57.9152 30.8426C58.0826 30.766 58.2807 30.6505 58.5117 30.4961C58.5538 30.4518 58.5898 30.414 58.6216 30.3806C58.6534 30.3471 58.7109 30.3536 58.7941 30.3968C59.0025 30.3525 59.1709 30.2651 59.2962 30.1323C59.4214 30.0006 59.5683 29.979 59.7356 30.0664C59.7777 30.0221 59.7983 29.9844 59.7983 29.9509C59.7983 29.9174 59.8085 29.8796 59.8301 29.8354C59.8722 29.858 59.8825 29.8742 59.8619 29.885C59.8404 29.8969 59.8517 29.9131 59.8938 29.9347C59.9143 29.9131 59.9256 29.858 59.9256 29.7695C59.9882 29.8138 60.056 29.8192 60.1289 29.7857C60.2018 29.7522 60.2387 29.6929 60.2387 29.6043C60.3219 29.5827 60.3845 29.5385 60.4266 29.4726C60.4687 29.4068 60.5098 29.3517 60.5519 29.3074C60.5098 29.3517 60.4841 29.3852 60.4739 29.4068C60.4636 29.4294 60.4472 29.4845 60.4266 29.5719C60.594 29.4845 60.6772 29.4068 60.6772 29.3409C60.6772 29.2751 60.7285 29.1876 60.8343 29.0775C60.9595 29.0116 61.0899 28.935 61.2265 28.8464C61.362 28.759 61.4934 28.6597 61.6187 28.5496C61.7234 28.4837 61.8169 28.4124 61.9011 28.3347C61.9842 28.2581 62.0787 28.1976 62.1834 28.1533C62.2255 28.1091 62.2727 28.0497 62.3241 27.972C62.3754 27.8953 62.4545 27.8683 62.5592 27.8899C62.6218 27.8456 62.6742 27.8241 62.7163 27.8241C62.7584 27.8241 62.7841 27.7917 62.7943 27.7247C62.8046 27.6589 62.8097 27.6146 62.8097 27.593C62.8929 27.593 63.0346 27.5488 63.2328 27.4613C63.4309 27.3739 63.5623 27.2745 63.625 27.1644C63.6455 27.1644 63.6568 27.1202 63.6568 27.0327C63.6989 27.0327 63.7194 27.0446 63.7194 27.0662C63.7194 27.0878 63.74 27.0996 63.7821 27.0996C63.8242 27.0554 63.8242 27.0338 63.7821 27.0338C63.74 27.0338 63.7297 27.0003 63.7502 26.9345C63.7923 26.9787 63.8129 26.9841 63.8129 26.9507V26.8351C63.855 26.8135 63.8755 26.8243 63.8755 26.8686C63.8755 26.9129 63.8858 26.9237 63.9063 26.9021C63.9063 26.9247 63.896 26.9355 63.8755 26.9355C63.855 26.9355 63.8437 26.9582 63.8437 27.0014C63.9268 26.9571 64.011 27.0295 64.0942 27.2162C64.1774 27.403 64.1363 27.6071 63.9689 27.8262C63.9484 27.8262 63.9484 27.8316 63.9689 27.8424C63.9895 27.8543 63.9792 27.8705 63.9371 27.8921C63.9371 27.9806 63.8745 28.0961 63.7492 28.2386C63.6239 28.3822 63.55 28.4751 63.5295 28.5193L61.8353 30.0362L61.8333 30.0383ZM58.6657 31.9838C58.6237 31.9838 58.598 32.0119 58.5877 32.0658C58.5774 32.1209 58.6031 32.1479 58.6657 32.1479V31.9827V31.9838ZM59.0107 31.7204V31.7538H58.9789C58.9994 31.7538 59.0046 31.7484 58.9943 31.7376C58.983 31.7268 58.9892 31.7214 59.0097 31.7214L59.0107 31.7204ZM59.0415 31.8521C58.9789 31.8963 58.9676 31.8748 59.0097 31.7862L59.0415 31.8521ZM60.0139 31.39L59.982 31.4235C60.0026 31.4235 60.0139 31.4127 60.0139 31.39ZM61.4575 29.5763C61.4996 29.5989 61.5509 29.5763 61.6146 29.5104L61.6772 29.4446C61.5725 29.4446 61.4996 29.4888 61.4575 29.5763ZM62.7122 28.8173C62.7122 28.8832 62.6906 28.9058 62.6496 28.8832C62.6075 28.8616 62.5654 28.9058 62.5243 29.0149C62.6917 28.9706 62.7543 28.9047 62.7122 28.8173Z" fill="white"/>
<path d="M73 27.6305C73.0421 27.6305 73.0832 27.6089 73.1253 27.5647C73.1674 27.5204 73.1879 27.4653 73.1879 27.3995C73.23 27.4221 73.2824 27.3941 73.345 27.3174C73.4077 27.2408 73.4498 27.1576 73.4703 27.0702C73.5329 27.0486 73.5802 27.0367 73.611 27.0367C73.6418 27.0367 73.689 27.0151 73.7516 26.9709V27.0367C73.8769 26.9266 74.0073 26.8392 74.1438 26.7733C74.2794 26.7074 74.3687 26.6081 74.4108 26.4764C74.4313 26.4991 74.5094 26.4764 74.6459 26.4105C74.7815 26.3447 74.918 26.268 75.0535 26.1795C75.1891 26.0921 75.3205 26.0035 75.4458 25.9161C75.571 25.8286 75.6337 25.7736 75.6337 25.7509C75.6758 25.7509 75.7168 25.7347 75.7589 25.7012C75.801 25.6678 75.8421 25.6635 75.8842 25.685C76.03 25.5091 76.2394 25.4108 76.5115 25.3882C76.7826 25.3666 76.9921 25.278 77.1389 25.1247C77.181 25.2791 77.1707 25.3504 77.1071 25.3396C77.0444 25.3288 76.9818 25.3784 76.9192 25.4875C77.0023 25.4875 77.0598 25.4659 77.0917 25.4216C77.1235 25.3774 77.1697 25.3774 77.2323 25.4216C77.2323 25.4443 77.1902 25.4551 77.1071 25.4551V25.5868L77.0444 25.5209C77.0023 25.5209 76.9972 25.5436 77.029 25.5868C77.0608 25.6311 77.065 25.6753 77.0444 25.7185C77.0023 25.6969 76.9869 25.6807 76.9972 25.6689C77.0075 25.6581 77.0126 25.6419 77.0126 25.6192C76.9284 25.6419 76.913 25.6904 76.9654 25.7671C77.0177 25.8448 77.0639 25.861 77.106 25.8168C77.1266 25.9269 77.0855 25.9981 76.9808 26.0316C76.876 26.0651 76.8339 26.1698 76.8555 26.3447C76.605 26.4105 76.4161 26.5099 76.2908 26.6416C76.1655 26.6416 76.0454 26.7128 75.9304 26.8564C75.8154 27 75.6953 27.1037 75.57 27.1695C75.57 27.1922 75.5597 27.2084 75.5382 27.2192C75.5176 27.23 75.5176 27.258 75.5382 27.3012C75.5176 27.3012 75.4447 27.3401 75.3184 27.4167C75.1932 27.4945 75.0566 27.5711 74.9108 27.6478C74.764 27.7255 74.6336 27.8022 74.5186 27.8788C74.4036 27.9565 74.3348 28.0051 74.3143 28.0267V27.9274C74.2722 27.9501 74.2404 27.9825 74.2198 28.0267C74.1993 28.071 74.1777 28.1045 74.1572 28.126C74.1151 28.0602 74.0473 28.0602 73.9529 28.126C73.8584 28.1919 73.8009 28.2696 73.7804 28.3571V28.3247C73.6962 28.4132 73.6284 28.4953 73.576 28.5719C73.5237 28.6497 73.4456 28.709 73.3409 28.7533C73.3194 28.7533 73.3091 28.7198 73.3091 28.654C73.2249 28.654 73.1838 28.7317 73.1838 28.885C73.0791 28.9077 72.9908 28.9563 72.9169 29.0329C72.8429 29.1107 72.7649 29.2035 72.6817 29.3136L72.6499 29.1484C72.6294 29.2143 72.6078 29.2586 72.5873 29.2801C72.5657 29.3028 72.5657 29.3352 72.5873 29.3795C72.5452 29.3352 72.5031 29.3579 72.462 29.4453C72.4199 29.5339 72.3778 29.5554 72.3368 29.5112C72.232 29.6872 72.1119 29.8081 71.9764 29.8739C71.8398 29.9398 71.731 30.0607 71.6468 30.2367C71.6262 30.1924 71.5944 30.187 71.5523 30.2205C71.5102 30.254 71.4681 30.2917 71.427 30.336C71.3018 30.4677 71.2494 30.5336 71.27 30.5336C71.1447 30.5562 71.0708 30.6329 71.0502 30.7646C71.0081 30.7203 70.9455 30.7484 70.8623 30.8467C70.7781 30.946 70.7155 31.0399 70.6744 31.1274C70.6529 31.1274 70.6426 31.1166 70.6426 31.095C70.5584 31.1176 70.5173 31.1662 70.5173 31.2429C70.5173 31.3195 70.465 31.3584 70.3603 31.3584C70.2976 31.5128 70.198 31.6218 70.0625 31.6877C69.9259 31.7535 69.8376 31.8529 69.7955 31.9846C69.7534 31.9846 69.7278 31.99 69.7175 32.0008C69.7072 32.0116 69.6908 32.017 69.6703 32.017C69.3561 32.479 69.0429 32.8634 68.7287 33.1711C68.7493 33.2585 68.739 33.347 68.6969 33.4345C68.6969 33.5003 68.6815 33.6105 68.6497 33.7648C68.6178 33.9182 68.5501 34.0175 68.4454 34.0617C68.4874 34.1719 68.4874 34.2593 68.4454 34.3252C68.4033 34.391 68.3827 34.4903 68.3827 34.6221C68.3201 34.6221 68.278 34.6436 68.2575 34.6879C68.3201 34.7538 68.3201 34.825 68.2575 34.9028C68.1948 34.9794 68.1733 35.0399 68.1948 35.0841H68.1322V35.15C68.1322 35.1716 68.1373 35.1835 68.1476 35.1835C68.1579 35.1835 68.163 35.1716 68.163 35.15C68.163 35.2601 68.1476 35.3476 68.1158 35.4134C68.0839 35.4793 68.0685 35.5667 68.0685 35.6768C68.047 35.6984 68.0367 35.6876 68.0367 35.6434V35.5775C67.9946 35.6218 67.9474 35.6812 67.896 35.7589C67.8437 35.8355 67.8067 35.9176 67.7862 36.0061C67.8488 35.9619 67.8847 35.9068 67.896 35.8409C67.9063 35.7751 67.9433 35.7308 68.0059 35.7092C68.0059 35.8193 67.9956 35.9241 67.9741 36.0223C67.9535 36.1216 67.8899 36.1918 67.7862 36.2372V36.303C67.7235 36.303 67.6763 36.3473 67.6455 36.4347C67.6137 36.5222 67.5931 36.6161 67.5829 36.7154C67.5726 36.8147 67.551 36.9076 67.5202 36.9961C67.4894 37.0836 67.4422 37.1386 67.3796 37.1613C67.3796 37.3146 67.3529 37.4636 67.3015 37.6061C67.2492 37.7486 67.1711 37.8533 67.0664 37.9192C67.0664 37.9408 67.0982 37.9527 67.1599 37.9527C67.0972 38.0401 67.0449 38.1286 67.0028 38.2161C66.9607 38.3035 66.898 38.3694 66.8149 38.4136C66.7933 38.5011 66.7933 38.5508 66.8149 38.5616C66.8354 38.5723 66.8457 38.5885 66.8457 38.6112C66.8036 38.6328 66.7615 38.6609 66.7204 38.6933C66.6783 38.7267 66.668 38.7861 66.6886 38.8746C66.668 38.852 66.6516 38.8628 66.6413 38.9081C66.6311 38.9524 66.6465 38.9848 66.6886 39.0074C66.6886 38.9416 66.704 38.9254 66.7358 38.9578C66.7676 38.9912 66.7933 38.9632 66.8149 38.8757C66.857 38.92 66.8508 38.9524 66.7995 38.975C66.7471 38.9966 66.742 39.0301 66.7841 39.0744C66.6372 39.1186 66.5438 39.1953 66.5017 39.3054C66.5643 39.3054 66.627 39.2503 66.6896 39.1402C66.6475 39.2719 66.5746 39.3594 66.4699 39.4036C66.3651 39.4479 66.3025 39.5462 66.282 39.7005C66.282 39.7221 66.2871 39.734 66.2974 39.734C66.3076 39.734 66.3128 39.7448 66.3128 39.7664H66.3754L66.4072 39.734C66.3651 39.6897 66.36 39.6563 66.3918 39.6347C66.4237 39.612 66.4493 39.5796 66.4699 39.5354C66.512 39.5796 66.5376 39.5904 66.5479 39.5688C66.5582 39.5462 66.5736 39.5354 66.5951 39.5354C66.5951 39.6228 66.5643 39.6671 66.5017 39.6671C66.4801 39.6887 66.4863 39.7005 66.5171 39.7005C66.5479 39.7005 66.553 39.7221 66.5325 39.7664C66.3651 39.8107 66.2656 39.9143 66.2348 40.0795C66.2039 40.2447 66.167 40.4034 66.1249 40.5578C66.0623 40.5578 66.0048 40.5739 65.9524 40.6074C65.9 40.6409 65.8949 40.6787 65.937 40.7229C65.9791 40.7229 65.9996 40.7121 65.9996 40.6905C65.9996 40.6689 66.0202 40.6463 66.0623 40.6247C66.1043 40.6905 66.0879 40.7564 66.015 40.8223C65.9411 40.8881 65.9052 40.9648 65.9052 41.0533C65.8631 41.0533 65.8312 41.0911 65.8107 41.1688C65.7902 41.2455 65.7368 41.2843 65.6536 41.2843C65.7162 41.4603 65.6957 41.5704 65.591 41.6147C65.4862 41.659 65.4544 41.7248 65.4975 41.8123C65.4554 41.8123 65.4298 41.8231 65.4185 41.8457C65.4082 41.8673 65.3918 41.8781 65.3712 41.8781C65.3918 41.9224 65.4031 41.9332 65.4031 41.9116C65.4031 41.9558 65.3877 41.9882 65.3558 42.0109C65.324 42.0325 65.2983 42.0649 65.2768 42.1102C65.3189 42.1102 65.3394 42.0984 65.3394 42.0768C65.3394 42.0552 65.36 42.0649 65.402 42.1102C65.402 42.1545 65.3867 42.1707 65.3548 42.1599C65.323 42.1491 65.2871 42.1653 65.245 42.2096C65.1823 42.4287 65.0879 42.6274 64.9626 42.8033C64.941 42.8249 64.941 42.8476 64.9626 42.8692H64.9944C64.9729 42.9135 64.9205 42.9458 64.8373 42.9674C64.7531 42.989 64.7326 43.0549 64.7747 43.165C64.7952 43.165 64.8168 43.1531 64.8373 43.1315C64.8579 43.1089 64.8692 43.1207 64.8692 43.165C64.7644 43.2309 64.6854 43.3021 64.634 43.3788C64.5817 43.4554 64.5139 43.5493 64.4307 43.6595H64.4626C64.2952 43.8354 64.1381 44.0773 63.9923 44.385H63.8989C63.7315 44.6268 63.5642 44.8352 63.3968 45.0122C63.2294 45.1882 63.0302 45.375 62.8003 45.5725H62.675C62.6545 45.6168 62.6175 45.6492 62.5651 45.6719C62.5128 45.6935 62.4655 45.7485 62.4245 45.837C62.2787 45.8813 62.1739 45.9137 62.1113 45.9364C62.0487 45.958 61.9655 45.9806 61.8608 46.0022C61.715 45.9806 61.5579 45.958 61.3905 45.9364C61.2232 45.9137 61.0774 45.9137 60.9511 45.9364C60.8258 45.8705 60.679 45.8208 60.5116 45.7885C60.3443 45.755 60.1882 45.7053 60.0414 45.6406C59.9366 45.6621 59.8586 45.6352 59.8062 45.5585C59.7539 45.4808 59.7487 45.3879 59.7908 45.2778C59.7908 45.3221 59.8124 45.3652 59.8535 45.4095L59.9161 45.4754C59.9582 45.4754 59.9787 45.4311 59.9787 45.3437C59.9787 45.321 59.9469 45.3102 59.8843 45.3102C59.9058 45.2217 59.9161 45.1234 59.9161 45.0133V44.7499H59.8843C59.989 44.2004 60.1194 43.694 60.2765 43.233C60.4336 42.771 60.5958 42.3208 60.7632 41.8813C60.8053 41.8813 60.8155 41.8975 60.795 41.931C60.7745 41.9645 60.7632 42.0023 60.7632 42.0465C60.8884 41.9364 60.9726 41.7712 61.0137 41.5521C61.0763 41.2228 61.2232 40.9032 61.4532 40.5955C61.4111 40.7931 61.3382 40.9799 61.2334 41.1559C61.1287 41.3318 61.0763 41.5521 61.0763 41.8155C61.0969 41.7928 61.1133 41.7604 61.1236 41.7162C61.1338 41.6719 61.1605 41.6503 61.2016 41.6503C61.2016 41.7162 61.1862 41.7712 61.1544 41.8155C61.1225 41.8598 61.0969 41.9364 61.0763 42.0465C61.1184 41.9807 61.1657 41.9029 61.217 41.8155C61.2694 41.727 61.2642 41.6611 61.2016 41.6179C61.3269 41.3102 61.448 41.0457 61.562 40.8266C61.677 40.6063 61.7663 40.3645 61.8289 40.1011C61.9131 40.0784 61.9542 40.0017 61.9542 39.87C61.9542 39.7383 61.9963 39.6498 62.0795 39.6066V39.639C62.1216 39.6163 62.1318 39.5505 62.1113 39.4414C62.0908 39.3313 62.101 39.2439 62.1421 39.178C62.1637 39.1553 62.1637 39.1726 62.1421 39.2277C62.1216 39.2827 62.1318 39.3097 62.1739 39.3097C62.216 39.178 62.2479 39.1122 62.2684 39.1122V39.1456C62.4563 39.1229 62.5826 38.9804 62.6452 38.717C62.6873 38.7386 62.7284 38.6781 62.7705 38.5356C62.8126 38.3921 62.8649 38.2992 62.9276 38.2549C62.9276 38.4309 62.8495 38.5961 62.6924 38.7494C62.5354 38.9027 62.4779 39.0571 62.5199 39.2115C62.3321 39.4533 62.175 39.7232 62.0497 40.0201C61.9244 40.317 61.7992 40.6193 61.6729 40.927C61.7981 40.6851 61.9193 40.4541 62.0333 40.2339C62.1483 40.0136 62.2581 39.7826 62.3629 39.5408C62.4255 39.4965 62.4676 39.4468 62.4881 39.3929C62.5087 39.3378 62.5302 39.2449 62.5508 39.1122C62.5929 39.1564 62.6082 39.1672 62.598 39.1456C62.5877 39.1229 62.6031 39.1122 62.6452 39.1122C62.7078 38.9362 62.7961 38.7829 62.9122 38.6501C63.0272 38.5184 63.1052 38.3316 63.1473 38.0898C63.1894 38.0455 63.2253 38.012 63.2572 37.9904C63.289 37.9678 63.3147 37.9354 63.3352 37.8911C63.3773 37.8469 63.403 37.7972 63.4132 37.7432C63.4235 37.6881 63.4389 37.6385 63.4605 37.5953C63.3557 37.7054 63.2674 37.8145 63.1935 37.9257C63.1196 38.0358 63.0621 38.1448 63.021 38.2549H63.0528V38.3208C62.9686 38.2765 62.9532 38.2323 63.0056 38.1891C63.0569 38.1448 63.0836 38.0898 63.0836 38.0239L63.021 38.1556C63.0005 38.1114 63.0056 38.0617 63.0364 38.0077C63.0672 37.9527 63.1042 37.9257 63.1463 37.9257C63.1884 37.7713 63.251 37.6666 63.3342 37.6126C63.4173 37.5575 63.4697 37.4647 63.4913 37.3319C63.4913 37.2218 63.5118 37.1386 63.5539 37.0846C63.596 37.0296 63.6268 36.9475 63.6484 36.8374C63.7531 36.8817 63.826 36.8482 63.8681 36.7381C63.9102 36.628 63.9625 36.5286 64.0252 36.4412C64.0457 36.6604 63.9882 36.8255 63.8527 36.9357C63.7161 37.0458 63.6278 37.1883 63.5857 37.3643C63.6904 37.2984 63.7736 37.2045 63.8362 37.0836C63.8989 36.9626 63.9933 36.8471 64.1186 36.737C64.0344 36.913 63.9256 37.0674 63.789 37.1991C63.6525 37.3308 63.5539 37.5176 63.4913 37.7594C63.4913 37.781 63.5015 37.781 63.5231 37.7594C63.5436 37.8037 63.5436 37.8307 63.5231 37.8415C63.5026 37.8522 63.5026 37.8792 63.5231 37.9235C63.5231 37.9451 63.5436 37.8684 63.5857 37.6925V37.7249L63.8362 37.3956C63.8362 37.2412 63.9091 37.1537 64.056 37.1321C64.056 37.1095 64.0765 37.0771 64.1186 37.0328C64.1391 37.0771 64.1658 37.0771 64.1966 37.0328C64.2285 36.9886 64.2439 36.9335 64.2439 36.8676C64.2233 36.8234 64.2131 36.8396 64.2131 36.9173C64.2131 36.995 64.1812 37.0209 64.1186 36.9994C64.1812 36.9108 64.2233 36.8234 64.2439 36.7349C64.2644 36.6463 64.327 36.5805 64.4318 36.5373C64.4739 36.493 64.5047 36.4434 64.5252 36.3894C64.5457 36.3343 64.5878 36.3073 64.6505 36.3073C64.6084 36.3732 64.5724 36.4174 64.5406 36.439C64.5088 36.4606 64.4934 36.5049 64.4934 36.5708C64.5765 36.5049 64.6453 36.4272 64.6977 36.3397C64.7501 36.2512 64.8281 36.1637 64.9328 36.0763C64.8076 36.0536 64.7757 36.0104 64.8384 35.9446C64.8178 35.9446 64.8065 35.9338 64.8065 35.9111C64.7439 35.9554 64.6967 36.0104 64.6659 36.0763C64.634 36.1421 64.5981 36.208 64.556 36.2739C64.5139 36.1853 64.5293 36.1141 64.6032 36.059C64.6761 36.004 64.7131 35.9327 64.7131 35.8442C64.6915 35.8658 64.6505 35.9316 64.5878 36.0417C64.5673 35.9759 64.5776 35.9208 64.6197 35.8766C64.6618 35.8323 64.6823 35.7772 64.6823 35.7114C64.8702 35.6013 65.0119 35.4415 65.1053 35.2331C65.1988 35.0237 65.2983 34.8315 65.4031 34.6555C65.4236 34.7656 65.3928 34.8531 65.3086 34.9189C65.2244 34.9848 65.1936 35.0723 65.2152 35.1824C65.1525 35.204 65.1207 35.259 65.1207 35.3476C65.0581 35.435 64.9842 35.5127 64.901 35.5786C64.8168 35.6444 64.7542 35.7319 64.7131 35.842H64.7449C64.8702 35.7535 64.9698 35.6606 65.0427 35.5613C65.1156 35.462 65.1936 35.3573 65.2778 35.2482C65.2573 35.3799 65.1936 35.5009 65.0899 35.611C64.9852 35.7211 64.9123 35.8636 64.8702 36.0396C64.9749 35.9953 65.0427 35.9241 65.0745 35.8247C65.1063 35.7254 65.1731 35.6768 65.2778 35.6768C65.2983 35.5883 65.3456 35.5009 65.4185 35.4134C65.4914 35.3249 65.5489 35.2482 65.591 35.1824C65.6115 35.1824 65.6433 35.1597 65.6854 35.1165V35.15C65.7686 35.15 65.8107 35.0949 65.8107 34.9848C65.9986 34.8088 66.1814 34.5994 66.36 34.3586C66.5376 34.1168 66.7409 33.9074 66.972 33.7314C66.972 33.6429 66.9771 33.5554 66.9874 33.468C66.9976 33.3794 67.0243 33.292 67.0664 33.2045C66.9617 33.2704 66.8724 33.3859 66.7995 33.5511C66.7255 33.7163 66.6793 33.8534 66.6588 33.9635C66.6167 33.8976 66.5695 33.8976 66.5181 33.9635C66.4658 34.0294 66.4401 34.0844 66.4401 34.1287C66.4185 34.106 66.3826 34.1006 66.3302 34.1125C66.2779 34.1233 66.2522 34.1503 66.2522 34.1945C66.2101 34.1503 66.2255 34.1125 66.2994 34.079C66.3723 34.0455 66.4093 34.0078 66.4093 33.9635C66.3046 34.0078 66.2255 34.079 66.1742 34.1783C66.1218 34.2777 66.053 34.3597 65.9698 34.4256C66.0119 34.4698 66.0479 34.4698 66.0797 34.4256C66.1115 34.3813 66.1475 34.337 66.1896 34.2939C66.168 34.3381 66.1372 34.3759 66.0951 34.4094C66.053 34.4428 66.0212 34.5022 66.0017 34.5907C66.0017 34.5681 66.0335 34.5681 66.0951 34.5907C66.0951 34.635 66.0746 34.6566 66.0325 34.6566C65.9904 34.6566 65.9801 34.6782 66.0006 34.7225L65.9688 34.689C65.9062 34.689 65.8641 34.7225 65.8436 34.7883V34.6566C65.823 34.6566 65.8117 34.6782 65.8117 34.7225C65.8117 34.7667 65.7696 34.7775 65.6865 34.7559C65.6865 34.6674 65.7019 34.5907 65.7337 34.5249C65.7655 34.459 65.7912 34.404 65.8117 34.3597C65.7696 34.2053 65.822 34.1071 65.9688 34.0628C65.9688 34.1071 65.9473 34.1341 65.9062 34.1449C65.8641 34.1557 65.8538 34.2053 65.8744 34.2928C65.9996 34.2042 66.0992 34.0887 66.1721 33.9462C66.245 33.8026 66.3333 33.6763 66.4391 33.5673C66.4812 33.5673 66.5017 33.5781 66.5017 33.5997C66.6064 33.5338 66.6588 33.4561 66.6588 33.3686C66.6588 33.2812 66.6906 33.1711 66.7533 33.0383C66.7954 33.0156 66.8159 33.0491 66.8159 33.1376C66.9833 33.0059 67.0767 32.8569 67.0982 32.6928C67.1188 32.5276 67.1496 32.3581 67.1917 32.1821C67.2964 31.7859 67.4063 31.3692 67.5213 30.9287C67.6363 30.4893 67.7461 30.0499 67.8509 29.6094C67.663 29.7854 67.4843 29.9668 67.318 30.1536C67.1506 30.3403 66.9617 30.5217 66.7533 30.6977C66.7317 30.8952 66.6485 31.028 66.5027 31.0939C66.2306 31.4674 65.9483 31.7978 65.6557 32.0828C65.363 32.3689 65.0488 32.6431 64.7151 32.9076C64.4215 32.9951 64.1402 33.0998 63.8681 33.2207C63.596 33.3416 63.2931 33.3686 62.9584 33.3028C62.8536 33.2801 62.7284 33.2369 62.5826 33.1711C62.4358 33.1052 62.3002 33.0501 62.175 33.0059C61.8823 32.8742 61.6729 32.6982 61.5476 32.478C61.5476 32.3246 61.5055 32.1811 61.4223 32.0493C61.4018 31.8734 61.3905 31.665 61.3905 31.4221C61.3905 31.1792 61.4429 30.9827 61.5476 30.8283C61.7355 30.0154 62.0394 29.3115 62.4573 28.7177C62.8752 28.1239 63.2623 27.5193 63.6175 26.9039C63.8681 26.6405 64.1083 26.3706 64.3394 26.0964C64.5694 25.8222 64.8301 25.5739 65.1238 25.3547C65.3538 25.1129 65.5735 24.9477 65.783 24.8602C65.9914 24.7728 66.1382 24.7501 66.2224 24.7944C66.243 24.7944 66.2738 24.7728 66.3169 24.7285C66.6506 24.7944 66.9802 24.844 67.3046 24.8764C67.6281 24.9099 67.9371 25.1355 68.2297 25.5523C68.5018 25.6408 68.6692 25.739 68.7318 25.8491C68.8365 25.8049 68.9618 25.712 69.1086 25.5685C69.2544 25.4259 69.4321 25.3104 69.6415 25.2219C69.7668 25.332 69.929 25.3979 70.1272 25.4195C70.3253 25.4421 70.4886 25.5296 70.6139 25.6829C70.656 25.9463 70.6241 26.3155 70.5194 26.7873C70.4147 27.2602 70.3418 27.651 70.2997 27.9576C70.2155 28.2664 70.1426 28.5957 70.0799 28.9465C70.0173 29.2985 69.9331 29.6062 69.8294 29.8696C70.0594 29.7379 70.2791 29.5781 70.4886 29.3913C70.697 29.2046 70.9167 29.0232 71.1467 28.8472L71.2094 28.9131C71.3767 28.7598 71.5698 28.6108 71.7895 28.4683C72.0092 28.3258 72.2022 28.166 72.3696 27.99C72.4117 27.99 72.4528 28.0019 72.4949 28.0235C72.5154 28.0019 72.5205 27.99 72.5103 27.99C72.5 27.99 72.5051 27.9684 72.5257 27.9242C72.6304 27.9468 72.729 27.9026 72.8234 27.7924C72.9179 27.6823 73.0062 27.5841 73.0904 27.4956C73.1325 27.5182 73.1263 27.5344 73.075 27.5452C73.0226 27.5571 72.997 27.5841 72.997 27.6273L73 27.6305ZM59.951 45.077C59.9305 45.1429 59.9192 45.2087 59.9192 45.2746C59.9613 45.2519 59.9869 45.2141 59.9972 45.159C60.0075 45.104 59.9921 45.077 59.95 45.077H59.951ZM60.641 42.9005C60.641 42.812 60.6625 42.7407 60.7036 42.6857C60.7457 42.6306 60.7663 42.5475 60.7663 42.4384C60.7242 42.5259 60.6831 42.609 60.641 42.6857C60.5989 42.7623 60.5989 42.8336 60.641 42.9005ZM60.7673 42.406C60.8094 42.4276 60.8299 42.4114 60.8299 42.3564C60.8299 42.3013 60.8094 42.2743 60.7673 42.2743V42.406ZM61.5199 43.7253C61.4994 43.9013 61.4521 44.0881 61.3792 44.2856C61.3063 44.4832 61.3217 44.6592 61.4265 44.8136C61.5107 44.8578 61.563 44.8578 61.5835 44.8136C61.6041 44.7693 61.6359 44.7358 61.677 44.7142C61.7396 44.6257 61.8084 44.5599 61.8813 44.5167C61.9552 44.4724 62.0127 44.4281 62.0538 44.385C62.138 44.2306 62.1904 44.1539 62.2109 44.1539C62.3567 44.1097 62.4409 44.0438 62.4614 43.9564C62.5035 43.8905 62.5662 43.857 62.6493 43.857V43.7253C62.6914 43.6811 62.7325 43.6476 62.7746 43.626C62.8167 43.6033 62.8578 43.5817 62.8998 43.5601C63.0672 43.2082 63.2602 42.8886 63.48 42.6036C63.6997 42.3175 63.8825 41.9872 64.0293 41.6147C64.1124 41.5488 64.1597 41.4711 64.1699 41.3837C64.1802 41.2951 64.2172 41.2293 64.2798 41.1861C64.2798 41.1634 64.2849 41.1526 64.2952 41.1526C64.3055 41.1526 64.3106 41.1299 64.3106 41.0868C64.4564 40.8665 64.5776 40.642 64.671 40.4109C64.7655 40.1799 64.8753 39.9435 65.0006 39.7016C65.0632 39.3713 65.1679 39.0798 65.3137 38.8271C65.4595 38.5745 65.554 38.2722 65.5961 37.9203C65.6587 37.876 65.706 37.794 65.7368 37.673C65.7686 37.5521 65.8045 37.4031 65.8466 37.2282C65.9514 36.9864 66.0448 36.7273 66.129 36.4531C66.2122 36.1778 66.3066 35.9305 66.4114 35.7114C66.3066 35.733 66.2389 35.7772 66.207 35.8431C66.1762 35.909 66.129 35.964 66.0664 36.0083C66.0664 35.964 66.0561 35.9424 66.0356 35.9424C66.014 35.9867 65.9935 36.0299 65.9729 36.0741C65.9514 36.1184 65.9103 36.14 65.8477 36.14C65.7008 36.3591 65.5653 36.5405 65.44 36.6841C65.3148 36.8266 65.1998 36.9972 65.095 37.1948C65.053 37.1721 65.0211 37.1894 65.0016 37.2444C64.9801 37.2995 64.9277 37.3481 64.8445 37.3923V37.5402C64.8445 37.5953 64.824 37.6223 64.7819 37.6223C64.8024 37.5996 64.8137 37.578 64.8137 37.5564C64.8137 37.5122 64.8035 37.4787 64.7819 37.4571C64.6977 37.6104 64.6094 37.7378 64.5149 37.8361C64.4205 37.9354 64.3311 38.0617 64.248 38.215L64.1853 38.1815C64.0601 38.3575 63.9605 38.5389 63.8876 38.7257C63.8137 38.9124 63.7254 39.1046 63.6206 39.3032C63.6206 39.1931 63.6052 39.1715 63.5734 39.2374C63.5416 39.3032 63.5159 39.3583 63.4943 39.4026V39.3691H63.4625C63.4204 39.5451 63.3578 39.6995 63.2746 39.8312C63.1904 39.9629 63.1278 40.1162 63.0867 40.2932C63.0652 40.3148 63.0446 40.3148 63.0241 40.2932C63.0036 40.4908 62.9296 40.6776 62.8044 40.8536V40.8212C62.8044 40.7985 62.7941 40.7769 62.7725 40.7553C62.7099 40.9313 62.6319 41.0792 62.5374 41.2001C62.444 41.321 62.3649 41.4916 62.3023 41.7108C62.3023 41.6665 62.292 41.6449 62.2704 41.6449C62.062 42.1286 61.8834 42.6673 61.7376 43.2611C61.6955 43.2611 61.6801 43.2503 61.6903 43.2276C61.7006 43.206 61.6852 43.206 61.6431 43.2276L61.5497 43.6562C61.5497 43.6778 61.5445 43.694 61.5343 43.7059C61.524 43.7167 61.5189 43.7329 61.5189 43.7556V43.7221L61.5199 43.7253ZM61.5199 43.6919L61.5517 43.6584C61.5517 43.68 61.5466 43.6919 61.5363 43.6919C61.5261 43.6919 61.5209 43.7027 61.5209 43.7253V43.6919H61.5199ZM61.676 40.955C61.6339 40.9993 61.6133 41.0544 61.6133 41.1202C61.6339 41.0976 61.6441 41.0706 61.6441 41.0382C61.6441 41.0058 61.6554 40.9777 61.676 40.9561V40.955ZM68.1692 26.0143C67.8139 25.9485 67.4792 25.9873 67.165 26.1298C66.8508 26.2734 66.5797 26.4321 66.3497 26.6081C66.0777 26.8057 65.8169 27.0367 65.5653 27.3012C65.3979 27.4772 65.2306 27.6758 65.0632 27.895C64.8959 28.1153 64.7285 28.3128 64.5611 28.4888C64.4985 28.5547 64.4513 28.6043 64.4205 28.6367C64.3886 28.6702 64.3527 28.708 64.3106 28.7522C64.2901 28.7749 64.2788 28.8019 64.2788 28.8343C64.2788 28.8667 64.2685 28.8947 64.2469 28.9163C64.2049 28.9606 64.173 28.9822 64.1535 28.9822C64.134 28.9822 64.1114 28.993 64.0909 29.0156C63.8814 29.3233 63.6935 29.6537 63.5262 30.0046C63.3588 30.3565 63.1914 30.7193 63.0241 31.0928C62.9615 31.2472 62.9142 31.434 62.8834 31.6531C62.8516 31.8734 62.8465 32.0709 62.868 32.2469C63.0354 32.2027 63.1976 32.1433 63.3537 32.0655C63.5108 31.9889 63.6514 31.9068 63.7767 31.8183C64.0272 31.5549 64.2788 31.3238 64.5293 31.1252C64.7593 30.8834 64.9944 30.6523 65.2347 30.4321C65.4749 30.2129 65.7101 29.9819 65.9401 29.739C66.0653 29.6731 66.1701 29.5738 66.2543 29.4421C66.3374 29.3104 66.4216 29.1895 66.5048 29.0793C66.7758 28.7717 67.0479 28.4694 67.32 28.1725C67.5911 27.8756 67.8426 27.5409 68.0726 27.1663C68.0511 26.9471 68.088 26.7701 68.1825 26.6383C68.277 26.5066 68.355 26.3533 68.4176 26.1763C68.355 26.1989 68.3078 26.1881 68.277 26.1439C68.2451 26.0996 68.2092 26.0564 68.1671 26.0122L68.1692 26.0143ZM63.0569 38.2172C63.0775 38.2172 63.0775 38.228 63.0569 38.2495V38.2172ZM63.3393 38.0854C63.3393 38.0412 63.3342 38.0196 63.3239 38.0196C63.3136 38.0196 63.3085 38.0088 63.3085 37.9861C63.2869 38.0304 63.2613 38.079 63.2305 38.134C63.1986 38.1891 63.2038 38.2269 63.2459 38.2495L63.4964 37.9527C63.4543 37.9527 63.4286 37.9688 63.4184 38.0023C63.4081 38.0358 63.3814 38.0628 63.3403 38.0844L63.3393 38.0854ZM63.8404 37.6234C63.8609 37.645 63.8722 37.645 63.8722 37.6234V37.4917C63.8506 37.469 63.8352 37.4863 63.825 37.5413C63.8137 37.5964 63.8198 37.6234 63.8404 37.6234ZM64.248 36.7985C64.3106 36.7985 64.3424 36.7878 64.3424 36.7651C64.3424 36.7424 64.363 36.71 64.4051 36.6658C64.3424 36.6658 64.3055 36.6766 64.2952 36.6992C64.2849 36.7208 64.2685 36.7543 64.248 36.7985ZM65.629 35.0841C65.629 35.1057 65.6238 35.1219 65.6136 35.1338C65.6023 35.1446 65.5982 35.1608 65.5982 35.1835H65.5663C65.5663 35.1608 65.5869 35.1284 65.629 35.0841ZM65.8477 34.3252C65.8271 34.3252 65.8158 34.336 65.8158 34.3586C65.8364 34.336 65.8477 34.3144 65.8477 34.2928C65.8477 34.2712 65.8477 34.282 65.8477 34.3262V34.3252ZM66.1927 40.1302L66.1608 40.1961H66.1927C66.2347 40.1518 66.2347 40.1302 66.1927 40.1302ZM66.1927 35.0183C66.2347 34.974 66.282 34.9243 66.3333 34.8704C66.3847 34.8153 66.4114 34.7656 66.4114 34.7225C66.3693 34.7667 66.3179 34.8153 66.2543 34.8704C66.1916 34.9254 66.1701 34.974 66.1916 35.0183H66.1927ZM66.6947 34.391C66.7153 34.391 66.7368 34.3791 66.7574 34.3576C66.7779 34.3349 66.7676 34.3025 66.7255 34.2582C66.7255 34.3025 66.7204 34.3241 66.7101 34.3241C66.6988 34.3241 66.6947 34.3457 66.6947 34.3899V34.391ZM71.5564 29.7411C71.5985 29.7411 71.6355 29.7195 71.6663 29.6753C71.6971 29.631 71.692 29.6094 71.6509 29.6094C71.6509 29.6321 71.6355 29.6483 71.6036 29.6591C71.5718 29.6699 71.5564 29.698 71.5564 29.7411ZM71.7453 29.6094C71.8285 29.6094 71.9024 29.5544 71.9651 29.4443C71.8603 29.4443 71.7874 29.4993 71.7453 29.6094ZM72.5924 28.6194C72.6345 28.6637 72.655 28.6421 72.655 28.5536C72.655 28.465 72.6448 28.4435 72.6232 28.4877C72.6232 28.5104 72.6181 28.5266 72.6078 28.5374C72.5975 28.5493 72.5924 28.5762 72.5924 28.6194ZM72.6858 28.4219C72.6653 28.4219 72.654 28.4499 72.654 28.5039C72.654 28.5579 72.6643 28.5978 72.6858 28.6194C72.7064 28.5752 72.7331 28.532 72.7639 28.4877C72.7957 28.4435 72.769 28.4219 72.6858 28.4219ZM72.8429 28.3225C72.8429 28.3452 72.8275 28.3668 72.7957 28.3884C72.7639 28.4111 72.769 28.4435 72.8111 28.4877C72.8316 28.4435 72.8532 28.4111 72.8737 28.3884C72.8943 28.3668 72.9056 28.4003 72.9056 28.4877C73.0308 28.4435 73.114 28.3776 73.1561 28.2901C73.1982 28.2027 73.2506 28.1368 73.3132 28.0926V27.9933C73.2506 28.0159 73.1818 28.0753 73.1089 28.1746C73.0349 28.274 72.9466 28.3225 72.8419 28.3225H72.8429ZM73.3758 27.8939C73.3964 27.9166 73.3964 27.9436 73.3758 27.976C73.3543 28.0094 73.3645 28.0256 73.4066 28.0256C73.4487 28.0041 73.4857 28.031 73.5165 28.1077C73.5483 28.1854 73.5637 28.1897 73.5637 28.1239C73.5216 28.1239 73.4898 28.0904 73.4693 28.0246C73.4487 27.9587 73.4169 27.9144 73.3758 27.8928V27.8939ZM74.3482 27.3995C74.3687 27.3995 74.3995 27.3779 74.4416 27.3336C74.4837 27.2893 74.4734 27.257 74.4108 27.2343C74.3482 27.3001 74.3266 27.3552 74.3482 27.3995ZM75.9797 26.2778C75.9797 26.3436 75.9324 26.3825 75.839 26.3933C75.7446 26.4041 75.7076 26.4537 75.7291 26.5412C75.7712 26.4969 75.8329 26.4537 75.917 26.4095C76.0002 26.3652 76.0218 26.322 75.9797 26.2778Z" fill="white"/>
<path d="M6.1903 19.365L0 0H4.3134L8.52514 13.1561H8.61447L12.8272 0H17.0267L10.8364 19.365H6.1903Z" fill="white"/>
<path d="M32.4109 19.365H20.209V0H32.4109V3.34139H24.0634V8.01178H31.9386V11.1254H24.0634V16.0106H32.4109V19.366V19.365Z" fill="white"/>
<path d="M40.3544 19.365H36.5V0H44.0425C48.28 0 50.7052 2.34815 50.7052 6.17321C50.7052 8.65631 49.4802 10.8037 47.361 11.6749L51.2411 19.365H46.8764L43.4429 12.2795H40.3544V19.365ZM40.3544 9.34078H43.6729C45.6124 9.34078 46.7491 8.17372 46.7491 6.25418C46.7491 4.33463 45.5498 3.16757 43.6349 3.16757H40.3544V9.34078Z" fill="white"/>
<path d="M58.9418 19.365V3.34139H53.6201V0H68.1312V3.34139H62.7962V19.365H58.9418Z" fill="white"/>
<path d="M75.4248 12.1186C75.4248 14.6017 76.816 16.2255 79.2915 16.2255C81.767 16.2255 83.1459 14.6017 83.1459 12.1186V0H87.0004V12.5213C87.0004 16.789 84.0012 19.7007 79.2915 19.7007C74.5818 19.7007 71.5703 16.789 71.5703 12.5213V0H75.4248V12.1186Z" fill="white"/>
</g>
<defs>
<clipPath id="clip0_198_1376">
<rect width="87" height="46" fill="white"/>
</clipPath>
</defs>
</svg>
