<svg width="176" height="39" viewBox="0 0 176 39" fill="none" xmlns="http://www.w3.org/2000/svg">
<g clip-path="url(#clip0_198_1347)">
<path d="M171.642 18.0257C171.64 17.618 171.758 17.2188 171.983 16.8787C172.208 16.5386 172.529 16.2729 172.905 16.1153C173.281 15.9576 173.695 15.9151 174.095 15.9932C174.495 16.0712 174.863 16.2663 175.153 16.5536C175.442 16.841 175.639 17.2078 175.72 17.6074C175.8 18.0071 175.76 18.4217 175.605 18.7987C175.45 19.1756 175.186 19.498 174.848 19.725C174.509 19.952 174.11 20.0733 173.703 20.0737C173.432 20.0794 173.162 20.0304 172.91 19.9296C172.659 19.8289 172.43 19.6785 172.237 19.4873C172.045 19.2962 171.893 19.0683 171.791 18.8172C171.689 18.566 171.638 18.2969 171.642 18.0257ZM175.158 18.0257C175.154 17.7379 175.064 17.4578 174.901 17.2206C174.738 16.9834 174.508 16.7998 174.241 16.6927C173.974 16.5857 173.681 16.56 173.399 16.6188C173.117 16.6777 172.859 16.8186 172.657 17.0237C172.455 17.2289 172.319 17.4891 172.264 17.7718C172.209 18.0544 172.24 18.3469 172.351 18.6125C172.462 18.878 172.649 19.1048 172.889 19.2643C173.129 19.4238 173.41 19.5089 173.698 19.5089C173.893 19.5135 174.087 19.4781 174.267 19.4049C174.448 19.3317 174.612 19.2222 174.749 19.0833C174.886 18.9443 174.993 18.7788 175.063 18.5969C175.134 18.415 175.166 18.2206 175.158 18.0257ZM172.886 18.928V17.0797H173.883C174.306 17.0797 174.589 17.3198 174.589 17.6849C174.595 17.8059 174.563 17.9257 174.496 18.0266C174.429 18.1275 174.331 18.204 174.217 18.2448L174.683 18.928H174.044L173.659 18.3243H173.432V18.9215L172.886 18.928ZM173.432 17.9349H173.756C173.919 17.9349 174.019 17.8602 174.019 17.7239C174.019 17.5876 173.93 17.5032 173.764 17.5032H173.44L173.432 17.9349Z" fill="white"/>
<path d="M3.27493 10.0579V2.06254H0.5V0H8.59924V2.06254H5.82593V10.0579H3.27493Z" fill="white"/>
<path d="M16.241 10.0577V6.00083H12.2377V10.0577H9.68018V-0.00341797H12.2377V3.94153H16.241V-0.000174214H18.792V10.061L16.241 10.0577Z" fill="white"/>
<path d="M27.2173 10.0577H20.3237V-0.00341797H27.2173V2.05912H22.8812V4.06H26.9592V5.93916H22.8812V7.98872H27.2173V10.0577Z" fill="white"/>
<path d="M11.6972 15.9761C16.5655 15.9761 19.8532 19.1291 19.8532 23.9909C19.8532 28.8203 16.387 31.9733 11.3515 31.9733H7.64025V38.6072H1.88916V15.9761H11.6972ZM7.64025 27.6454H10.1377C12.5848 27.6454 14.0323 26.3748 14.0323 24.0055C14.0323 21.6363 12.5848 20.3819 10.1701 20.3819H7.64025V27.6454Z" fill="white"/>
<path d="M33.5366 33.635H26.14L24.6973 38.6072H18.8262L26.4337 15.9761H33.4749L41.0808 38.6072H34.9646L33.5366 33.635ZM27.2483 29.4954H32.4087L29.8983 20.7762H29.7734L27.2483 29.4954Z" fill="white"/>
<path d="M43.2451 38.6072V15.9761H47.8392L57.4378 29.1351H57.5628V15.9761H63.0202V38.6072H58.4764L48.8307 25.3232H48.696V38.6072H43.2451Z" fill="white"/>
<path d="M81.9499 38.6072H66.4395V15.9761H81.9499V20.6188H72.1954V25.1204H81.3705V29.3542H72.1954V33.9645H81.9499V38.6072Z" fill="white"/>
<path d="M100.315 38.6072H85.1973V15.9761H90.9532V33.9645H100.315V38.6072Z" fill="white"/>
<path d="M120.844 38.6072V29.4954H111.822V38.6072H106.071V15.9761H111.822V24.8526H120.844V15.9761H126.589V38.6072H120.844Z" fill="white"/>
<path d="M135.774 29.966C135.774 32.6013 137.202 34.1689 139.774 34.1689C142.346 34.1689 143.758 32.6013 143.758 29.966V15.9761H149.513V30.581C149.513 35.6619 145.655 39.0032 139.776 39.0032C133.897 39.0032 130.021 35.6619 130.021 30.581V15.9761H135.774V29.966Z" fill="white"/>
<path d="M152.932 38.6072V15.9761H163.455C167.91 15.9761 170.595 18.1246 170.595 21.6233C170.595 24.1629 168.682 26.1865 166.173 26.5306V26.6571C169.231 26.7983 171.647 29.0718 171.647 32.0837C171.647 36.0513 168.588 38.6072 163.743 38.6072H152.932ZM158.688 25.1983H161.652C163.738 25.1983 164.992 24.21 164.992 22.5791C164.992 20.9953 163.856 20.0541 161.935 20.0541H158.689L158.688 25.1983ZM162.107 34.5292C164.474 34.5292 165.792 33.4939 165.792 31.5806C165.792 29.7307 164.444 28.6953 162.076 28.6953H158.688V34.5292H162.107Z" fill="white"/>
<path d="M107.41 29.4097H100.315V33.9648H107.41V29.4097Z" fill="white"/>
</g>
<defs>
<clipPath id="clip0_198_1347">
<rect width="175.259" height="39" fill="white" transform="translate(0.5)"/>
</clipPath>
</defs>
</svg>
