<svg width="101" height="100" viewBox="0 0 101 100" fill="none" xmlns="http://www.w3.org/2000/svg">
<path d="M72.3544 60.4167C72.7429 60.7922 73.262 61.0021 73.8023 61.0021C74.3426 61.0021 74.8618 60.7922 75.2502 60.4167C75.6382 60.0263 75.856 59.4983 75.856 58.9479C75.856 58.3975 75.6382 57.8695 75.2502 57.4792L72.3127 54.5208C72.1185 54.3266 71.8879 54.1725 71.6341 54.0674C71.3803 53.9622 71.1083 53.9081 70.8336 53.9081C70.5589 53.9081 70.2868 53.9622 70.033 54.0674C69.7792 54.1725 69.5486 54.3266 69.3544 54.5208C69.1601 54.7151 69.0061 54.9457 68.9009 55.1995C68.7958 55.4533 68.7417 55.7253 68.7417 56C68.7417 56.2747 68.7958 56.5467 68.9009 56.8005C69.0061 57.0543 69.1601 57.2849 69.3544 57.4792L72.3544 60.4167Z" fill="url(#paint0_linear_268_972)"/>
<path d="M83.5835 33.3333H79.4168C78.8643 33.3333 78.3344 33.5528 77.9437 33.9435C77.553 34.3342 77.3335 34.8641 77.3335 35.4167C77.3335 35.9692 77.553 36.4991 77.9437 36.8898C78.3344 37.2805 78.8643 37.5 79.4168 37.5H83.5835C84.136 37.5 84.6659 37.2805 85.0566 36.8898C85.4473 36.4991 85.6668 35.9692 85.6668 35.4167C85.6668 34.8641 85.4473 34.3342 85.0566 33.9435C84.6659 33.5528 84.136 33.3333 83.5835 33.3333Z" fill="url(#paint1_linear_268_972)"/>
<path d="M23.1668 35.4167C23.1668 34.8641 22.9473 34.3342 22.5566 33.9435C22.1659 33.5528 21.636 33.3333 21.0835 33.3333H16.9168C16.3643 33.3333 15.8344 33.5528 15.4437 33.9435C15.053 34.3342 14.8335 34.8641 14.8335 35.4167C14.8335 35.9692 15.053 36.4991 15.4437 36.8898C15.8344 37.2805 16.3643 37.5 16.9168 37.5H21.0835C21.636 37.5 22.1659 37.2805 22.5566 36.8898C22.9473 36.4991 23.1668 35.9692 23.1668 35.4167Z" fill="url(#paint2_linear_268_972)"/>
<path d="M26.6874 61.0625C27.234 61.0602 27.7577 60.8432 28.1458 60.4583L31.1041 57.5208C31.2984 57.3266 31.4524 57.096 31.5576 56.8422C31.6627 56.5884 31.7168 56.3164 31.7168 56.0417C31.7168 55.767 31.6627 55.4949 31.5576 55.2411C31.4524 54.9873 31.2984 54.7567 31.1041 54.5625C30.9099 54.3682 30.6793 54.2142 30.4255 54.109C30.1717 54.0039 29.8997 53.9498 29.6249 53.9498C29.3502 53.9498 29.0782 54.0039 28.8244 54.109C28.5706 54.2142 28.34 54.3682 28.1458 54.5625L25.2499 57.5208C24.8744 57.9093 24.6646 58.4285 24.6646 58.9687C24.6646 59.509 24.8744 60.0282 25.2499 60.4167C25.6261 60.8119 26.1422 61.0437 26.6874 61.0625Z" fill="url(#paint3_linear_268_972)"/>
<path d="M64.8335 64.5833H35.6668C35.1143 64.5833 34.5844 64.8028 34.1937 65.1935C33.803 65.5842 33.5835 66.1141 33.5835 66.6667V70.8333H66.9168V66.6667C66.9168 66.1141 66.6973 65.5842 66.3066 65.1935C65.9159 64.8028 65.386 64.5833 64.8335 64.5833Z" fill="url(#paint4_linear_268_972)"/>
<path d="M27.3335 77.0833V81.25H73.1668V77.0833C73.1668 76.5308 72.9473 76.0009 72.5566 75.6102C72.1659 75.2195 71.636 75 71.0835 75H29.4168C28.8643 75 28.3344 75.2195 27.9437 75.6102C27.553 76.0009 27.3335 76.5308 27.3335 77.0833Z" fill="url(#paint5_linear_268_972)"/>
<path d="M77.3335 85.4167H23.1668C22.0162 85.4167 21.0835 86.3494 21.0835 87.5V89.5833C21.0835 90.7339 22.0162 91.6667 23.1668 91.6667H77.3335C78.4841 91.6667 79.4168 90.7339 79.4168 89.5833V87.5C79.4168 86.3494 78.4841 85.4167 77.3335 85.4167Z" fill="url(#paint6_linear_268_972)"/>
<path d="M40.6458 16.9375L36.4375 8.33333H31.8125L37.125 19.2292C38.2184 18.3486 39.398 17.5808 40.6458 16.9375Z" fill="url(#paint7_linear_268_972)"/>
<path d="M48.8127 14.5833L45.7293 8.33333H41.0835L44.521 15.3958C45.9191 14.9754 47.3576 14.703 48.8127 14.5833Z" fill="url(#paint8_linear_268_972)"/>
<path d="M68.6877 8.33333H64.0627L59.896 16.9375C61.1438 17.5808 62.3234 18.3486 63.4168 19.2292L68.6877 8.33333Z" fill="url(#paint9_linear_268_972)"/>
<path d="M59.4167 8.33333H54.7708L51.6875 14.5833C53.1411 14.6894 54.5795 14.9478 55.9792 15.3542L59.4167 8.33333Z" fill="url(#paint10_linear_268_972)"/>
<path d="M33.5835 35.4167C33.5835 38.713 34.561 41.9353 36.3923 44.6762C38.2237 47.417 40.8267 49.5532 43.8721 50.8147C46.9175 52.0761 50.2687 52.4062 53.5017 51.7631C56.7347 51.12 59.7044 49.5327 62.0353 47.2018C64.3662 44.8709 65.9535 41.9012 66.5966 38.6682C67.2397 35.4352 66.9096 32.084 65.6482 29.0386C64.3867 25.9932 62.2505 23.3902 59.5097 21.5588C56.7688 19.7275 53.5465 18.75 50.2502 18.75C45.8299 18.75 41.5907 20.5059 38.465 23.6315C35.3394 26.7572 33.5835 30.9964 33.5835 35.4167ZM46.0835 29.5833L48.3335 22.6458C48.4705 22.229 48.7356 21.8661 49.091 21.6088C49.4464 21.3515 49.8739 21.213 50.3127 21.213C50.7514 21.213 51.179 21.3515 51.5343 21.6088C51.8897 21.8661 52.1548 22.229 52.2918 22.6458L54.4168 29.5833H61.7293C62.1687 29.5837 62.5966 29.7229 62.9521 29.981C63.3076 30.2392 63.5723 30.6031 63.7085 31.0208C63.848 31.43 63.8567 31.8724 63.7335 32.2867C63.6104 32.7011 63.3613 33.0668 63.021 33.3333L57.1043 37.625L59.3752 44.5625C59.5134 44.9879 59.5111 45.4465 59.3685 45.8705C59.2259 46.2944 58.9507 46.6612 58.5835 46.9167C58.2287 47.1726 57.8023 47.3103 57.3647 47.3103C56.9272 47.3103 56.5008 47.1726 56.146 46.9167L50.2502 42.625L44.3335 46.9167C43.9787 47.1726 43.5523 47.3103 43.1147 47.3103C42.6772 47.3103 42.2508 47.1726 41.896 46.9167C41.5367 46.6597 41.2685 46.2952 41.1299 45.8757C40.9914 45.4563 40.9897 45.0037 41.1252 44.5833L43.396 37.6458L37.4793 33.3333C37.1238 33.0736 36.8597 32.7078 36.7249 32.2886C36.5902 31.8694 36.5917 31.4183 36.7293 31C36.8655 30.5823 37.1303 30.2184 37.4857 29.9602C37.8412 29.702 38.2692 29.5628 38.7085 29.5625L46.0835 29.5833Z" fill="url(#paint11_linear_268_972)"/>
<path d="M47.8125 37.5L47.0833 39.7708L49.0208 38.375C49.3776 38.1143 49.8081 37.9738 50.25 37.9738C50.6919 37.9738 51.1224 38.1143 51.4792 38.375L53.4167 39.7708L52.6875 37.5C52.5499 37.0817 52.5483 36.6306 52.6831 36.2114C52.8178 35.7922 53.0819 35.4264 53.4375 35.1667L55.375 33.75H52.9792C52.5398 33.7497 52.1119 33.6105 51.7564 33.3523C51.4009 33.0941 51.1362 32.7302 51 32.3125L50.25 30.0208L49.5 32.3125C49.3638 32.7302 49.0991 33.0941 48.7436 33.3523C48.3881 33.6105 47.9602 33.7497 47.5208 33.75H45.125L47.0625 35.1667C47.4181 35.4264 47.6822 35.7922 47.8169 36.2114C47.9517 36.6306 47.9501 37.0817 47.8125 37.5Z" fill="url(#paint12_linear_268_972)"/>
<defs>
<linearGradient id="paint0_linear_268_972" x1="75.856" y1="57.4333" x2="68.7417" y2="57.4333" gradientUnits="userSpaceOnUse">
<stop stop-color="#59D5E0"/>
<stop offset="1" stop-color="#4CB9E7"/>
</linearGradient>
<linearGradient id="paint1_linear_268_972" x1="85.6668" y1="35.4039" x2="77.3335" y2="35.4039" gradientUnits="userSpaceOnUse">
<stop stop-color="#59D5E0"/>
<stop offset="1" stop-color="#4CB9E7"/>
</linearGradient>
<linearGradient id="paint2_linear_268_972" x1="23.1668" y1="35.4039" x2="14.8335" y2="35.4039" gradientUnits="userSpaceOnUse">
<stop stop-color="#59D5E0"/>
<stop offset="1" stop-color="#4CB9E7"/>
</linearGradient>
<linearGradient id="paint3_linear_268_972" x1="31.7168" y1="57.4843" x2="24.6646" y2="57.4843" gradientUnits="userSpaceOnUse">
<stop stop-color="#59D5E0"/>
<stop offset="1" stop-color="#4CB9E7"/>
</linearGradient>
<linearGradient id="paint4_linear_268_972" x1="66.9168" y1="67.6892" x2="33.5835" y2="67.6892" gradientUnits="userSpaceOnUse">
<stop stop-color="#59D5E0"/>
<stop offset="1" stop-color="#4CB9E7"/>
</linearGradient>
<linearGradient id="paint5_linear_268_972" x1="73.1668" y1="78.1058" x2="27.3335" y2="78.1058" gradientUnits="userSpaceOnUse">
<stop stop-color="#59D5E0"/>
<stop offset="1" stop-color="#4CB9E7"/>
</linearGradient>
<linearGradient id="paint6_linear_268_972" x1="79.4168" y1="88.5225" x2="21.0835" y2="88.5225" gradientUnits="userSpaceOnUse">
<stop stop-color="#59D5E0"/>
<stop offset="1" stop-color="#4CB9E7"/>
</linearGradient>
<linearGradient id="paint7_linear_268_972" x1="40.6458" y1="13.7478" x2="31.8125" y2="13.7478" gradientUnits="userSpaceOnUse">
<stop stop-color="#59D5E0"/>
<stop offset="1" stop-color="#4CB9E7"/>
</linearGradient>
<linearGradient id="paint8_linear_268_972" x1="48.8127" y1="11.8429" x2="41.0835" y2="11.8429" gradientUnits="userSpaceOnUse">
<stop stop-color="#59D5E0"/>
<stop offset="1" stop-color="#4CB9E7"/>
</linearGradient>
<linearGradient id="paint9_linear_268_972" x1="68.6877" y1="13.7478" x2="59.896" y2="13.7478" gradientUnits="userSpaceOnUse">
<stop stop-color="#59D5E0"/>
<stop offset="1" stop-color="#4CB9E7"/>
</linearGradient>
<linearGradient id="paint10_linear_268_972" x1="59.4167" y1="11.8222" x2="51.6875" y2="11.8222" gradientUnits="userSpaceOnUse">
<stop stop-color="#59D5E0"/>
<stop offset="1" stop-color="#4CB9E7"/>
</linearGradient>
<linearGradient id="paint11_linear_268_972" x1="66.9168" y1="35.3144" x2="33.5835" y2="35.3144" gradientUnits="userSpaceOnUse">
<stop stop-color="#59D5E0"/>
<stop offset="1" stop-color="#4CB9E7"/>
</linearGradient>
<linearGradient id="paint12_linear_268_972" x1="55.375" y1="34.8659" x2="45.125" y2="34.8659" gradientUnits="userSpaceOnUse">
<stop stop-color="#59D5E0"/>
<stop offset="1" stop-color="#4CB9E7"/>
</linearGradient>
</defs>
</svg>
