<svg width="101" height="100" viewBox="0 0 101 100" fill="none" xmlns="http://www.w3.org/2000/svg">
<g clip-path="url(#clip0_268_923)">
<path d="M69.7705 35.3152H65.3342C65.0633 34.4554 64.7188 33.623 64.303 32.8244L67.4397 29.6874C67.8317 29.2955 68.0475 28.7742 68.0475 28.2197C68.0475 27.665 67.8317 27.1437 67.4397 26.7517L63.7481 23.0599C62.9387 22.2511 61.6219 22.2507 60.8123 23.0601L57.6754 26.197C56.8768 25.7812 56.0442 25.4365 55.1846 25.1658V20.7293C55.1844 19.5847 54.2532 18.6533 53.1084 18.6533H47.8876C46.743 18.6533 45.8118 19.5845 45.8118 20.7293V25.1658C44.952 25.4367 44.1196 25.7812 43.3208 26.197L40.1837 23.0599C39.3743 22.2509 38.0575 22.2511 37.2481 23.0601L33.5567 26.7515C33.1645 27.1435 32.9485 27.6648 32.9485 28.2195C32.9485 28.774 33.1645 29.2953 33.5565 29.6873L36.6934 32.8242C36.2776 33.6228 35.9329 34.4554 35.6622 35.315H31.2257C30.0811 35.315 29.1499 36.2462 29.1499 37.3909V42.6118C29.1499 43.7564 30.0811 44.6876 31.2257 44.6876H35.6622C35.9331 45.5472 36.2776 46.38 36.6934 47.1784L33.5565 50.3153C32.7472 51.1247 32.7472 52.4417 33.5565 53.2511L37.2481 56.9427C38.0575 57.7522 39.3747 57.752 40.1839 56.9427L43.3208 53.8058C44.1194 54.2216 44.9522 54.5663 45.8118 54.837V59.2735C45.8118 60.418 46.743 61.3493 47.8876 61.3493H53.1084C54.253 61.3493 55.1844 60.418 55.1844 59.2735V54.837C56.0438 54.5663 56.8766 54.2216 57.6752 53.8058L60.8121 56.9427C61.6217 57.7522 62.9387 57.752 63.7481 56.9427L67.4395 53.2511C67.8315 52.8591 68.0473 52.3378 68.0473 51.7833C68.0473 51.2288 67.8315 50.7075 67.4395 50.3153L64.3026 47.1784C64.7184 46.3798 65.0631 45.5472 65.3338 44.6876H69.7703C70.9149 44.6876 71.8463 43.7564 71.8463 42.6118V37.3909C71.8465 36.2464 70.9151 35.3152 69.7705 35.3152ZM68.917 41.7579H64.218C63.5375 41.7579 62.9467 42.2265 62.7916 42.8892C62.4793 44.2241 61.9551 45.4904 61.2334 46.6523C60.8743 47.2304 60.9608 47.9796 61.4418 48.461L64.7643 51.7835L62.2803 54.2675L58.9579 50.945C58.4766 50.4638 57.7274 50.3771 57.1489 50.7364C55.9868 51.4581 54.7206 51.9823 53.386 52.2948C52.7233 52.4497 52.2547 53.0405 52.2547 53.7212V58.4204H48.7421V53.7212C48.7421 53.0407 48.2735 52.4499 47.6108 52.2948C46.2762 51.9827 45.01 51.4585 43.8477 50.7364C43.2698 50.3778 42.5204 50.4638 42.0389 50.945L38.7165 54.2675L36.2325 51.7835L39.555 48.461C40.0362 47.9798 40.1225 47.2306 39.7636 46.6523C39.0419 45.4902 38.5177 44.2239 38.2054 42.8892C38.0505 42.2265 37.4595 41.7579 36.779 41.7579H32.08V38.2452H36.779C37.4595 38.2452 38.0503 37.7767 38.2054 37.114C38.5177 35.7792 39.0419 34.513 39.7636 33.3509C40.1225 32.7728 40.0362 32.0236 39.555 31.5421L36.2325 28.2197L38.7165 25.7357L42.0389 29.0582C42.5198 29.5394 43.2694 29.6259 43.8477 29.2667C45.0096 28.5451 46.2758 28.0209 47.6108 27.7085C48.2735 27.5537 48.7421 26.9628 48.7421 26.2822V21.583H52.2547V26.2822C52.2547 26.9627 52.7233 27.5535 53.386 27.7085C54.7208 28.0209 55.9868 28.5451 57.1491 29.2667C57.7268 29.6255 58.4764 29.539 58.9579 29.0582L62.2803 25.7357L64.7643 28.2197L61.4418 31.5421C60.9606 32.0234 60.8743 32.7726 61.2334 33.3509C61.9549 34.5126 62.4791 35.7788 62.7916 37.114C62.9467 37.7767 63.5373 38.2452 64.218 38.2452H68.917V41.7579Z" fill="url(#paint0_linear_268_923)"/>
<path d="M50.4985 32.1539C46.1712 32.1539 42.6509 35.6744 42.6509 40.0015C42.6509 44.3287 46.1714 47.8492 50.4985 47.8492C54.8257 47.8492 58.3462 44.3287 58.3462 40.0015C58.3462 35.6744 54.8259 32.1539 50.4985 32.1539ZM50.4985 44.9195C47.7868 44.9195 45.5806 42.7132 45.5806 40.0015C45.5806 37.2898 47.7868 35.0836 50.4985 35.0836C53.2102 35.0836 55.4165 37.2898 55.4165 40.0015C55.4165 42.7132 53.2102 44.9195 50.4985 44.9195Z" fill="url(#paint1_linear_268_923)"/>
<path d="M16.8222 38.5367H11.9624C11.1534 38.5367 10.4976 39.1925 10.4976 40.0015C10.4976 40.8105 11.1534 41.4663 11.9624 41.4663H16.8222C17.6311 41.4663 18.287 40.8105 18.287 40.0015C18.287 39.1925 17.6311 38.5367 16.8222 38.5367Z" fill="url(#paint2_linear_268_923)"/>
<path d="M89.035 38.5367H84.1753C83.3661 38.5367 82.7104 39.1925 82.7104 40.0015C82.7104 40.8105 83.3661 41.4663 84.1753 41.4663H89.035C89.8442 41.4663 90.4999 40.8105 90.4999 40.0015C90.4999 39.1925 89.844 38.5367 89.035 38.5367Z" fill="url(#paint3_linear_268_923)"/>
<path d="M27.7222 62.779C27.1503 62.2069 26.2228 62.2069 25.6505 62.779L22.2142 66.2153C21.6421 66.7874 21.6421 67.7149 22.2142 68.287C22.7863 68.8591 23.7138 68.8591 24.2859 68.287L27.7222 64.8507C28.2943 64.2786 28.2943 63.3511 27.7222 62.779Z" fill="url(#paint4_linear_268_923)"/>
<path d="M78.7844 11.7164C78.2121 11.1443 77.2848 11.1443 76.7125 11.7164L73.2762 15.1527C72.7042 15.7248 72.7042 16.6523 73.2762 17.2244C73.8485 17.7965 74.7758 17.7963 75.3481 17.2244L78.7844 13.7881C79.3565 13.2158 79.3565 12.2883 78.7844 11.7164Z" fill="url(#paint5_linear_268_923)"/>
<path d="M50.5 0C49.6908 0 49.0352 0.655858 49.0352 1.46484V6.3246C49.0352 7.13358 49.6908 7.78944 50.5 7.78944C51.3092 7.78944 51.9648 7.13358 51.9648 6.3246V1.46484C51.9648 0.655858 51.3092 0 50.5 0Z" fill="url(#paint6_linear_268_923)"/>
<path d="M78.7844 66.2153L75.3481 62.779C74.7758 62.2069 73.8485 62.2069 73.2762 62.779C72.7042 63.3511 72.7042 64.2788 73.2762 64.8507L76.7125 68.287C77.2848 68.8591 78.2121 68.8591 78.7844 68.287C79.3565 67.7149 79.3565 66.7874 78.7844 66.2153Z" fill="url(#paint7_linear_268_923)"/>
<path d="M27.7222 15.1527L24.2859 11.7164C23.7138 11.1443 22.7863 11.1443 22.2142 11.7164C21.6421 12.2885 21.6421 13.216 22.2142 13.7881L25.6505 17.2244C26.2226 17.7965 27.1501 17.7965 27.7222 17.2244C28.2943 16.6521 28.2943 15.7246 27.7222 15.1527Z" fill="url(#paint8_linear_268_923)"/>
<path d="M79.7245 36.413C78.1482 22.9609 67.4847 12.2965 54.0957 10.6644C53.2939 10.5658 52.5621 11.1383 52.464 11.9412C52.3662 12.7443 52.9379 13.4748 53.741 13.5728C65.9005 15.0549 75.3888 24.5875 76.8144 36.754C76.9017 37.4995 77.5347 38.0484 78.2673 38.0484C78.3243 38.0484 78.3818 38.045 78.4398 38.0384C79.2437 37.9445 79.8187 37.2167 79.7245 36.413Z" fill="url(#paint9_linear_268_923)"/>
<path d="M78.4232 41.9663C77.6193 41.864 76.8875 42.4329 76.7859 43.2357C75.7873 51.1239 71.335 58.0843 64.5705 62.3313C61.6543 64.1624 59.9135 67.296 59.9135 70.7135V76.7422H41.0887V70.5801C41.0887 67.2708 39.3592 64.1442 36.5755 62.421C28.7032 57.5479 24.0032 49.1189 24.003 39.873C24.003 26.523 34.0026 15.2172 47.2629 13.5746C48.0659 13.4752 48.636 12.7435 48.5366 11.9406C48.4372 11.1379 47.7059 10.5662 46.9026 10.667C32.2512 12.482 21.0726 25.0816 21.0728 39.873C21.0728 44.9771 22.4003 50.006 24.9122 54.4161C27.3472 58.6915 30.847 62.3208 35.0329 64.912C36.9608 66.1054 38.1583 68.2772 38.1583 70.58V76.9555C36.6688 77.4731 35.5948 78.8876 35.5948 80.551V82.6393C35.5948 83.5235 35.9003 84.3362 36.4075 84.9832C35.9001 85.6303 35.5948 86.4428 35.5948 87.3272V89.4153C35.5948 91.5155 37.3036 93.2241 39.4036 93.2241H44.009V96.5356C44.009 98.4459 45.5631 100 47.4733 100H53.5274C55.4377 100 56.9916 98.4459 56.9916 96.5356V93.2241H61.5971C63.6973 93.2241 65.4059 91.5153 65.4059 89.4153V87.3272C65.4059 86.443 65.1004 85.6303 64.593 84.9832C65.1004 84.3362 65.4059 83.5237 65.4059 82.6393V80.551C65.4059 78.8874 64.332 77.4731 62.8424 76.9555V70.7134C62.8424 68.31 64.0703 66.1042 66.1276 64.8126C73.6381 60.097 78.5822 52.3665 79.6914 43.6036C79.7939 42.8009 79.2258 42.0679 78.4232 41.9663ZM54.0623 96.5354C54.0623 96.825 53.8176 97.0699 53.528 97.0699H47.4739C47.1842 97.0699 46.9395 96.8252 46.9395 96.5354V93.2239H54.0623V96.5354ZM62.4768 89.4151C62.4768 89.8914 62.0742 90.294 61.5979 90.294C59.0119 90.294 41.8444 90.294 39.4042 90.294C38.9278 90.294 38.5253 89.8914 38.5253 89.4151V87.327C38.5253 86.8506 38.9278 86.4481 39.4042 86.4481H61.5979C62.0742 86.4481 62.4768 86.8506 62.4768 87.327V89.4151ZM62.4768 82.6391C62.4768 83.1155 62.0742 83.518 61.5979 83.518H39.4042C38.9278 83.518 38.5253 83.1155 38.5253 82.6391V80.5508C38.5253 80.0745 38.9278 79.6719 39.4042 79.6719H61.5979C62.0742 79.6719 62.4768 80.0745 62.4768 80.5508V82.6391Z" fill="url(#paint10_linear_268_923)"/>
</g>
<defs>
<linearGradient id="paint0_linear_268_923" x1="71.8463" y1="39.8703" x2="29.1499" y2="39.8703" gradientUnits="userSpaceOnUse">
<stop stop-color="#59D5E0"/>
<stop offset="1" stop-color="#4CB9E7"/>
</linearGradient>
<linearGradient id="paint1_linear_268_923" x1="58.3462" y1="39.9534" x2="42.6509" y2="39.9534" gradientUnits="userSpaceOnUse">
<stop stop-color="#59D5E0"/>
<stop offset="1" stop-color="#4CB9E7"/>
</linearGradient>
<linearGradient id="paint2_linear_268_923" x1="18.287" y1="39.9925" x2="10.4976" y2="39.9925" gradientUnits="userSpaceOnUse">
<stop stop-color="#59D5E0"/>
<stop offset="1" stop-color="#4CB9E7"/>
</linearGradient>
<linearGradient id="paint3_linear_268_923" x1="90.4999" y1="39.9925" x2="82.7104" y2="39.9925" gradientUnits="userSpaceOnUse">
<stop stop-color="#59D5E0"/>
<stop offset="1" stop-color="#4CB9E7"/>
</linearGradient>
<linearGradient id="paint4_linear_268_923" x1="28.1513" y1="65.5135" x2="21.7852" y2="65.5135" gradientUnits="userSpaceOnUse">
<stop stop-color="#59D5E0"/>
<stop offset="1" stop-color="#4CB9E7"/>
</linearGradient>
<linearGradient id="paint5_linear_268_923" x1="79.2135" y1="14.4508" x2="72.8472" y2="14.4508" gradientUnits="userSpaceOnUse">
<stop stop-color="#59D5E0"/>
<stop offset="1" stop-color="#4CB9E7"/>
</linearGradient>
<linearGradient id="paint6_linear_268_923" x1="51.9648" y1="3.87083" x2="49.0352" y2="3.87083" gradientUnits="userSpaceOnUse">
<stop stop-color="#59D5E0"/>
<stop offset="1" stop-color="#4CB9E7"/>
</linearGradient>
<linearGradient id="paint7_linear_268_923" x1="79.2135" y1="65.5135" x2="72.8472" y2="65.5135" gradientUnits="userSpaceOnUse">
<stop stop-color="#59D5E0"/>
<stop offset="1" stop-color="#4CB9E7"/>
</linearGradient>
<linearGradient id="paint8_linear_268_923" x1="28.1513" y1="14.4509" x2="21.7852" y2="14.4509" gradientUnits="userSpaceOnUse">
<stop stop-color="#59D5E0"/>
<stop offset="1" stop-color="#4CB9E7"/>
</linearGradient>
<linearGradient id="paint9_linear_268_923" x1="79.7346" y1="24.2668" x2="52.4531" y2="24.2668" gradientUnits="userSpaceOnUse">
<stop stop-color="#59D5E0"/>
<stop offset="1" stop-color="#4CB9E7"/>
</linearGradient>
<linearGradient id="paint10_linear_268_923" x1="79.7034" y1="55.0537" x2="21.0728" y2="55.0537" gradientUnits="userSpaceOnUse">
<stop stop-color="#59D5E0"/>
<stop offset="1" stop-color="#4CB9E7"/>
</linearGradient>
<clipPath id="clip0_268_923">
<rect width="100" height="100" fill="white" transform="translate(0.5)"/>
</clipPath>
</defs>
</svg>
