<svg width="101" height="100" viewBox="0 0 101 100" fill="none" xmlns="http://www.w3.org/2000/svg">
<path d="M36.4999 24.7708C36.1095 24.7716 35.7267 24.6627 35.3951 24.4564C35.0636 24.2501 34.7967 23.9548 34.6249 23.6042L26.6041 7.16667C26.4483 6.84873 26.3761 6.49634 26.3944 6.14276C26.4126 5.78917 26.5206 5.44607 26.7083 5.14583C26.8959 4.8456 27.157 4.59814 27.4668 4.42681C27.7767 4.25549 28.1251 4.16596 28.4791 4.16667H47.0208C47.4112 4.16589 47.7941 4.27485 48.1256 4.48113C48.4571 4.68741 48.724 4.9827 48.8958 5.33333L54.0416 15.8542C54.162 16.1004 54.2327 16.3679 54.2497 16.6415C54.2667 16.915 54.2296 17.1892 54.1406 17.4485C54.0516 17.7077 53.9124 17.9469 53.731 18.1523C53.5496 18.3578 53.3295 18.5255 53.0833 18.6458C52.837 18.7662 52.5695 18.8369 52.296 18.8539C52.0224 18.8709 51.7482 18.8338 51.489 18.7448C51.2297 18.6559 50.9906 18.5167 50.7851 18.3353C50.5797 18.1538 50.412 17.9337 50.2916 17.6875L45.7291 8.33333H31.8124L38.3749 21.7708C38.4958 22.017 38.5669 22.2846 38.5842 22.5582C38.6014 22.8319 38.5645 23.1063 38.4754 23.3657C38.3864 23.625 38.247 23.8642 38.0653 24.0696C37.8836 24.275 37.6632 24.4425 37.4166 24.5625C37.1309 24.7009 36.8174 24.7721 36.4999 24.7708Z" fill="url(#paint0_linear_342_1824)"/>
<path d="M43.4584 20.0417C43.068 20.0424 42.6852 19.9335 42.3536 19.7272C42.0221 19.5209 41.7552 19.2256 41.5834 18.875L35.8751 7.16667C35.7193 6.84873 35.6471 6.49634 35.6654 6.14275C35.6836 5.78917 35.7916 5.44607 35.9793 5.14583C36.1669 4.8456 36.428 4.59814 36.7378 4.42681C37.0477 4.25549 37.3961 4.16596 37.7501 4.16667H47.0209C47.4114 4.16589 47.7942 4.27485 48.1257 4.48113C48.4573 4.68741 48.7241 4.9827 48.8959 5.33333L54.0418 15.8542C54.1621 16.1004 54.2328 16.3679 54.2498 16.6415C54.2668 16.915 54.2298 17.1892 54.1408 17.4485C54.0518 17.7077 53.9126 17.9469 53.7312 18.1523C53.5498 18.3578 53.3297 18.5255 53.0834 18.6458C52.8372 18.7662 52.5697 18.8369 52.2961 18.8539C52.0226 18.8709 51.7484 18.8338 51.4891 18.7448C51.2299 18.6559 50.9907 18.5167 50.7853 18.3353C50.5798 18.1538 50.4121 17.9337 50.2918 17.6875L45.7293 8.33333H41.0834L45.2501 17.0417C45.371 17.2878 45.4421 17.5554 45.4593 17.8291C45.4766 18.1027 45.4396 18.3771 45.3506 18.6365C45.2615 18.8958 45.1222 19.1351 44.9405 19.3405C44.7588 19.5458 44.5383 19.7133 44.2918 19.8333C44.0315 19.9599 43.7477 20.0309 43.4584 20.0417Z" fill="url(#paint1_linear_342_1824)"/>
<path d="M64.0002 24.7708C63.6827 24.7721 63.3692 24.7009 63.0835 24.5625C62.8369 24.4425 62.6165 24.275 62.4348 24.0696C62.2531 23.8642 62.1137 23.625 62.0247 23.3657C61.9357 23.1063 61.8987 22.8319 61.9159 22.5582C61.9332 22.2846 62.0043 22.017 62.1252 21.7708L68.6877 8.33333H54.771L50.2502 17.6875C50.0071 18.1848 49.5763 18.5651 49.0528 18.7448C48.5293 18.9246 47.9558 18.889 47.4585 18.6458C46.9612 18.4027 46.5809 17.972 46.4012 17.4485C46.2214 16.9249 46.2571 16.3514 46.5002 15.8542L51.646 5.33333C51.8178 4.9827 52.0847 4.68741 52.4162 4.48113C52.7477 4.27485 53.1305 4.16589 53.521 4.16667H72.0627C72.4167 4.16596 72.7651 4.25549 73.0749 4.42681C73.3848 4.59814 73.6459 4.8456 73.8335 5.14583C74.0211 5.44607 74.1292 5.78917 74.1474 6.14276C74.1656 6.49634 74.0934 6.84873 73.9377 7.16667L65.8752 23.6042C65.7034 23.9548 65.4365 24.2501 65.105 24.4564C64.7734 24.6627 64.3906 24.7716 64.0002 24.7708Z" fill="url(#paint2_linear_342_1824)"/>
<path d="M57.0418 20.0417C56.7244 20.043 56.4109 19.9717 56.1252 19.8333C55.8786 19.7133 55.6581 19.5458 55.4764 19.3405C55.2947 19.1351 55.1554 18.8958 55.0664 18.6365C54.9773 18.3771 54.9404 18.1027 54.9576 17.8291C54.9748 17.5554 55.046 17.2878 55.1668 17.0417L59.4168 8.33333H54.771L50.2502 17.6875C50.0071 18.1848 49.5763 18.5651 49.0528 18.7448C48.5293 18.9246 47.9558 18.889 47.4585 18.6458C46.9612 18.4027 46.5809 17.972 46.4012 17.4485C46.2214 16.9249 46.2571 16.3514 46.5002 15.8542L51.646 5.33333C51.8178 4.9827 52.0847 4.68741 52.4162 4.48113C52.7477 4.27485 53.1305 4.16589 53.521 4.16667H62.7502C63.1042 4.16596 63.4526 4.25549 63.7624 4.42681C64.0723 4.59814 64.3334 4.8456 64.521 5.14583C64.7087 5.44607 64.8167 5.78917 64.8349 6.14276C64.8531 6.49634 64.7809 6.84873 64.6252 7.16667L58.9168 18.875C58.745 19.2256 58.4782 19.5209 58.1466 19.7272C57.8151 19.9335 57.4323 20.0425 57.0418 20.0417Z" fill="url(#paint3_linear_342_1824)"/>
<path d="M57.3752 47.3125C56.941 47.3097 56.5185 47.1713 56.1669 46.9167L50.2502 42.625L44.3335 46.9167C43.9787 47.1726 43.5523 47.3103 43.1148 47.3103C42.6773 47.3103 42.2509 47.1726 41.896 46.9167C41.5368 46.6597 41.2685 46.2952 41.13 45.8758C40.9914 45.4563 40.9897 45.0038 41.1252 44.5833L43.396 37.6458L37.4794 33.3333C37.1238 33.0736 36.8597 32.7078 36.7249 32.2886C36.5902 31.8694 36.5917 31.4183 36.7294 31C36.8655 30.5823 37.1303 30.2184 37.4858 29.9602C37.8412 29.702 38.2692 29.5628 38.7085 29.5625H46.0835L48.3335 22.625C48.4705 22.2082 48.7356 21.8453 49.091 21.588C49.4464 21.3307 49.8739 21.1922 50.3127 21.1922C50.7514 21.1922 51.179 21.3307 51.5344 21.588C51.8898 21.8453 52.1549 22.2082 52.2919 22.625L54.4169 29.5833H61.7294C62.1687 29.5837 62.5967 29.7229 62.9521 29.981C63.3076 30.2392 63.5723 30.6032 63.7085 31.0208C63.848 31.43 63.8568 31.8724 63.7336 32.2867C63.6104 32.7011 63.3614 33.0668 63.021 33.3333L57.1044 37.625L59.3752 44.5625C59.5134 44.9879 59.5111 45.4465 59.3685 45.8705C59.226 46.2944 58.9507 46.6612 58.5835 46.9167C58.2318 47.1713 57.8094 47.3097 57.3752 47.3125ZM50.2502 37.9583C50.6938 37.9628 51.1245 38.1088 51.4794 38.375L53.4169 39.7708L52.6877 37.5C52.5501 37.0817 52.5485 36.6306 52.6833 36.2114C52.818 35.7922 53.0821 35.4264 53.4377 35.1667L55.3752 33.75H52.9794C52.54 33.7497 52.1121 33.6105 51.7566 33.3523C51.4011 33.0941 51.1364 32.7302 51.0002 32.3125L50.2502 30.0208L49.5002 32.3125C49.364 32.7302 49.0993 33.0941 48.7438 33.3523C48.3883 33.6105 47.9604 33.7497 47.521 33.75H45.1252L47.0627 35.1667C47.4183 35.4264 47.6824 35.7922 47.8171 36.2114C47.9519 36.6306 47.9503 37.0817 47.8127 37.5L47.0835 39.7708L49.021 38.375C49.3759 38.1088 49.8066 37.9628 50.2502 37.9583Z" fill="url(#paint4_linear_342_1824)"/>
<path d="M73.8126 61.0625C73.266 61.0602 72.7423 60.8432 72.3542 60.4583L69.3959 57.5208C69.2016 57.3266 69.0476 57.096 68.9424 56.8422C68.8373 56.5884 68.7832 56.3164 68.7832 56.0417C68.7832 55.767 68.8373 55.4949 68.9424 55.2411C69.0476 54.9873 69.2016 54.7567 69.3959 54.5625C69.5901 54.3683 69.8207 54.2142 70.0745 54.109C70.3283 54.0039 70.6004 53.9498 70.8751 53.9498C71.1498 53.9498 71.4218 54.0039 71.6756 54.109C71.9294 54.2142 72.16 54.3683 72.3542 54.5625L75.2501 57.5208C75.6256 57.9093 75.8355 58.4285 75.8355 58.9687C75.8355 59.509 75.6256 60.0282 75.2501 60.4167C74.8739 60.8119 74.3578 61.0437 73.8126 61.0625Z" fill="url(#paint5_linear_342_1824)"/>
<path d="M83.5835 37.5H79.4168C78.8643 37.5 78.3344 37.2805 77.9437 36.8898C77.553 36.4991 77.3335 35.9692 77.3335 35.4167C77.3335 34.8641 77.553 34.3342 77.9437 33.9435C78.3344 33.5528 78.8643 33.3333 79.4168 33.3333H83.5835C84.136 33.3333 84.6659 33.5528 85.0566 33.9435C85.4473 34.3342 85.6668 34.8641 85.6668 35.4167C85.6668 35.9692 85.4473 36.4991 85.0566 36.8898C84.6659 37.2805 84.136 37.5 83.5835 37.5Z" fill="url(#paint6_linear_342_1824)"/>
<path d="M21.0835 37.5H16.9168C16.3643 37.5 15.8344 37.2805 15.4437 36.8898C15.053 36.4991 14.8335 35.9692 14.8335 35.4167C14.8335 34.8641 15.053 34.3342 15.4437 33.9435C15.8344 33.5528 16.3643 33.3333 16.9168 33.3333H21.0835C21.636 33.3333 22.1659 33.5528 22.5566 33.9435C22.9473 34.3342 23.1668 34.8641 23.1668 35.4167C23.1668 35.9692 22.9473 36.4991 22.5566 36.8898C22.1659 37.2805 21.636 37.5 21.0835 37.5Z" fill="url(#paint7_linear_342_1824)"/>
<path d="M26.6878 61.0625C26.1426 61.0437 25.6265 60.8119 25.2503 60.4167C24.8623 60.0263 24.6445 59.4983 24.6445 58.9479C24.6445 58.3975 24.8623 57.8695 25.2503 57.4792L28.1878 54.5208C28.3821 54.3266 28.6127 54.1725 28.8665 54.0674C29.1203 53.9623 29.3923 53.9081 29.667 53.9081C29.9417 53.9081 30.2137 53.9623 30.4675 54.0674C30.7213 54.1725 30.9519 54.3266 31.1462 54.5208C31.3404 54.7151 31.4945 54.9457 31.5996 55.1995C31.7048 55.4533 31.7589 55.7253 31.7589 56C31.7589 56.2747 31.7048 56.5467 31.5996 56.8005C31.4945 57.0543 31.3404 57.2849 31.1462 57.4792L28.1462 60.4167C27.9574 60.6148 27.7315 60.7739 27.4813 60.8847C27.231 60.9955 26.9614 61.0559 26.6878 61.0625Z" fill="url(#paint8_linear_342_1824)"/>
<path fill-rule="evenodd" clip-rule="evenodd" d="M22.8056 84.8031C21.4801 84.8031 20.4056 85.8776 20.4056 87.2031V89.75C20.4056 91.0755 21.4801 92.15 22.8056 92.15H77.3056C78.6311 92.15 79.7056 91.0755 79.7056 89.75V87.2031C79.7056 85.8776 78.6311 84.8031 77.3056 84.8031H53.2509C52.3672 84.8031 51.6509 84.0868 51.6509 83.2031C51.6509 82.3195 52.3672 81.6031 53.2509 81.6031H77.3056C80.3984 81.6031 82.9056 84.1103 82.9056 87.2031V89.75C82.9056 92.8428 80.3984 95.35 77.3056 95.35H22.8056C19.7128 95.35 17.2056 92.8428 17.2056 89.75V87.2031C17.2056 84.1103 19.7128 81.6031 22.8056 81.6031H45.5597C46.4433 81.6031 47.1597 82.3195 47.1597 83.2031C47.1597 84.0868 46.4433 84.8031 45.5597 84.8031H22.8056Z" fill="url(#paint9_linear_342_1824)"/>
<path fill-rule="evenodd" clip-rule="evenodd" d="M23.6509 77C23.6509 73.9072 26.1581 71.4 29.2509 71.4H71.2509C74.3437 71.4 76.8509 73.9072 76.8509 77V82.5455C76.8509 83.4291 76.1345 84.1455 75.2509 84.1455C74.3672 84.1455 73.6509 83.4291 73.6509 82.5455V77C73.6509 75.6745 72.5764 74.6 71.2509 74.6H29.2509C27.9254 74.6 26.8509 75.6745 26.8509 77V83C26.8509 83.8837 26.1345 84.6 25.2509 84.6C24.3672 84.6 23.6509 83.8837 23.6509 83V77Z" fill="url(#paint10_linear_342_1824)"/>
<path fill-rule="evenodd" clip-rule="evenodd" d="M29.6509 67C29.6509 63.9072 32.1581 61.4 35.2509 61.4H65.2509C68.3437 61.4 70.8509 63.9072 70.8509 67V72.5455C70.8509 73.4291 70.1345 74.1455 69.2509 74.1455C68.3672 74.1455 67.6509 73.4291 67.6509 72.5455V67C67.6509 65.6745 66.5764 64.6 65.2509 64.6H35.2509C33.9254 64.6 32.8509 65.6745 32.8509 67V73C32.8509 73.8837 32.1345 74.6 31.2509 74.6C30.3672 74.6 29.6509 73.8837 29.6509 73V67Z" fill="url(#paint11_linear_342_1824)"/>
<path fill-rule="evenodd" clip-rule="evenodd" d="M49.7509 19.6C40.9696 19.6 33.8509 26.7187 33.8509 35.5C33.8509 39.1918 35.1071 42.5856 37.2164 45.2838C37.7607 45.98 37.6375 46.9855 36.9414 47.5298C36.2452 48.074 35.2396 47.9508 34.6954 47.2547C32.1618 44.0138 30.6509 39.9311 30.6509 35.5C30.6509 24.9514 39.2022 16.4 49.7509 16.4C60.2995 16.4 68.8509 24.9514 68.8509 35.5C68.8509 46.0486 60.2995 54.6 49.7509 54.6C46.5739 54.6 43.5737 53.8231 40.9345 52.4475C40.1508 52.0391 39.8467 51.0728 40.2551 50.2892C40.6635 49.5056 41.6298 49.2014 42.4135 49.6098C44.6069 50.753 47.101 51.4 49.7509 51.4C58.5322 51.4 65.6509 44.2813 65.6509 35.5C65.6509 26.7187 58.5322 19.6 49.7509 19.6Z" fill="url(#paint12_linear_342_1824)"/>
<defs>
<linearGradient id="paint0_linear_342_1824" x1="54.2537" y1="14.4056" x2="26.3916" y2="14.4056" gradientUnits="userSpaceOnUse">
<stop stop-color="#59D5E0"/>
<stop offset="1" stop-color="#4CB9E7"/>
</linearGradient>
<linearGradient id="paint1_linear_342_1824" x1="54.2539" y1="12.0555" x2="35.6626" y2="12.0555" gradientUnits="userSpaceOnUse">
<stop stop-color="#59D5E0"/>
<stop offset="1" stop-color="#4CB9E7"/>
</linearGradient>
<linearGradient id="paint2_linear_342_1824" x1="74.1502" y1="14.4056" x2="46.2881" y2="14.4056" gradientUnits="userSpaceOnUse">
<stop stop-color="#59D5E0"/>
<stop offset="1" stop-color="#4CB9E7"/>
</linearGradient>
<linearGradient id="paint3_linear_342_1824" x1="64.8377" y1="12.0555" x2="46.2881" y2="12.0555" gradientUnits="userSpaceOnUse">
<stop stop-color="#59D5E0"/>
<stop offset="1" stop-color="#4CB9E7"/>
</linearGradient>
<linearGradient id="paint4_linear_342_1824" x1="63.82" y1="34.1722" x2="36.625" y2="34.1722" gradientUnits="userSpaceOnUse">
<stop stop-color="#59D5E0"/>
<stop offset="1" stop-color="#4CB9E7"/>
</linearGradient>
<linearGradient id="paint5_linear_342_1824" x1="75.8355" y1="57.4843" x2="68.7832" y2="57.4843" gradientUnits="userSpaceOnUse">
<stop stop-color="#59D5E0"/>
<stop offset="1" stop-color="#4CB9E7"/>
</linearGradient>
<linearGradient id="paint6_linear_342_1824" x1="85.6668" y1="35.4039" x2="77.3335" y2="35.4039" gradientUnits="userSpaceOnUse">
<stop stop-color="#59D5E0"/>
<stop offset="1" stop-color="#4CB9E7"/>
</linearGradient>
<linearGradient id="paint7_linear_342_1824" x1="23.1668" y1="35.4039" x2="14.8335" y2="35.4039" gradientUnits="userSpaceOnUse">
<stop stop-color="#59D5E0"/>
<stop offset="1" stop-color="#4CB9E7"/>
</linearGradient>
<linearGradient id="paint8_linear_342_1824" x1="31.7589" y1="57.4634" x2="24.6445" y2="57.4634" gradientUnits="userSpaceOnUse">
<stop stop-color="#59D5E0"/>
<stop offset="1" stop-color="#4CB9E7"/>
</linearGradient>
<linearGradient id="paint9_linear_342_1824" x1="82.9056" y1="88.4344" x2="17.2056" y2="88.4344" gradientUnits="userSpaceOnUse">
<stop stop-color="#59D5E0"/>
<stop offset="1" stop-color="#4CB9E7"/>
</linearGradient>
<linearGradient id="paint10_linear_342_1824" x1="76.8509" y1="77.9595" x2="23.6509" y2="77.9595" gradientUnits="userSpaceOnUse">
<stop stop-color="#59D5E0"/>
<stop offset="1" stop-color="#4CB9E7"/>
</linearGradient>
<linearGradient id="paint11_linear_342_1824" x1="70.8509" y1="67.9595" x2="29.6509" y2="67.9595" gradientUnits="userSpaceOnUse">
<stop stop-color="#59D5E0"/>
<stop offset="1" stop-color="#4CB9E7"/>
</linearGradient>
<linearGradient id="paint12_linear_342_1824" x1="68.8509" y1="35.3828" x2="30.6509" y2="35.3828" gradientUnits="userSpaceOnUse">
<stop stop-color="#59D5E0"/>
<stop offset="1" stop-color="#4CB9E7"/>
</linearGradient>
</defs>
</svg>
