<svg width="101" height="100" viewBox="0 0 101 100" fill="none" xmlns="http://www.w3.org/2000/svg">
<g clip-path="url(#clip0_268_987)">
<path d="M98.0548 25.31H84.2851C83.579 25.31 82.9155 25.5844 82.4175 26.0824L76.6808 31.8174C76.1476 32.3508 75.9894 33.1453 76.278 33.8414C76.5665 34.5377 77.2401 34.9877 77.9942 34.9877H83.5185L57.5739 60.9301L50.378 53.7342L61.8204 42.2912V47.8156C61.8204 48.5695 62.2704 49.2432 62.9667 49.5315C63.6628 49.8195 64.4571 49.6619 64.9901 49.1285L70.7259 43.3924C71.2245 42.8934 71.4991 42.2301 71.4991 41.5248V27.7545C71.4991 26.4061 70.4021 25.309 69.0536 25.309H55.2814C54.5759 25.309 53.9124 25.5838 53.4136 26.0826L47.6796 31.8166C47.1466 32.3498 46.9884 33.1441 47.2769 33.8404C47.5653 34.5369 48.2388 34.9869 48.9927 34.9869H54.5147L43.0726 46.4283L33.6933 37.049C32.7399 36.0957 31.1886 36.0959 30.2349 37.049L26.3892 40.8949C25.4356 41.8484 25.4356 43.3998 26.3892 44.3533L35.7681 53.7322L28.5706 60.9293L17.5122 49.8709C16.9401 49.299 16.0126 49.299 15.4405 49.8709C14.8685 50.4432 14.8685 51.3705 15.4405 51.9428L26.8413 63.3436C27.7972 64.2992 29.344 64.2992 30.2997 63.3436C38.6929 54.9514 50.0323 43.6139 58.4177 35.2275C59.5853 34.0598 58.7567 32.0572 57.1042 32.0572H51.5821L55.4007 28.2387H68.5692V41.4055L64.7501 45.225V39.7018C64.7501 38.0506 62.7472 37.2199 61.579 38.3887C56.8642 43.1061 31.3175 68.6516 28.573 71.3963L3.6292 46.4537L6.79014 43.2928L10.5778 47.0805C11.1499 47.6523 12.0774 47.6523 12.6495 47.0805C13.2216 46.5082 13.2216 45.5809 12.6495 45.0086L8.51943 40.8785C8.05752 40.4168 7.44346 40.1623 6.79014 40.1623C6.13701 40.1623 5.52275 40.4168 5.06084 40.8785L1.21514 44.7244C0.261621 45.6779 0.261621 47.2295 1.21514 48.183L27.121 74.0883C27.5212 74.4885 28.047 74.6887 28.573 74.6887C29.0987 74.6887 29.6245 74.4885 30.0249 74.0881L43.0739 61.0383L56.1196 74.084C56.5062 74.4736 57.0216 74.6891 57.5708 74.6902H57.5751C58.1237 74.6902 58.6394 74.4766 59.0274 74.0885L80.9788 52.1369C81.5509 51.5647 81.5509 50.6373 80.9788 50.065C80.4067 49.4932 79.4792 49.4932 78.9071 50.065L57.5757 71.3973L45.1454 58.967L48.3062 55.8061L55.8442 63.344C56.7991 64.2994 58.347 64.3006 59.3028 63.3443L87.4206 35.2287C87.9538 34.6953 88.112 33.9006 87.8235 33.2045C87.5351 32.5082 86.8614 32.0582 86.1073 32.0582H80.5839L84.4034 28.2398H97.5704V41.4068L93.7521 45.2266V39.7029C93.7521 38.9488 93.3019 38.275 92.6054 37.9865C91.9093 37.6986 91.1146 37.8566 90.5816 38.3897L83.7573 45.2139C83.1853 45.7861 83.1853 46.7135 83.7573 47.2857C84.3294 47.8576 85.2569 47.8576 85.829 47.2857L90.8226 42.2922V47.8164C90.8226 48.5686 91.271 49.2412 91.9649 49.5303C92.6599 49.8195 93.4544 49.6641 93.9933 49.1295L99.7276 43.3934C100.226 42.8949 100.5 42.2316 100.5 41.5254V27.7557C100.5 26.4068 99.4032 25.31 98.0548 25.31ZM28.8032 42.6246L31.9642 39.4637L41.0009 48.5004L37.8399 51.6611L28.8032 42.6246Z" fill="url(#paint0_linear_268_987)"/>
</g>
<defs>
<linearGradient id="paint0_linear_268_987" x1="100.501" y1="49.8481" x2="0.499999" y2="49.8481" gradientUnits="userSpaceOnUse">
<stop stop-color="#59D5E0"/>
<stop offset="1" stop-color="#4CB9E7"/>
</linearGradient>
<clipPath id="clip0_268_987">
<rect width="100" height="100" fill="white" transform="translate(0.5)"/>
</clipPath>
</defs>
</svg>
