<svg width="100" height="100" viewBox="0 0 100 100" fill="none" xmlns="http://www.w3.org/2000/svg">
<path d="M91.3593 17.207C90.994 16.8418 90.4921 16.6346 89.9782 16.6346C89.4626 16.6346 88.9606 16.8418 88.5952 17.207C88.2321 17.5701 88.0249 18.0722 88.0249 18.5879C88.0249 19.1015 88.2321 19.6056 88.5952 19.9689C88.9605 20.3322 89.4624 20.5412 89.9782 20.5412C90.4919 20.5412 90.994 20.3324 91.3593 19.9689C91.7226 19.6056 91.9296 19.1017 91.9296 18.5879C91.9296 18.0722 91.7226 17.5701 91.3593 17.207Z" fill="url(#paint0_linear_268_990)"/>
<path d="M46.4984 63.2082C46.1334 62.843 45.6313 62.6357 45.1174 62.6357C44.6018 62.6357 44.0996 62.843 43.7344 63.2082C43.3713 63.5713 43.1641 64.0734 43.1641 64.5891C43.1641 65.1027 43.3713 65.6066 43.7344 65.9701C44.0996 66.3334 44.6016 66.5424 45.1174 66.5424C45.6311 66.5424 46.1332 66.3336 46.4984 65.9701C46.8617 65.6068 47.0688 65.1029 47.0688 64.5891C47.0689 64.0734 46.8619 63.5713 46.4984 63.2082Z" fill="url(#paint1_linear_268_990)"/>
<path d="M96.0904 23.694C95.5572 22.7561 94.3643 22.4283 93.4269 22.9615C92.4893 23.4947 92.1613 24.6873 92.6947 25.625C98.4967 35.8277 96.7451 48.7574 88.435 57.0674L86.9539 58.5485C86.5961 57.6096 86.0418 56.7289 85.2865 55.9738L65.217 35.9045C66.5295 35.2588 67.7422 34.3973 68.8068 33.3326L72.656 29.4832C73.4187 28.7205 73.4187 27.4836 72.656 26.7209C71.8932 25.9582 70.6566 25.9582 69.8936 26.7209L66.0443 30.5703C64.2359 32.3785 61.8318 33.3744 59.2746 33.3744H51.5799C51.0619 33.3744 50.5652 33.5803 50.1986 33.9465L44.308 39.8371C42.5588 41.5865 39.7125 41.5865 37.9633 39.8371C36.2139 38.0879 36.2139 35.2416 37.9633 33.4924L51.4117 20.0442C59.6303 11.8254 72.4609 10.018 82.6123 15.6488C83.5557 16.1717 84.7447 15.8317 85.268 14.8881C85.7912 13.9447 85.4506 12.7557 84.5072 12.2324C78.908 9.12717 72.3111 7.88439 65.9307 8.7342C59.9596 9.52932 54.4941 12.0295 50.0141 15.9967C44.5103 11.1176 37.5039 8.44943 30.0859 8.44943C22.0496 8.44943 14.4945 11.5789 8.81191 17.2613C3.1293 22.9438 0 30.4994 0 38.5356C0 46.5719 3.12949 54.127 8.81191 59.8096L9.54805 60.5457C9.67617 60.6736 9.81836 60.7783 9.96855 60.8633C10.0992 62.5531 10.8072 64.2063 12.0969 65.4957C13.5322 66.9309 15.4166 67.6481 17.3016 67.6481C17.3994 67.6481 17.4975 67.6449 17.5953 67.641C17.5914 67.7399 17.5881 67.8387 17.5881 67.9381C17.5881 69.9041 18.3537 71.7525 19.7439 73.1428C21.1793 74.5779 23.0637 75.2953 24.9486 75.2951C25.0465 75.2951 25.1445 75.292 25.2424 75.2881C25.2385 75.3869 25.2352 75.4858 25.2352 75.5852C25.2352 77.5512 26.0008 79.3996 27.3912 80.7899C28.8264 82.2248 30.7111 82.9422 32.5959 82.9422C32.6949 82.9422 32.7939 82.9391 32.893 82.9352C32.8137 84.9178 33.5279 86.9268 35.0383 88.4373C36.4287 89.8276 38.2771 90.5932 40.243 90.5932C42.2092 90.5932 44.0576 89.8276 45.4477 88.4373L48.1775 85.7072L51.8648 89.3942C53.2551 90.7846 55.1035 91.5502 57.0695 91.5502C59.0355 91.5502 60.884 90.7846 62.2742 89.3943C63.8027 87.8658 64.5168 85.8266 64.4172 83.8207C64.5398 83.8268 64.6629 83.8303 64.7857 83.8303C66.6707 83.8303 68.5559 83.1129 69.9908 81.6777C71.5004 80.1682 72.2146 78.1608 72.1361 76.1791C72.235 76.183 72.3338 76.1863 72.4332 76.1863C74.3992 76.1863 76.2477 75.4207 77.6379 74.0305C79.1475 72.5209 79.8617 70.5135 79.7832 68.5319C79.882 68.5358 79.9809 68.5391 80.0803 68.5391C82.0463 68.5391 83.8947 67.7734 85.285 66.3832C85.991 65.6772 86.5227 64.8615 86.8812 63.991C87.0713 63.8984 87.25 63.7752 87.408 63.6174L91.1959 59.8295C100.747 50.2805 102.759 35.4207 96.0904 23.694ZM17.3018 63.7449C16.3791 63.7449 15.5117 63.3858 14.8592 62.7332C14.2068 62.0809 13.8475 61.2135 13.8475 60.2908C13.8475 59.3684 14.2066 58.5008 14.8592 57.8484L18.2252 54.4824C18.8775 53.8299 19.7451 53.4707 20.6678 53.4707C21.5902 53.4707 22.4578 53.8299 23.1102 54.4824C24.457 55.8293 24.457 58.0205 23.1102 59.3672L19.7441 62.7334C19.0918 63.3856 18.2246 63.7449 17.3018 63.7449ZM22.5068 70.3807C21.8543 69.7283 21.4951 68.8608 21.4951 67.9383C21.4951 67.0156 21.8543 66.1483 22.5068 65.4959L25.873 62.1297C25.873 62.1297 25.873 62.1297 25.873 62.1295C26.5254 61.4772 27.3928 61.1178 28.3154 61.1178C29.2379 61.1178 30.1055 61.477 30.7578 62.1295C32.1047 63.4764 32.1047 65.6676 30.7578 67.0143L27.3918 70.3805C26.0447 71.7272 23.8529 71.7272 22.5068 70.3807ZM30.1539 78.0278C29.5014 77.3754 29.1422 76.5078 29.1422 75.5854C29.1422 74.6627 29.5014 73.7953 30.1539 73.143L33.5201 69.7768C34.1725 69.1244 35.0398 68.7649 35.9625 68.7649C36.8852 68.7649 37.7525 69.124 38.4049 69.7766C39.7518 71.1236 39.7518 73.3148 38.4049 74.6615L35.0387 78.0278C33.692 79.3746 31.5008 79.3746 30.1539 78.0278ZM46.0521 82.309L42.6859 85.6754C42.0336 86.3277 41.1662 86.6871 40.2435 86.6871C39.3211 86.6871 38.4535 86.3279 37.8012 85.6754C36.4543 84.3283 36.4543 82.1371 37.8012 80.7904L41.1674 77.4242C41.8197 76.7719 42.6871 76.4123 43.6098 76.4123C44.5322 76.4123 45.3998 76.7715 46.0521 77.424C46.7047 78.0764 47.0639 78.944 47.0639 79.8664C47.0641 80.7895 46.7047 81.6567 46.0521 82.309ZM82.524 63.6209C81.8717 64.2735 81.0041 64.6326 80.0816 64.6326C79.159 64.6326 78.2916 64.2735 77.6393 63.6209L69.509 55.4906C69.5086 55.4902 69.5084 55.4901 69.508 55.4897L61.8615 47.8432C61.0986 47.0805 59.8621 47.0805 59.099 47.8432C58.3363 48.6059 58.3363 49.8428 59.099 50.6055L74.8767 66.3828C76.2236 67.7299 76.2236 69.9211 74.8767 71.2678C74.2244 71.9203 73.3568 72.2795 72.4344 72.2795C71.5117 72.2795 70.6443 71.9203 69.992 71.2678L54.2143 55.4902C53.4514 54.7277 52.2148 54.7277 51.4518 55.4902C50.6891 56.2529 50.6891 57.4899 51.4518 58.2527L59.0975 65.8983C59.098 65.8988 59.0986 65.8996 59.0992 65.9002L67.2297 74.0303C68.5766 75.3774 68.5766 77.5688 67.2299 78.9154C65.8828 80.2623 63.6912 80.2623 62.3449 78.9154L54.2145 70.785C54.0641 70.6348 53.8951 70.5152 53.7152 70.4242L51.3963 68.1053C50.6334 67.3428 49.3969 67.3428 48.6338 68.1053C47.8711 68.868 47.8711 70.1049 48.6338 70.8678L59.5131 81.7467C60.86 83.0938 60.86 85.285 59.5131 86.6316C58.8607 87.2842 57.9932 87.6434 57.0707 87.6434C56.148 87.6434 55.2807 87.2842 54.6283 86.6316L50.4885 82.492C50.8039 81.6645 50.9707 80.7783 50.9707 79.8662C50.9707 77.9002 50.2051 76.0518 48.8148 74.6615C47.4244 73.2713 45.576 72.5057 43.6102 72.5057C43.5107 72.5057 43.4119 72.509 43.3131 72.5129C43.3914 70.5313 42.6773 68.5238 41.1678 67.0143C39.7773 65.624 37.9289 64.8584 35.9631 64.8584C35.8637 64.8584 35.7648 64.8617 35.666 64.8656C35.7445 62.884 35.0303 60.8766 33.5207 59.367C32.1303 57.9768 30.2818 57.2111 28.316 57.2111C28.2166 57.2111 28.1178 57.2145 28.0189 57.2184C28.0975 55.2367 27.3832 53.2293 25.8736 51.7197C23.0037 48.8498 18.3336 48.85 15.4637 51.7197L12.0977 55.0858C11.673 55.5104 11.3131 55.975 11.0139 56.4668C6.42578 51.5936 3.90742 45.2582 3.90742 38.5352C3.90742 31.5424 6.63047 24.968 11.5754 20.0235C16.5199 15.0789 23.0945 12.3557 30.0871 12.3557C36.4418 12.3557 42.4508 14.6049 47.2051 18.7264L35.2018 30.7297C33.6166 32.3151 32.7436 34.4227 32.7436 36.6645C32.7436 38.9065 33.6166 41.0141 35.2018 42.5994C36.8381 44.2356 38.9875 45.0537 41.1367 45.0537C43.2859 45.0537 45.4353 44.2358 47.0717 42.5994L52.3904 37.2807H59.2758C59.8443 37.2807 60.4066 37.2418 60.9621 37.1729L82.5252 58.7356C83.8707 60.083 83.8707 62.2744 82.524 63.6209Z" fill="url(#paint2_linear_268_990)"/>
<defs>
<linearGradient id="paint0_linear_268_990" x1="91.9296" y1="18.5759" x2="88.0249" y2="18.5759" gradientUnits="userSpaceOnUse">
<stop stop-color="#59D5E0"/>
<stop offset="1" stop-color="#4CB9E7"/>
</linearGradient>
<linearGradient id="paint1_linear_268_990" x1="47.0688" y1="64.5771" x2="43.1641" y2="64.5771" gradientUnits="userSpaceOnUse">
<stop stop-color="#59D5E0"/>
<stop offset="1" stop-color="#4CB9E7"/>
</linearGradient>
<linearGradient id="paint2_linear_268_990" x1="99.9998" y1="49.7449" x2="-1.45271e-06" y2="49.7449" gradientUnits="userSpaceOnUse">
<stop stop-color="#59D5E0"/>
<stop offset="1" stop-color="#4CB9E7"/>
</linearGradient>
</defs>
</svg>
