<svg width="101" height="100" viewBox="0 0 101 100" fill="none" xmlns="http://www.w3.org/2000/svg">
<path d="M93.4753 65.7234C92.5874 64.1175 91.1772 62.8632 89.4786 62.1687C87.78 61.4741 85.895 61.3811 84.1362 61.9049L61.625 68.5174C61.2633 66.6406 60.3927 64.8993 59.1082 63.4839C57.8237 62.0685 56.1749 61.0335 54.3419 60.4919L39.5859 56.0555C39.2742 55.9616 38.941 55.9675 38.6328 56.0722L25.0428 60.6875V57.5516C25.0428 57.1372 24.8782 56.7397 24.5852 56.4467C24.2921 56.1537 23.8947 55.9891 23.4803 55.9891H8.5625C8.1481 55.9891 7.75067 56.1537 7.45765 56.4467C7.16462 56.7397 7 57.1372 7 57.5516V85.7613C7 86.1757 7.16462 86.5731 7.45765 86.8661C7.75067 87.1591 8.1481 87.3238 8.5625 87.3238H23.4803C23.8947 87.3238 24.2921 87.1591 24.5852 86.8661C24.8782 86.5731 25.0428 86.1757 25.0428 85.7613V83.6917C31.2752 85.69 47.5814 89.9903 55.2834 91.9999C55.482 92.0517 55.6889 92.0638 55.8922 92.0357C56.0954 92.0076 56.2912 91.9397 56.4683 91.8359C56.6453 91.7321 56.8002 91.5944 56.924 91.4308C57.0479 91.2671 57.1383 91.0807 57.1901 90.8821C57.2419 90.6835 57.2541 90.4767 57.2259 90.2734C57.1978 90.0701 57.1299 89.8744 57.0261 89.6973C56.9223 89.5203 56.7847 89.3654 56.621 89.2415C56.4574 89.1177 56.2709 89.0273 56.0723 88.9755C45.5952 86.2428 29.0077 81.7905 25.0428 80.4286V63.988L39.1647 59.1919L53.4417 63.4844C54.8657 63.9082 56.1267 64.7559 57.0567 65.9146C57.9867 67.0732 58.5416 68.4878 58.6473 69.9697C57.4767 71.0705 53.6513 73.9141 46.4745 72.487C46.068 72.4065 45.6462 72.4907 45.3018 72.7212C44.9574 72.9517 44.7187 73.3096 44.6381 73.7161C44.5576 74.1226 44.6418 74.5445 44.8723 74.8889C45.1028 75.2332 45.4607 75.472 45.8672 75.5525C47.3127 75.8459 48.7836 75.9967 50.2586 76.0027C52.2478 76.0801 54.2324 75.7594 56.0959 75.0593C57.9594 74.3593 59.6643 73.294 61.1105 71.926L85.0175 64.9035C86.2244 64.5491 87.5209 64.6667 88.6444 65.2324C89.7678 65.7981 90.6343 66.7696 91.0683 67.9502C91.5023 69.1308 91.4714 70.4323 90.9818 71.5909C90.4923 72.7496 89.5806 73.6789 88.4316 74.1906L61.773 86.0625C61.3944 86.2311 61.0983 86.5431 60.9498 86.93C60.8013 87.3169 60.8125 87.7469 60.9811 88.1255C61.1497 88.5041 61.4617 88.8002 61.8486 88.9487C62.2355 89.0972 62.6655 89.0859 63.0441 88.9174L89.7031 77.0455C90.7288 76.5888 91.648 75.9235 92.4024 75.092C93.1567 74.2605 93.7296 73.281 94.0845 72.2159C94.4394 71.1507 94.5686 70.0233 94.4638 68.9056C94.359 67.7878 94.022 66.704 93.4753 65.7234ZM21.9178 84.1988H10.125V59.1141H21.9178V84.1988Z" fill="url(#paint0_linear_268_919)"/>
<path d="M14.6255 64.8766H17.4155C17.8299 64.8766 18.2273 64.7119 18.5203 64.4189C18.8134 64.1259 18.978 63.7285 18.978 63.3141C18.978 62.8997 18.8134 62.5022 18.5203 62.2092C18.2273 61.9162 17.8299 61.7516 17.4155 61.7516H14.6255C14.2111 61.7516 13.8137 61.9162 13.5206 62.2092C13.2276 62.5022 13.063 62.8997 13.063 63.3141C13.063 63.7285 13.2276 64.1259 13.5206 64.4189C13.8137 64.7119 14.2111 64.8766 14.6255 64.8766Z" fill="url(#paint1_linear_268_919)"/>
<path d="M37.2473 38.1699V45.6428C37.2473 46.0572 37.4119 46.4547 37.7049 46.7477C37.998 47.0407 38.3954 47.2053 38.8098 47.2053H50.749C51.1634 47.2053 51.5608 47.0407 51.8539 46.7477C52.1469 46.4547 52.3115 46.0572 52.3115 45.6428C52.3115 45.2284 52.1469 44.831 51.8539 44.538C51.5608 44.2449 51.1634 44.0803 50.749 44.0803H40.3723V36.7669C40.3723 36.3525 40.2077 35.9551 39.9146 35.662C39.6216 35.369 39.2242 35.2044 38.8098 35.2044C38.2083 35.2079 37.612 35.0925 37.0552 34.8647C36.4984 34.6369 35.9922 34.3014 35.5656 33.8772C35.139 33.4531 34.8004 32.9489 34.5694 32.3934C34.3384 31.838 34.2195 31.2424 34.2195 30.6409C34.2195 30.0393 34.3384 29.4437 34.5694 28.8883C34.8004 28.3329 35.139 27.8286 35.5656 27.4045C35.9922 26.9804 36.4984 26.6448 37.0552 26.417C37.612 26.1893 38.2083 26.0738 38.8098 26.0774C39.2242 26.0774 39.6216 25.9127 39.9146 25.6197C40.2077 25.3267 40.3723 24.9293 40.3723 24.5149V17.2013H47.6865C48.1009 17.2013 48.4983 17.0366 48.7914 16.7436C49.0844 16.4506 49.249 16.0532 49.249 15.6388C49.2455 15.0372 49.3609 14.4408 49.5887 13.884C49.8165 13.3272 50.1521 12.821 50.5762 12.3943C51.0004 11.9677 51.5047 11.6291 52.0601 11.3981C52.6156 11.1671 53.2112 11.0481 53.8128 11.0481C54.4144 11.0481 55.0101 11.1671 55.5655 11.3981C56.121 11.6291 56.6253 11.9677 57.0494 12.3943C57.4736 12.821 57.8092 13.3272 58.037 13.884C58.2647 14.4408 58.3802 15.0372 58.3767 15.6388C58.3767 16.0532 58.5413 16.4506 58.8343 16.7436C59.1273 17.0366 59.5248 17.2013 59.9392 17.2013H67.2521V23.1117C65.5211 23.4712 63.9668 24.4162 62.851 25.7875C61.7352 27.1589 61.1259 28.8728 61.1259 30.6408C61.1259 32.4088 61.7352 34.1227 62.851 35.4941C63.9668 36.8654 65.5211 37.8104 67.2521 38.1699V44.0803H57.9428C57.5284 44.0803 57.1309 44.2449 56.8379 44.538C56.5449 44.831 56.3803 45.2284 56.3803 45.6428C56.3803 46.0572 56.5449 46.4547 56.8379 46.7477C57.1309 47.0407 57.5284 47.2053 57.9428 47.2053H68.8146C69.229 47.2053 69.6265 47.0407 69.9195 46.7477C70.2125 46.4547 70.3771 46.0572 70.3771 45.6428V36.7669C70.3771 36.3525 70.2125 35.9551 69.9195 35.662C69.6265 35.369 69.229 35.2044 68.8146 35.2044C68.2131 35.2079 67.6168 35.0925 67.06 34.8647C66.5033 34.6369 65.997 34.3014 65.5704 33.8772C65.1438 33.4531 64.8053 32.9489 64.5743 32.3934C64.3433 31.838 64.2243 31.2424 64.2243 30.6409C64.2243 30.0393 64.3433 29.4437 64.5743 28.8883C64.8053 28.3329 65.1438 27.8286 65.5704 27.4045C65.997 26.9804 66.5033 26.6448 67.06 26.417C67.6168 26.1893 68.2131 26.0738 68.8146 26.0774C69.229 26.0774 69.6265 25.9127 69.9195 25.6197C70.2125 25.3267 70.3771 24.9293 70.3771 24.5149V15.6388C70.3771 15.2244 70.2125 14.8269 69.9195 14.5339C69.6265 14.2409 69.229 14.0763 68.8146 14.0763H61.3417C60.9821 12.3452 60.0371 10.7909 58.6657 9.67506C57.2942 8.55922 55.5802 7.95002 53.8122 7.95002C52.0442 7.95002 50.3302 8.55922 48.9588 9.67506C47.5874 10.7909 46.6423 12.3452 46.2828 14.0763H38.8098C38.3954 14.0763 37.998 14.2409 37.7049 14.5339C37.4119 14.8269 37.2473 15.2244 37.2473 15.6388V23.1117C35.5163 23.4712 33.962 24.4162 32.8461 25.7875C31.7303 27.1589 31.1211 28.8728 31.1211 30.6408C31.1211 32.4088 31.7303 34.1227 32.8461 35.4941C33.962 36.8654 35.5163 37.8104 37.2473 38.1699Z" fill="url(#paint2_linear_268_919)"/>
<defs>
<linearGradient id="paint0_linear_268_919" x1="94.4991" y1="73.9091" x2="7" y2="73.9091" gradientUnits="userSpaceOnUse">
<stop stop-color="#59D5E0"/>
<stop offset="1" stop-color="#4CB9E7"/>
</linearGradient>
<linearGradient id="paint1_linear_268_919" x1="18.978" y1="63.3045" x2="13.063" y2="63.3045" gradientUnits="userSpaceOnUse">
<stop stop-color="#59D5E0"/>
<stop offset="1" stop-color="#4CB9E7"/>
</linearGradient>
<linearGradient id="paint2_linear_268_919" x1="70.3771" y1="27.4573" x2="31.1211" y2="27.4573" gradientUnits="userSpaceOnUse">
<stop stop-color="#59D5E0"/>
<stop offset="1" stop-color="#4CB9E7"/>
</linearGradient>
</defs>
</svg>
